<?xml version="1.0" encoding="UTF-8" standalone="no"?>
<!DOCTYPE svg PUBLIC "-//W3C//DTD SVG 1.1//EN" "http://www.w3.org/Graphics/SVG/1.1/DTD/svg11.dtd">
<svg width="100%" height="100%" viewBox="0 0 384 384" version="1.1" xmlns="http://www.w3.org/2000/svg" xmlns:xlink="http://www.w3.org/1999/xlink" xml:space="preserve" xmlns:serif="http://www.serif.com/" style="fill-rule:evenodd;clip-rule:evenodd;stroke-linejoin:round;stroke-miterlimit:2;">
    <path d="M383.729,75.963L383.386,83.682C383.386,100.167 372.123,114.043 356.868,117.985L356.868,183.498L383.729,183.498L383.729,75.963ZM0.185,88.513L0.185,183.498L26.335,183.498L26.335,117.985C12.597,114.438 2.105,102.829 0.185,88.513ZM230.746,1.77L234.396,83.682C234.396,103.272 250.3,119.177 269.891,119.177C289.481,119.177 305.386,103.272 305.386,83.682L308.891,5.013L312.396,83.682C312.396,100.167 323.658,114.043 338.913,117.985L338.913,183.498L44.291,183.498L44.291,117.985C59.545,114.043 70.808,100.167 70.808,83.682L74.313,5.013L77.818,83.682C77.818,103.272 93.723,119.177 113.313,119.177C132.903,119.177 148.808,103.272 148.808,83.682L152.457,1.77L156.107,83.682C156.107,103.272 172.012,119.177 191.602,119.177C211.192,119.177 227.097,103.272 227.097,83.682L230.746,1.77ZM74.306,-11.095C74.292,-11.028 74.279,-10.961 74.265,-10.894C74.252,-10.825 74.239,-10.757 74.226,-10.688C74.238,-10.755 74.251,-10.822 74.265,-10.889C74.278,-10.956 74.291,-11.023 74.305,-11.09L74.306,-11.095ZM230.585,-9.282C230.563,-9.102 230.543,-8.922 230.525,-8.742C230.491,-8.403 230.464,-8.064 230.443,-7.723C230.422,-7.364 230.408,-7.005 230.401,-6.646C230.397,-6.464 230.396,-6.282 230.396,-6.1L230.396,-6.095L230.48,-8.251L230.563,-8.913L230.585,-9.283L230.585,-9.282ZM74.808,-6.101L74.808,-6.095L74.808,-6.101ZM308.396,-6.101L308.396,-6.095L308.396,-6.101ZM152.107,-6.106L152.107,-6.102L152.107,-6.106ZM74.808,-6.106L74.808,-6.102L74.808,-6.106ZM308.396,-6.106L308.396,-6.102L308.396,-6.106ZM152.107,-6.112L152.107,-6.107L152.107,-6.112ZM74.808,-6.112L74.808,-6.108L74.808,-6.112ZM308.396,-6.112L308.396,-6.108L308.396,-6.112ZM387.386,-6.122C387.386,-6.12 387.386,-6.118 387.386,-6.115C387.386,-6.118 387.386,-6.12 387.386,-6.122ZM152.107,-6.117L152.107,-6.112L152.107,-6.117ZM74.808,-6.117L74.808,-6.114L74.808,-6.117ZM308.396,-6.117L308.396,-6.114L308.396,-6.117ZM152.107,-6.122L152.107,-6.118L152.107,-6.122ZM74.808,-6.123L74.808,-6.119L74.808,-6.123ZM308.396,-6.123L308.396,-6.119L308.396,-6.123ZM152.107,-6.129L152.107,-6.124L152.107,-6.129ZM74.808,-6.129L74.808,-6.125L74.808,-6.129ZM308.396,-6.129L308.396,-6.125L308.396,-6.129ZM152.296,-9.282C152.275,-9.105 152.255,-8.928 152.237,-8.751C152.203,-8.413 152.176,-8.075 152.155,-7.736C152.134,-7.381 152.12,-7.026 152.113,-6.671C152.109,-6.49 152.107,-6.31 152.107,-6.129L152.107,-6.134C152.107,-6.29 152.108,-6.445 152.111,-6.601C152.118,-6.94 152.131,-7.279 152.151,-7.617C152.169,-7.902 152.193,-8.188 152.223,-8.472C152.233,-8.57 152.244,-8.668 152.256,-8.766C152.262,-8.815 152.268,-8.864 152.274,-8.913L152.296,-9.282ZM74.635,-9L74.635,-8.994C74.697,-8.519 74.74,-8.039 74.767,-7.557C74.795,-7.072 74.808,-6.585 74.808,-6.095L74.808,-6.13C74.807,-6.309 74.806,-6.488 74.802,-6.667C74.795,-7.027 74.78,-7.388 74.759,-7.748C74.738,-8.09 74.711,-8.431 74.676,-8.771C74.664,-8.887 74.652,-9.004 74.638,-9.12C74.631,-9.177 74.624,-9.234 74.617,-9.291L74.617,-9.291L74.635,-9ZM308.586,-9.291C308.579,-9.234 308.572,-9.177 308.565,-9.12C308.552,-9.004 308.539,-8.887 308.527,-8.771C308.493,-8.431 308.465,-8.09 308.445,-7.748C308.423,-7.388 308.409,-7.027 308.401,-6.667C308.398,-6.488 308.396,-6.309 308.396,-6.13L308.396,-6.135C308.396,-6.296 308.398,-6.456 308.401,-6.617C308.407,-6.966 308.421,-7.315 308.442,-7.664C308.461,-7.96 308.485,-8.256 308.516,-8.551C308.527,-8.65 308.538,-8.75 308.55,-8.849C308.556,-8.899 308.562,-8.95 308.569,-9L308.586,-9.291ZM387.385,-6.229C387.385,-6.198 387.385,-6.166 387.385,-6.135C387.385,-6.166 387.385,-6.198 387.385,-6.229ZM387.384,-6.375C387.385,-6.333 387.385,-6.291 387.385,-6.249C387.385,-6.291 387.385,-6.333 387.384,-6.375ZM387.384,-6.402C387.384,-6.397 387.384,-6.393 387.384,-6.388C387.384,-6.393 387.384,-6.397 387.384,-6.402ZM387.384,-6.435C387.384,-6.433 387.384,-6.431 387.384,-6.428C387.384,-6.431 387.384,-6.433 387.384,-6.435ZM387.383,-6.488C387.383,-6.484 387.383,-6.479 387.383,-6.475C387.383,-6.479 387.383,-6.484 387.383,-6.488ZM387.383,-6.508C387.383,-6.506 387.383,-6.504 387.383,-6.502C387.383,-6.504 387.383,-6.506 387.383,-6.508ZM387.382,-6.561C387.382,-6.559 387.382,-6.557 387.382,-6.555C387.382,-6.557 387.382,-6.559 387.382,-6.561ZM387.381,-6.595C387.381,-6.592 387.381,-6.59 387.381,-6.588C387.381,-6.59 387.381,-6.592 387.381,-6.595ZM387.381,-6.625L387.381,-6.619L387.381,-6.625ZM387.38,-6.668C387.38,-6.666 387.38,-6.663 387.38,-6.661C387.38,-6.663 387.38,-6.666 387.38,-6.668ZM387.376,-6.821C387.376,-6.818 387.377,-6.816 387.377,-6.814C387.377,-6.816 387.376,-6.818 387.376,-6.821ZM387.376,-6.832L387.376,-6.823L387.376,-6.832ZM387.375,-6.867C387.375,-6.863 387.375,-6.858 387.376,-6.854C387.375,-6.858 387.375,-6.863 387.375,-6.867ZM387.374,-6.893C387.375,-6.889 387.375,-6.885 387.375,-6.88C387.375,-6.885 387.375,-6.889 387.374,-6.893ZM387.374,-6.927C387.374,-6.924 387.374,-6.922 387.374,-6.92C387.374,-6.922 387.374,-6.924 387.374,-6.927ZM387.37,-7.033C387.371,-7.002 387.372,-6.971 387.373,-6.94C387.372,-6.971 387.371,-7.002 387.37,-7.033ZM387.37,-7.034L387.368,-7.113C387.368,-7.087 387.369,-7.06 387.37,-7.034ZM387.355,-7.417L387.355,-7.422C387.36,-7.32 387.364,-7.218 387.367,-7.116L387.367,-7.119C387.365,-7.17 387.364,-7.22 387.361,-7.271C387.359,-7.32 387.357,-7.368 387.355,-7.417ZM-4.155,-7.355L-4.155,-7.345L-4.155,-7.355ZM-4.153,-7.39C-4.153,-7.386 -4.153,-7.381 -4.154,-7.377C-4.153,-7.381 -4.153,-7.386 -4.153,-7.39ZM-4.152,-7.415L-4.152,-7.406L-4.152,-7.415ZM387.337,-7.767C387.34,-7.718 387.342,-7.67 387.345,-7.621C387.348,-7.571 387.35,-7.52 387.353,-7.47C387.35,-7.52 387.348,-7.571 387.345,-7.621C387.342,-7.67 387.34,-7.718 387.337,-7.767ZM309.342,-7.654C309.342,-7.653 309.342,-7.651 309.342,-7.649C309.342,-7.651 309.342,-7.653 309.342,-7.654ZM309.341,-7.669C309.341,-7.667 309.341,-7.666 309.341,-7.664C309.341,-7.666 309.341,-7.667 309.341,-7.669ZM309.339,-7.699C309.34,-7.692 309.34,-7.686 309.341,-7.679C309.34,-7.686 309.34,-7.692 309.339,-7.699ZM309.338,-7.713L309.339,-7.705L309.338,-7.713ZM309.334,-7.788C309.335,-7.774 309.336,-7.761 309.336,-7.748C309.336,-7.761 309.335,-7.774 309.334,-7.788ZM387.334,-7.806C387.335,-7.799 387.335,-7.793 387.336,-7.786C387.335,-7.793 387.335,-7.799 387.334,-7.806ZM309.333,-7.807L309.333,-7.799L309.333,-7.807ZM309.324,-7.94C309.327,-7.898 309.33,-7.855 309.332,-7.812C309.33,-7.855 309.327,-7.898 309.324,-7.94ZM387.33,-7.879C387.331,-7.863 387.332,-7.848 387.333,-7.832C387.332,-7.848 387.331,-7.863 387.33,-7.879ZM387.325,-7.951C387.326,-7.94 387.327,-7.929 387.327,-7.918C387.327,-7.929 387.326,-7.94 387.325,-7.951ZM387.325,-7.962L387.324,-7.973C387.324,-7.969 387.324,-7.966 387.325,-7.962ZM309.312,-8.108C309.315,-8.063 309.319,-8.019 309.322,-7.975C309.319,-8.019 309.315,-8.063 309.312,-8.108ZM387.321,-8.012L387.322,-8.008L387.321,-8.012ZM387.32,-8.03C387.32,-8.028 387.32,-8.026 387.321,-8.023C387.32,-8.026 387.32,-8.028 387.32,-8.03ZM387.318,-8.063C387.318,-8.058 387.318,-8.054 387.319,-8.05C387.318,-8.054 387.318,-8.058 387.318,-8.063ZM387.316,-8.089C387.316,-8.085 387.317,-8.08 387.317,-8.076C387.317,-8.08 387.316,-8.085 387.316,-8.089ZM387.315,-8.103L387.314,-8.115L387.315,-8.103ZM309.31,-8.132C309.311,-8.127 309.311,-8.122 309.311,-8.117C309.311,-8.122 309.311,-8.127 309.31,-8.132ZM387.311,-8.155C387.312,-8.146 387.313,-8.137 387.313,-8.129C387.313,-8.137 387.312,-8.146 387.311,-8.155ZM309.307,-8.176C309.308,-8.167 309.308,-8.157 309.309,-8.147C309.308,-8.157 309.308,-8.167 309.307,-8.176ZM387.308,-8.201C387.308,-8.194 387.309,-8.188 387.309,-8.181C387.309,-8.188 387.308,-8.194 387.308,-8.201ZM387.306,-8.227C387.306,-8.223 387.307,-8.218 387.307,-8.214C387.307,-8.218 387.306,-8.223 387.306,-8.227ZM309.299,-8.279L309.299,-8.273L309.299,-8.279ZM309.298,-8.289C309.298,-8.288 309.298,-8.286 309.298,-8.285C309.298,-8.286 309.298,-8.288 309.298,-8.289ZM309.296,-8.314C309.296,-8.312 309.296,-8.311 309.296,-8.309C309.296,-8.311 309.296,-8.312 309.296,-8.314ZM309.292,-8.363C309.293,-8.35 309.294,-8.337 309.295,-8.324C309.294,-8.337 309.293,-8.35 309.292,-8.363ZM387.293,-8.391C387.295,-8.372 387.296,-8.352 387.298,-8.332C387.296,-8.352 387.295,-8.372 387.293,-8.391ZM309.281,-8.491C309.284,-8.456 309.287,-8.422 309.29,-8.388C309.287,-8.422 309.284,-8.456 309.281,-8.491ZM309.277,-8.525C309.278,-8.517 309.279,-8.509 309.28,-8.5C309.279,-8.509 309.278,-8.517 309.277,-8.525ZM309.271,-8.594C309.273,-8.576 309.274,-8.558 309.276,-8.54C309.274,-8.558 309.273,-8.576 309.271,-8.594ZM309.267,-8.633C309.268,-8.623 309.269,-8.613 309.27,-8.603C309.269,-8.613 309.268,-8.623 309.267,-8.633ZM309.264,-8.667C309.265,-8.66 309.265,-8.654 309.266,-8.647C309.265,-8.654 309.265,-8.66 309.264,-8.667ZM309.243,-8.872C309.25,-8.806 309.257,-8.741 309.263,-8.676L309.263,-8.677C309.257,-8.74 309.25,-8.804 309.244,-8.867L309.243,-8.872ZM387.232,-9.053C387.239,-8.987 387.245,-8.922 387.252,-8.856C387.245,-8.922 387.239,-8.987 387.232,-9.053ZM309.241,-8.892C309.241,-8.89 309.241,-8.889 309.242,-8.887C309.241,-8.889 309.241,-8.89 309.241,-8.892ZM309.239,-8.91L309.24,-8.904L309.239,-8.91ZM309.233,-8.965C309.234,-8.957 309.235,-8.949 309.236,-8.941C309.235,-8.949 309.234,-8.957 309.233,-8.965ZM73.975,-9.009C73.974,-9.003 73.974,-8.996 73.973,-8.989C73.974,-8.996 73.974,-9.003 73.975,-9.009ZM73.978,-9.033L73.976,-9.019C73.977,-9.024 73.977,-9.029 73.978,-9.033ZM73.981,-9.062L73.981,-9.058L73.981,-9.062ZM73.982,-9.07L73.982,-9.066L73.982,-9.07ZM309.215,-9.121C309.216,-9.111 309.218,-9.102 309.219,-9.092C309.218,-9.102 309.216,-9.111 309.215,-9.121ZM387.224,-9.124C387.224,-9.122 387.225,-9.12 387.225,-9.118C387.225,-9.12 387.224,-9.122 387.224,-9.124ZM309.206,-9.199C309.209,-9.176 309.212,-9.154 309.214,-9.131C309.212,-9.154 309.209,-9.176 309.206,-9.199ZM73.993,-9.16C73.991,-9.15 73.99,-9.141 73.989,-9.131C73.99,-9.141 73.991,-9.15 73.993,-9.16ZM387.212,-9.236C387.215,-9.206 387.218,-9.176 387.222,-9.146L387.212,-9.236ZM309.204,-9.213L309.205,-9.205L309.204,-9.213ZM74.001,-9.233C74.001,-9.23 74.001,-9.227 74,-9.223C74.001,-9.227 74.001,-9.23 74.001,-9.233ZM309.2,-9.253C309.2,-9.251 309.2,-9.249 309.2,-9.248C309.2,-9.249 309.2,-9.251 309.2,-9.253ZM387.209,-9.261C387.209,-9.257 387.21,-9.253 387.21,-9.248C387.21,-9.253 387.209,-9.257 387.209,-9.261ZM74.007,-9.277C74.006,-9.269 74.005,-9.261 74.004,-9.253C74.005,-9.261 74.006,-9.269 74.007,-9.277ZM387.207,-9.281C387.207,-9.279 387.207,-9.276 387.207,-9.274C387.207,-9.276 387.207,-9.279 387.207,-9.281ZM387.195,-9.385C387.199,-9.352 387.202,-9.32 387.206,-9.287C387.202,-9.32 387.199,-9.352 387.195,-9.385ZM309.194,-9.295L309.195,-9.291L309.194,-9.295ZM74.02,-9.384C74.016,-9.355 74.013,-9.326 74.009,-9.296C74.013,-9.326 74.016,-9.355 74.02,-9.384ZM309.186,-9.36C309.187,-9.352 309.188,-9.344 309.189,-9.335C309.188,-9.344 309.187,-9.352 309.186,-9.36ZM309.179,-9.413C309.181,-9.403 309.182,-9.394 309.183,-9.384C309.182,-9.394 309.181,-9.403 309.179,-9.413ZM74.024,-9.413C74.023,-9.405 74.022,-9.397 74.021,-9.389C74.022,-9.397 74.023,-9.405 74.024,-9.413ZM387.192,-9.408L387.193,-9.403L387.192,-9.408ZM309.17,-9.486C309.173,-9.465 309.175,-9.444 309.178,-9.423C309.175,-9.444 309.173,-9.465 309.17,-9.486ZM74.029,-9.455L74.029,-9.45L74.029,-9.455ZM387.185,-9.469L387.186,-9.457L387.185,-9.469ZM74.036,-9.505C74.035,-9.499 74.034,-9.493 74.033,-9.486C74.034,-9.493 74.035,-9.499 74.036,-9.505ZM387.18,-9.509C387.18,-9.506 387.18,-9.504 387.181,-9.502C387.18,-9.504 387.18,-9.506 387.18,-9.509ZM309.167,-9.51C309.167,-9.509 309.167,-9.507 309.167,-9.505C309.167,-9.507 309.167,-9.509 309.167,-9.51ZM74.038,-9.52L74.037,-9.515L74.038,-9.52ZM309.163,-9.535C309.164,-9.53 309.165,-9.525 309.165,-9.52C309.165,-9.525 309.164,-9.53 309.163,-9.535ZM387.178,-9.525L387.178,-9.521L387.178,-9.525ZM74.041,-9.544C74.041,-9.543 74.041,-9.541 74.041,-9.539C74.041,-9.541 74.041,-9.543 74.041,-9.544ZM387.176,-9.544L387.176,-9.541L387.176,-9.544ZM74.046,-9.581L74.042,-9.549C74.043,-9.56 74.045,-9.57 74.046,-9.581ZM309.143,-9.68C309.149,-9.638 309.155,-9.596 309.161,-9.554C309.155,-9.596 309.149,-9.638 309.143,-9.68ZM74.048,-9.593C74.048,-9.591 74.047,-9.59 74.047,-9.588C74.047,-9.59 74.048,-9.591 74.048,-9.593ZM387.155,-9.71C387.16,-9.671 387.165,-9.632 387.17,-9.593C387.165,-9.632 387.16,-9.671 387.155,-9.71ZM74.052,-9.622C74.051,-9.615 74.05,-9.609 74.049,-9.603C74.05,-9.609 74.051,-9.615 74.052,-9.622ZM74.055,-9.646C74.055,-9.641 74.054,-9.637 74.053,-9.632C74.054,-9.637 74.055,-9.641 74.055,-9.646ZM74.06,-9.68C74.059,-9.672 74.058,-9.664 74.057,-9.656C74.058,-9.664 74.059,-9.672 74.06,-9.68ZM74.063,-9.7C74.063,-9.698 74.062,-9.696 74.062,-9.695C74.062,-9.696 74.063,-9.698 74.063,-9.7ZM309.14,-9.704L309.141,-9.699L309.14,-9.704ZM74.065,-9.714C74.065,-9.712 74.064,-9.711 74.064,-9.709C74.064,-9.711 74.065,-9.712 74.065,-9.714ZM309.122,-9.825C309.128,-9.788 309.133,-9.751 309.138,-9.714C309.133,-9.751 309.128,-9.788 309.122,-9.825ZM74.066,-9.723L74.065,-9.716L74.066,-9.723ZM387.152,-9.731C387.152,-9.728 387.153,-9.724 387.153,-9.721L387.152,-9.731ZM74.07,-9.748C74.069,-9.742 74.068,-9.735 74.067,-9.729C74.068,-9.735 74.069,-9.742 74.07,-9.748ZM387.148,-9.762C387.149,-9.756 387.15,-9.749 387.15,-9.743C387.15,-9.749 387.149,-9.756 387.148,-9.762ZM74.108,-10.004C74.096,-9.924 74.084,-9.843 74.072,-9.763C74.084,-9.843 74.096,-9.924 74.108,-10.004ZM387.14,-9.818L387.141,-9.813L387.14,-9.818ZM387.131,-9.885C387.133,-9.874 387.134,-9.864 387.136,-9.853C387.134,-9.864 387.133,-9.874 387.131,-9.885ZM387.118,-9.982C387.119,-9.978 387.119,-9.974 387.12,-9.97C387.119,-9.974 387.119,-9.978 387.118,-9.982ZM74.11,-10.019C74.11,-10.014 74.109,-10.01 74.108,-10.005C74.109,-10.01 74.11,-10.014 74.11,-10.019ZM74.116,-10.053C74.115,-10.045 74.113,-10.037 74.112,-10.029C74.113,-10.037 74.115,-10.045 74.116,-10.053ZM74.117,-10.062C74.117,-10.061 74.117,-10.059 74.117,-10.058C74.117,-10.059 74.117,-10.061 74.117,-10.062ZM74.128,-10.13L74.12,-10.081C74.123,-10.097 74.125,-10.114 74.128,-10.13ZM309.078,-10.115C309.078,-10.112 309.079,-10.109 309.079,-10.106C309.079,-10.109 309.078,-10.112 309.078,-10.115ZM309.075,-10.13L309.076,-10.123L309.075,-10.13ZM309.073,-10.144C309.073,-10.141 309.074,-10.138 309.074,-10.135C309.074,-10.138 309.073,-10.141 309.073,-10.144ZM74.163,-10.337C74.151,-10.271 74.14,-10.205 74.13,-10.14C74.14,-10.205 74.151,-10.271 74.163,-10.337ZM309.069,-10.168C309.07,-10.164 309.071,-10.159 309.071,-10.154C309.071,-10.159 309.07,-10.164 309.069,-10.168ZM309.058,-10.236C309.061,-10.218 309.064,-10.201 309.067,-10.183C309.064,-10.201 309.061,-10.218 309.058,-10.236ZM309.046,-10.303C309.05,-10.284 309.053,-10.265 309.056,-10.246C309.053,-10.265 309.05,-10.284 309.046,-10.303ZM309.04,-10.342C309.042,-10.332 309.043,-10.323 309.045,-10.313C309.043,-10.323 309.042,-10.332 309.04,-10.342ZM387.065,-10.348L387.065,-10.343L387.065,-10.348ZM309.013,-10.496C309.021,-10.448 309.03,-10.4 309.038,-10.352C309.03,-10.4 309.021,-10.448 309.013,-10.496ZM74.166,-10.359L74.165,-10.352L74.166,-10.359ZM387.062,-10.364C387.062,-10.362 387.063,-10.36 387.063,-10.358C387.063,-10.36 387.062,-10.362 387.062,-10.364ZM74.168,-10.366L74.169,-10.372L74.168,-10.366ZM152.457,-10.369L152.007,-12.752L152.907,-12.752L152.457,-10.369ZM74.18,-10.438C74.177,-10.421 74.174,-10.403 74.171,-10.385C74.174,-10.403 74.177,-10.421 74.18,-10.438ZM74.192,-10.503L74.181,-10.445C74.185,-10.464 74.188,-10.483 74.192,-10.503ZM309.006,-10.534C309.008,-10.525 309.009,-10.515 309.011,-10.505C309.009,-10.515 309.008,-10.525 309.006,-10.534ZM74.223,-10.674C74.215,-10.629 74.206,-10.584 74.198,-10.539C74.206,-10.584 74.215,-10.629 74.223,-10.674ZM308.992,-10.611C308.996,-10.589 309,-10.566 309.004,-10.544C309,-10.566 308.996,-10.589 308.992,-10.611ZM308.986,-10.645L308.985,-10.648L308.986,-10.645ZM308.982,-10.664C308.983,-10.661 308.983,-10.658 308.984,-10.654C308.983,-10.658 308.983,-10.661 308.982,-10.664ZM308.971,-10.721C308.973,-10.71 308.976,-10.699 308.978,-10.688C308.976,-10.699 308.973,-10.71 308.971,-10.721ZM387.003,-10.731C387.003,-10.729 387.004,-10.727 387.004,-10.725C387.004,-10.727 387.003,-10.729 387.003,-10.731ZM308.962,-10.769C308.963,-10.765 308.964,-10.76 308.965,-10.755C308.964,-10.76 308.963,-10.765 308.962,-10.769ZM386.99,-10.809C386.992,-10.798 386.994,-10.787 386.996,-10.776C386.994,-10.787 386.992,-10.798 386.99,-10.809ZM308.953,-10.817C308.954,-10.811 308.955,-10.804 308.957,-10.798C308.955,-10.804 308.954,-10.811 308.953,-10.817ZM308.945,-10.856C308.946,-10.852 308.947,-10.849 308.947,-10.846C308.947,-10.849 308.946,-10.852 308.945,-10.856ZM308.943,-10.87C308.943,-10.868 308.943,-10.867 308.944,-10.865C308.943,-10.867 308.943,-10.868 308.943,-10.87ZM386.972,-10.911C386.974,-10.903 386.975,-10.894 386.977,-10.886C386.975,-10.894 386.974,-10.903 386.972,-10.911ZM308.925,-10.956C308.929,-10.94 308.932,-10.924 308.935,-10.908C308.932,-10.924 308.929,-10.94 308.925,-10.956ZM386.967,-10.94L386.968,-10.937L386.967,-10.94ZM308.923,-10.97C308.923,-10.969 308.923,-10.967 308.924,-10.966C308.923,-10.967 308.923,-10.969 308.923,-10.97ZM308.891,-11.134L308.585,-12.752L309.196,-12.752L308.891,-11.134ZM386.864,-11.494C386.864,-11.492 386.865,-11.49 386.865,-11.488C386.865,-11.49 386.864,-11.492 386.864,-11.494ZM386.618,-12.619C386.629,-12.571 386.641,-12.522 386.652,-12.474C386.641,-12.522 386.629,-12.571 386.618,-12.619ZM386.598,-12.701C386.601,-12.686 386.605,-12.672 386.608,-12.657C386.605,-12.672 386.601,-12.686 386.598,-12.701ZM73.818,-6.1C73.818,-6.263 73.819,-6.426 73.822,-6.589C73.828,-6.919 73.839,-7.25 73.857,-7.58C73.874,-7.891 73.896,-8.201 73.925,-8.51C73.939,-8.667 73.955,-8.823 73.972,-8.98L73.972,-8.983C73.867,-8.032 73.818,-7.068 73.818,-6.095L73.818,-6.1ZM152.808,-6.104C152.808,-6.154 152.807,-6.204 152.807,-6.255C152.807,-6.203 152.808,-6.151 152.808,-6.099L152.808,-6.104ZM231.097,-6.104C231.097,-6.178 231.096,-6.252 231.096,-6.326C231.096,-6.25 231.097,-6.175 231.097,-6.099L231.097,-6.104ZM383.729,-0.288L309.127,-0.288L308.891,5.013L308.654,-0.288L230.838,-0.288L230.746,1.77L230.654,-0.288L152.549,-0.288L152.457,1.77L152.107,-6.095L152.107,-6.1L152.457,-10.369C152.215,-8.971 152.107,-7.543 152.107,-6.095L152.366,-0.288L74.549,-0.288L74.313,5.013L74.077,-0.288L0.185,-0.288L0.185,88.587C-0.067,86.986 -0.182,85.347 -0.182,83.682L-0.905,67.47L-22.166,67.47L-22.166,-12.752L-3.382,-12.752C-3.913,-10.598 -4.182,-8.372 -4.182,-6.095C-4.182,-8.372 -3.913,-10.598 -3.382,-12.752L74.007,-12.752L74.308,-11.104L74.313,-11.134L74.36,-10.82L74.558,-9.737C74.491,-10.206 74.409,-10.672 74.313,-11.134L74.007,-12.752L74.618,-12.752L74.313,-11.134L74.686,-12.752L151.968,-12.752L152.457,-10.369C152.215,-8.971 152.107,-7.543 152.107,-6.095L152.36,-9.757L152.425,-10.112L152.457,-10.369L152.463,-10.321L152.907,-12.752L230.257,-12.752L230.746,-10.369L230.296,-12.752L231.196,-12.752L230.746,-10.369C230.729,-10.269 230.712,-10.169 230.696,-10.069C230.68,-9.967 230.665,-9.864 230.65,-9.761L230.649,-9.757L230.714,-10.112L230.746,-10.369L230.752,-10.321L231.196,-12.752L308.517,-12.752L308.891,-11.134C308.794,-10.672 308.713,-10.206 308.645,-9.737L308.843,-10.82L308.891,-11.134L308.895,-11.104L309.196,-12.752L386.585,-12.752C387.117,-10.598 387.386,-8.372 387.386,-6.095C387.386,-8.372 387.117,-10.598 386.585,-12.752L390.977,-12.752L390.977,67.47L384.108,67.47L383.729,75.963L383.729,-0.288Z" style="fill:white;"/>
    <path d="M0.185,183.498L-6.13,183.498L-6.13,383.478L385.157,383.478L385.157,183.498L383.729,183.498L383.729,383.405L0.185,383.405L0.185,183.498Z" style="fill:rgb(211,79,166);"/>
    <g transform="matrix(11.6653,-11.6653,1.05405,1.05405,-1772.81,1768.86)">
        <rect x="151.073" y="-1.973" width="1.546" height="387.711" style="fill:rgb(210,46,46);"/>
    </g>
</svg>
