<?xml version="1.0" encoding="UTF-8" standalone="no"?><!DOCTYPE svg PUBLIC "-//W3C//DTD SVG 1.1//EN" "http://www.w3.org/Graphics/SVG/1.1/DTD/svg11.dtd"><svg width="100%" height="100%" viewBox="0 0 384 384" version="1.1" xmlns="http://www.w3.org/2000/svg" xmlns:xlink="http://www.w3.org/1999/xlink" xml:space="preserve" xmlns:serif="http://www.serif.com/" style="fill-rule:evenodd;clip-rule:evenodd;stroke-linejoin:round;stroke-miterlimit:1.41421;"><path d="M384.073,384.347l-76.133,0l0,-42.001l53.567,0c11.802,-0.001 21.383,-9.843 21.383,-21.965l0,-175.717c0,-12.122 -9.581,-21.964 -21.383,-21.965l-25.988,0l0,-92.622c0,-16.272 -12.861,-29.483 -28.702,-29.483l-229.623,0c-15.841,0 -28.702,13.211 -28.702,29.483l0,92.622l-25.988,0c-11.801,0.001 -21.383,9.842 -21.383,21.965l0,175.717c0,12.123 9.582,21.965 21.383,21.965l53.567,0l0,42.001l-76.033,0l0,-384.035l384.035,0l0,384.035Zm-100.319,0l-183.497,0l0,-42.001l183.497,0l0,42.001Z" style="fill:#fff;"/></svg>