<svg xmlns="http://www.w3.org/2000/svg" width="66.216" height="68.827" viewBox="172.491 0 66.216 68.827"><g data-name="Group 2075"><g data-name="Group 2074" clip-path="url(&quot;#a&quot;)"><g data-name="Group 2073"><g data-name="Group 2072"><g data-name="Group 2071" transform="translate(178.782 10.408)" clip-path="url(&quot;#b&quot;)"><g data-name="Group 2032"><g data-name="Group 2031" transform="translate(37.292 8.704)" clip-path="url(&quot;#c&quot;)"><path d="M0 0h.03v.023H0V0z" fill-rule="evenodd" fill="url(&quot;#d&quot;)" data-name="Rectangle 873"/></g></g><g data-name="Group 2034"><g data-name="Group 2033" transform="translate(55.512 19.58)" clip-path="url(&quot;#e&quot;)"><path d="M0 0h.15v.996H0V0z" fill-rule="evenodd" fill="url(&quot;#f&quot;)" data-name="Rectangle 874"/></g></g><g data-name="Group 2036"><g data-name="Group 2035" transform="translate(35.741 8.867)" clip-path="url(&quot;#g&quot;)"><path d="M0 0h.021v.007H0V0z" fill-rule="evenodd" fill="url(&quot;#h&quot;)" data-name="Rectangle 875"/></g></g><g data-name="Group 2038"><g data-name="Group 2037" transform="translate(26.71 3.721)" clip-path="url(&quot;#i&quot;)"><path d="M0 0h29.056v37.12H0V0z" fill-rule="evenodd" fill="url(&quot;#j&quot;)" transform="translate(-.288 -.178)" data-name="Rectangle 876"/></g></g><g data-name="Group 2040"><g data-name="Group 2039" transform="translate(42.717 32.334)" clip-path="url(&quot;#k&quot;)"><path d="M0 0h2.264v5.02H0V0z" fill-rule="evenodd" fill="url(&quot;#l&quot;)" transform="translate(-.188)" data-name="Rectangle 877"/></g></g><g data-name="Group 2042"><g data-name="Group 2041" transform="translate(30.238 9.514)" clip-path="url(&quot;#m&quot;)"><path d="M0 0h.116v.132H0V0z" fill-rule="evenodd" fill="url(&quot;#n&quot;)" data-name="Rectangle 878"/></g></g><g data-name="Group 2044"><g data-name="Group 2043" transform="translate(30.152 8.46)" clip-path="url(&quot;#o&quot;)"><path d="M0 0h2.177v3.192H0V0z" fill-rule="evenodd" fill="url(&quot;#p&quot;)" transform="translate(-.22 -.03)" data-name="Rectangle 879"/></g></g><g data-name="Group 2046"><g data-name="Group 2045" transform="translate(29.106 9.517)" clip-path="url(&quot;#q&quot;)"><path d="M0 0h1.38v1.541H0V0z" fill-rule="evenodd" fill="url(&quot;#r&quot;)" transform="translate(-.097 -.108)" data-name="Rectangle 880"/></g></g><g data-name="Group 2048"><g data-name="Group 2047" transform="translate(41.722 2.652)" clip-path="url(&quot;#s&quot;)"><path d="M0 0h2.545v2.432H0V0z" fill-rule="evenodd" fill="url(&quot;#t&quot;)" data-name="Rectangle 881"/></g></g><g data-name="Group 2050"><g data-name="Group 2049" transform="translate(17.416 .266)" clip-path="url(&quot;#u&quot;)"><path d="M0 0h10.91v6.852H0V0z" fill-rule="evenodd" fill="url(&quot;#v&quot;)" transform="translate(0 -.1)" data-name="Rectangle 882"/></g></g><g data-name="Group 2052"><g data-name="Group 2051" transform="translate(24.409 4.885)" clip-path="url(&quot;#w&quot;)"><path d="M0 0h2.955v1.668H0V0z" fill-rule="evenodd" fill="url(&quot;#x&quot;)" transform="translate(-.256 -.222)" data-name="Rectangle 883"/></g></g><g data-name="Group 2054"><g data-name="Group 2053" transform="translate(11.317)" clip-path="url(&quot;#y&quot;)"><path d="M0 0h8.259v2.208H0V0z" fill-rule="evenodd" fill="url(&quot;#z&quot;)" transform="translate(0 -.082)" data-name="Rectangle 884"/></g></g><g data-name="Group 2056"><g data-name="Group 2055" transform="translate(12.99 1.902)" clip-path="url(&quot;#A&quot;)"><path d="M0 0h5.718v4.19H0V0z" fill-rule="evenodd" fill="url(&quot;#B&quot;)" transform="translate(-.163 -.132)" data-name="Rectangle 885"/></g></g><g data-name="Group 2058"><g data-name="Group 2057" transform="translate(.448 2.548)" clip-path="url(&quot;#C&quot;)"><path d="M0 0h19.632v43.339H0V0z" fill-rule="evenodd" fill="url(&quot;#D&quot;)" transform="translate(0 -.192)" data-name="Rectangle 886"/></g></g><g data-name="Group 2060"><g data-name="Group 2059" transform="translate(0 15.812)" clip-path="url(&quot;#E&quot;)"><path d="M0 0h.505v1.177H0V0z" fill-rule="evenodd" fill="url(&quot;#F&quot;)" data-name="Rectangle 887"/></g></g><g data-name="Group 2062"><g data-name="Group 2061" transform="translate(15.495 9.145)" clip-path="url(&quot;#G&quot;)"><path d="M0 0h1.92v2.289H0V0z" fill-rule="evenodd" fill="url(&quot;#H&quot;)" data-name="Rectangle 888"/></g></g><g data-name="Group 2064"><g data-name="Group 2063" transform="translate(6.763 17.727)" clip-path="url(&quot;#I&quot;)"><path d="M0 0h2.993v2.392H0V0z" fill-rule="evenodd" fill="url(&quot;#J&quot;)" transform="translate(0 -.684)" data-name="Rectangle 889"/></g></g><g data-name="Group 2066"><g data-name="Group 2065" transform="translate(9.402 19.275)" clip-path="url(&quot;#K&quot;)"><path d="M0 0h2.267v1.741H0V0z" fill-rule="evenodd" fill="url(&quot;#L&quot;)" transform="translate(0 -.396)" data-name="Rectangle 890"/></g></g><g data-name="Group 2068"><g data-name="Group 2067" transform="translate(11.664 19.724)" clip-path="url(&quot;#M&quot;)"><path d="M0 0h1.28v1.477H0V0z" fill-rule="evenodd" fill="url(&quot;#N&quot;)" transform="translate(-.156 -.148)" data-name="Rectangle 891"/></g></g><g data-name="Group 2070"><g data-name="Group 2069" transform="translate(8.224 19.36)" clip-path="url(&quot;#O&quot;)"><path d="M0 0h1.508v.91H0V0z" fill-rule="evenodd" fill="url(&quot;#P&quot;)" transform="translate(-.155 -.09)" data-name="Rectangle 892"/></g></g></g></g></g><path d="M216.19 8.348c-.153-.055-.311-.1-.482-.154.051.02.085.042.113.059.169.054.34.1.49.162-.03-.019-.074-.048-.12-.067m-1.56-.643-.745-.225c.652.19 1.224.408 1.696.647.171.044.327.091.48.146a9.852 9.852 0 0 0-1.432-.568m-16.458-.294a1 1 0 0 1 .186-.06c.098-.024.194-.053.282-.074l-.468.134m-2.643.99c.164-.053.326-.11.49-.153.532-.311 1.249-.604 2.147-.842-.12.034-.25.07-.353.104l-.066.026c-.92.258-1.67.549-2.218.866m-1.096 1.114c.174-.077.365-.147.547-.22.1-.337.42-.673.921-.978-.162.043-.32.102-.492.156-.535.326-.863.681-.976 1.042m.419 1.168c.169-.095.337-.182.527-.269-.37-.336-.505-.692-.42-1.043-.183.071-.363.15-.544.221-.074.361.056.729.437 1.091m2.001 1.095c.15-.117.292-.218.426-.326-.457-.17-.878-.345-1.218-.543a3.704 3.704 0 0 1-.615-.411c-.16.082-.332.172-.493.261.159.15.368.294.628.438.353.22.788.4 1.272.581m3.18.77c.08-.116.177-.231.27-.357-1.07-.174-2.028-.402-2.844-.678a29.57 29.57 0 0 1-.416.32c.854.287 1.859.532 2.99.714m3.88.417c.025-.13.065-.255.09-.372a33.924 33.924 0 0 1-3.47-.354c-.079.113-.173.227-.26.357 1.13.171 2.36.298 3.64.37m4.201 0c-.037-.131-.076-.254-.11-.373a38.205 38.205 0 0 1-3.72.009c-.03.12-.06.242-.088.371 1.284.058 2.613.057 3.918-.008m4.06-.445c-.098-.119-.2-.236-.292-.352-.342.062-.711.117-1.094.166-.807.114-1.665.2-2.503.24.036.12.081.247.117.369.89-.049 1.77-.13 2.625-.249.401-.05.783-.11 1.147-.174m3.102-.805c-.15-.107-.29-.21-.445-.313-.723.271-1.625.525-2.705.719.106.12.2.233.306.345 1.11-.204 2.09-.459 2.844-.751m1.809-1.039a30.609 30.609 0 0 0-.534-.266c-.325.33-.847.641-1.55.928.16.1.295.208.45.311.738-.3 1.286-.622 1.634-.973m.352-1.154a4.85 4.85 0 0 0-.537-.213c.126.352.032.699-.274 1.03.187.079.36.169.536.258.296-.346.407-.709.275-1.075m-1.127-1.107c-.149-.062-.32-.108-.49-.162.568.323.91.65 1.056.981.178.06.348.134.538.205-.143-.347-.528-.695-1.104-1.024" fill="#fff" fill-rule="evenodd" data-name="Path 649"/><path d="M187.384 13.644c.136-.12.29-.24.44-.347.136-.472.524-.923 1.12-1.362l-.515.39c-.566.426-.913.862-1.045 1.32m.662 1.886c.145-.14.285-.268.43-.397-.595-.564-.82-1.15-.687-1.719-.159.115-.304.237-.454.354-.121.584.098 1.176.71 1.762m3.234 1.753c.126-.146.22-.294.343-.444-.759-.267-1.444-.565-2-.89a5.574 5.574 0 0 1-1.003-.689c-.144.13-.29.267-.428.397.284.242.621.475 1.024.705.576.336 1.266.636 2.064.921m5.108 1.26c.074-.156.152-.314.232-.465-1.762-.291-3.359-.673-4.707-1.127-.097.144-.212.288-.328.44 1.37.453 2.997.848 4.803 1.152m6.272.66c.018-.161.051-.322.076-.48a55.206 55.206 0 0 1-5.723-.585c-.079.158-.159.317-.221.47 1.817.29 3.801.488 5.868.595m6.768.009c-.024-.17-.046-.331-.075-.489a73.112 73.112 0 0 1-6.165.02c-.026.163-.05.322-.07.482 2.073.091 4.204.091 6.31-.013m6.56-.731c-.077-.158-.167-.31-.234-.47a25.37 25.37 0 0 1-1.813.29 58.79 58.79 0 0 1-4.13.4c.028.158.054.317.088.477a61.14 61.14 0 0 0 4.24-.405c.65-.087 1.255-.176 1.848-.292m4.995-1.3c-.11-.137-.23-.282-.351-.419-1.205.458-2.72.863-4.477 1.195.073.153.152.31.238.455 1.813-.333 3.361-.754 4.59-1.231m2.907-1.666c-.135-.134-.287-.264-.433-.39-.533.543-1.398 1.057-2.56 1.523.128.148.24.296.36.435 1.207-.479 2.094-1.003 2.633-1.568m.604-1.86c-.158-.125-.306-.238-.444-.35.194.575.027 1.15-.466 1.694.141.13.296.261.441.391.494-.562.66-1.149.469-1.735m-1.069-1.28-.522-.408c.549.406.905.8 1.087 1.213.151.112.288.222.438.343-.17-.386-.492-.771-1.003-1.148" fill="#fff" fill-rule="evenodd" data-name="Path 650"/><path d="M181.924 19.557c.11-.153.212-.304.32-.455a2.47 2.47 0 0 1 .366-.712l-.347.509c-.171.214-.258.441-.339.658m.88 2.437c.09-.155.198-.316.293-.494-.775-.734-1.058-1.5-.903-2.242-.106.155-.204.307-.308.465-.168.767.13 1.53.918 2.27m4.17 2.281c.08-.177.161-.356.248-.519-1.004-.371-1.898-.752-2.629-1.18a7.481 7.481 0 0 1-1.304-.895c-.106.162-.211.314-.308.494.352.3.79.613 1.316.91.752.422 1.648.824 2.677 1.19m6.6 1.613c.054-.175.107-.355.168-.533-2.298-.384-4.38-.88-6.137-1.476-.085.185-.163.35-.232.531 1.767.593 3.878 1.1 6.201 1.478m8.114.869c.01-.187.038-.38.06-.557a77.493 77.493 0 0 1-7.494-.757c-.046.177-.104.354-.157.53 2.364.387 4.929.64 7.591.784m8.755 0c-.02-.182-.036-.378-.052-.55a80.69 80.69 0 0 1-8.056.013c-.024.197-.043.38-.053.555 2.67.129 5.429.126 8.161-.018m8.473-.92c-.05-.195-.111-.381-.162-.561-.757.147-1.55.262-2.363.372a79.338 79.338 0 0 1-5.409.522c.022.188.046.363.062.556a77.085 77.085 0 0 0 5.484-.52c.817-.11 1.632-.242 2.388-.37m6.476-1.68c-.095-.176-.17-.355-.263-.522-1.576.592-3.553 1.131-5.849 1.551.05.181.106.36.168.542 2.357-.419 4.329-.962 5.944-1.571m3.751-2.17c-.102-.158-.194-.327-.294-.497-.722.72-1.848 1.399-3.372 2.003.093.175.18.354.26.524 1.551-.626 2.695-1.308 3.406-2.03m.765-2.417a6.22 6.22 0 0 0-.321-.455c.262.745.048 1.511-.586 2.224.094.152.197.33.305.49.65-.733.863-1.483.602-2.26m-.298-.588-.357-.507c.108.163.206.32.266.478l.314.455a2.156 2.156 0 0 0-.223-.426" fill="#fff" fill-rule="evenodd" data-name="Path 651"/><path d="M178.645 26.4c0-.022.012-.032.016-.043v-.002l-.016.045Zm.844 3.29c.05-.187.102-.38.167-.567-.904-.859-1.232-1.725-1.04-2.588-.066.193-.12.371-.177.56-.177.853.152 1.735 1.05 2.595m4.774 2.592c.033-.195.081-.388.13-.581-1.164-.411-2.187-.865-3.043-1.355a8.753 8.753 0 0 1-1.495-1.034c-.05.192-.112.38-.158.57.407.348.91.692 1.507 1.04.87.49 1.89.94 3.059 1.36m7.533 1.867c.037-.212.064-.411.094-.602-2.653-.443-5.03-1.012-7.058-1.693-.046.193-.097.39-.125.583 2.03.684 4.433 1.258 7.089 1.712m9.27.963c.016-.204.028-.402.033-.611a79.876 79.876 0 0 1-8.608-.854 4.652 4.652 0 0 0-.094.591 85.2 85.2 0 0 0 8.67.874m10.004 0c-.014-.2-.02-.398-.03-.609a90.489 90.489 0 0 1-9.266.027c-.01.212-.017.418-.019.62 3.046.131 6.199.125 9.315-.038m9.688-1.052c-.025-.193-.048-.389-.091-.588a77.32 77.32 0 0 1-8.937 1.009c.005.194.019.387.042.591a82.186 82.186 0 0 0 6.246-.593 49.1 49.1 0 0 0 2.74-.42m7.389-1.923a23.389 23.389 0 0 0-.145-.575c-1.814.69-4.07 1.303-6.74 1.801a6 6 0 0 1 .097.592c2.688-.501 4.958-1.115 6.788-1.818m4.29-2.468c-.048-.187-.093-.37-.154-.564-.813.825-2.127 1.601-3.865 2.304.035.192.085.383.128.574 1.766-.705 3.07-1.49 3.892-2.314m.91-2.627-.177-.596c.27.832.002 1.677-.721 2.472.06.192.111.387.156.566.714-.793.975-1.614.741-2.442" fill="#fff" fill-rule="evenodd" data-name="Path 652"/><path d="M178.517 38.119c-.002-.185-.007-.38-.007-.576-.763-.716-1.133-1.447-1.138-2.168l.018.624c.026.709.385 1.42 1.127 2.12m4.938 2.688-.006-.576c-1.206-.425-2.273-.891-3.176-1.4-.603-.361-1.137-.718-1.565-1.085.002.191.017.382.039.576a8.85 8.85 0 0 0 1.556 1.083c.893.494 1.95.973 3.152 1.402m7.823 1.92c-.004-.191-.004-.371-.004-.573-2.756-.46-5.263-1.049-7.363-1.755.001.187.006.377.012.57 2.1.709 4.597 1.308 7.355 1.759m9.596 1.02-.001-.568a89.873 89.873 0 0 1-8.981-.919c0 .186 0 .378.006.577 2.79.439 5.84.744 8.976.91m10.372.002a16.5 16.5 0 0 0 .01-.563c-3.242.156-6.511.167-9.678.018 0 .196.004.382.004.57 3.163.148 6.432.141 9.664-.025m10.018-1.09c.004-.204.017-.383.026-.583-.91.155-1.852.307-2.845.445-2.106.274-4.27.491-6.48.614v.578a93.73 93.73 0 0 0 6.476-.614c.997-.149 1.93-.291 2.823-.44m7.664-1.991c.003-.198.02-.387.02-.582-1.894.723-4.256 1.364-7.044 1.885-.005.182-.005.38-.007.564 2.782-.507 5.142-1.148 7.03-1.867m4.451-2.56c.004-.198.016-.388.023-.587-.84.86-2.202 1.677-4.04 2.405 0 .19-.006.385-.012.573 1.836-.725 3.179-1.54 4.03-2.391m1.036-2.013.015-.628c-.01.63-.3 1.26-.846 1.87-.002.195-.012.383-.012.573.527-.589.806-1.2.843-1.815" fill="#fff" fill-rule="evenodd" data-name="Path 653"/><path d="M180.097 46.18c-.084-.168-.134-.347-.21-.518-.47-.466-.78-.918-.938-1.367l.212.567c.163.441.468.878.936 1.319m4.639 2.535c-.038-.182-.103-.35-.143-.512-1.142-.407-2.155-.85-3.006-1.335a9.63 9.63 0 0 1-1.483-1.028c.065.177.132.348.178.527.415.353.894.676 1.485 1.011.84.488 1.84.926 2.969 1.337m7.369 1.815c-.022-.162-.066-.33-.093-.506-2.622-.427-4.993-.994-6.982-1.673.045.164.098.343.14.515 1.983.658 4.338 1.22 6.935 1.664m9.042.943c-.003-.158-.016-.325-.023-.488-2.995-.149-5.882-.44-8.543-.865.05.163.077.325.105.491 2.633.422 5.504.704 8.46.862m9.773 0c.002-.158.03-.325.044-.485-3.077.16-6.168.16-9.178.04.012.164.018.326.026.478 2.99.127 6.049.123 9.108-.033m9.445-1.034c.053-.164.079-.322.113-.484-.86.149-1.75.287-2.687.418a90.695 90.695 0 0 1-6.157.578c-.02.163-.027.323-.035.487a89.087 89.087 0 0 0 6.102-.575c.936-.124 1.824-.27 2.664-.424m7.22-1.857c.054-.18.107-.354.165-.516-1.798.683-4.042 1.289-6.679 1.774-.031.164-.075.334-.115.496 2.622-.485 4.846-1.092 6.628-1.754m4.196-2.421c.072-.183.117-.35.193-.529-.807.814-2.107 1.592-3.844 2.28-.037.17-.092.333-.154.515 1.729-.686 3.012-1.457 3.805-2.266m.962-1.587.068-.201a3.38 3.38 0 0 1-.675 1.082c-.06.171-.114.349-.174.519.292-.334.499-.672.636-1.014l.145-.386" fill="#fff" fill-rule="evenodd" data-name="Path 654"/><path d="M183.89 52.995c-.106-.148-.219-.286-.327-.422a5.24 5.24 0 0 1-.411-.472l.374.485c.108.14.226.277.364.41m3.968 2.15c-.08-.133-.179-.257-.26-.397a17.317 17.317 0 0 1-2.577-1.133 8.855 8.855 0 0 1-1.28-.889c.114.144.22.286.327.42.342.29.764.582 1.254.865.714.413 1.576.79 2.536 1.134m6.274 1.543c-.049-.117-.114-.25-.171-.368-2.24-.378-4.279-.858-5.996-1.434.082.126.185.26.261.387 1.71.572 3.688 1.047 5.906 1.415m7.71.81c-.027-.114-.045-.233-.064-.355a68.77 68.77 0 0 1-7.309-.741c.057.124.102.247.166.363 2.254.367 4.673.606 7.206.732m8.317 0c.021-.105.04-.23.07-.35a82.977 82.977 0 0 1-7.872.022c.017.122.027.237.047.362 2.542.106 5.159.1 7.755-.034m8.047-.876c.065-.122.126-.245.19-.365-.735.122-1.509.242-2.307.347-1.717.235-3.49.412-5.274.512-.037.118-.052.244-.074.36a68.733 68.733 0 0 0 5.198-.505c.791-.1 1.56-.216 2.267-.349m6.152-1.586c.086-.14.186-.263.283-.395-1.566.578-3.466 1.091-5.732 1.52-.06.12-.136.254-.199.38 2.236-.421 4.128-.933 5.648-1.505m3.575-2.06c.108-.14.218-.29.317-.424-.684.692-1.784 1.352-3.273 1.948-.105.14-.189.273-.29.396 1.475-.582 2.559-1.237 3.246-1.92m.278-.316.37-.48c-.047.071-.112.141-.163.217-.112.145-.224.285-.336.425.031-.055.088-.103.13-.162" fill="#fff" fill-rule="evenodd" data-name="Path 655"/><path d="m192.509 59.8-.373-.256a13.909 13.909 0 0 1-1.927-.869 5.245 5.245 0 0 1-.49-.298l.551.365c.11.072.214.153.346.22.535.304 1.16.582 1.893.838m4.654 1.141c-.084-.079-.16-.143-.247-.225-1.685-.29-3.22-.65-4.497-1.07.122.076.239.159.366.254 1.245.413 2.731.774 4.378 1.041m5.716.598c-.04-.063-.06-.13-.091-.206-1.931-.106-3.781-.286-5.498-.564.071.076.152.166.223.233 1.661.263 3.48.449 5.366.537m6.166 0c.03-.063.055-.13.078-.2a66.705 66.705 0 0 1-5.913.02c.039.065.054.131.07.197 1.893.087 3.834.086 5.765-.017m5.966-.65c.082-.067.17-.149.258-.215-.558.082-1.142.17-1.734.264a61.235 61.235 0 0 1-3.975.373c-.028.064-.056.145-.084.216a49.985 49.985 0 0 0 3.849-.374 29.534 29.534 0 0 0 1.686-.264m4.562-1.18c.13-.08.24-.165.372-.26-1.164.45-2.604.83-4.292 1.139-.092.087-.19.159-.265.243 1.655-.312 3.048-.688 4.185-1.123m1.879-.914.536-.36c-.47.314-1.075.627-1.789.916-.13.09-.254.177-.39.258a9.176 9.176 0 0 0 1.643-.814" fill="#fff" fill-rule="evenodd" data-name="Path 656"/><path d="M200.937 62.987a1.789 1.789 0 0 0-.265-.07c-.452-.068-.882-.167-1.288-.26l.725.158.172.044c.208.042.433.074.656.128m3.232.33a.39.39 0 0 1-.092-.04 32.672 32.672 0 0 1-3.195-.333c.099.04.183.05.264.075.94.133 1.961.253 3.023.298m3.47 0c.041-.01.065-.025.108-.04a42.28 42.28 0 0 1-3.427.008c.029.02.053.03.08.038 1.068.049 2.147.049 3.24-.006m3.431-.384c.081-.015.137-.024.232-.052-.321.06-.66.118-1.003.156-.749.106-1.52.173-2.303.233-.038.01-.072.022-.12.037a23.492 23.492 0 0 0 2.184-.215c.287-.037.564-.073.84-.116l.17-.043m.336-.066.326-.065c-.064.017-.136.032-.202.052l-.124.013" fill="#fff" fill-rule="evenodd" data-name="Path 657"/><path d="M215.583 8.127c.17.045.326.091.48.146.988.333 1.937.743 2.853 1.212l.57.303a20.333 20.333 0 0 0-3.296-1.44c-.153-.055-.31-.1-.481-.154-2.996-.929-6.295-1.219-9.763-.727 3.421-.522 6.67-.256 9.637.66" fill="#fff" fill-rule="evenodd" data-name="Path 658"/><path d="m212.398 7.086.315.07c-2.097-.515-4.387-.438-6.767.31 2.276-.751 4.453-.86 6.452-.38" fill="#fff" fill-rule="evenodd" data-name="Path 659"/><path d="m208.656 6.472.227.023c-.928-.1-1.914.215-2.937.972.938-.757 1.861-1.08 2.71-.995" fill="#fff" fill-rule="evenodd" data-name="Path 660"/><path d="M205.62 6.332h.266c.024-.004.046.369.06 1.135-.094-.766-.186-1.14-.326-1.135" fill="#fff" fill-rule="evenodd" data-name="Path 661"/><path d="m202.55 6.532.241-.026c.999-.11 2.056.19 3.155.96-1.184-.765-2.324-1.062-3.395-.934" fill="#fff" fill-rule="evenodd" data-name="Path 662"/><path d="M198.166 7.406c-.12.034-.25.07-.353.104l.36-.099a.976.976 0 0 1 .185-.06c2.35-.678 4.9-.678 7.588.116-2.75-.773-5.38-.752-7.78-.061" fill="#fff" fill-rule="evenodd" data-name="Path 663"/><path d="M195.902 8.318c-.163.043-.32.101-.493.155a22.113 22.113 0 0 0-4.563 2.17l.601-.375a22.055 22.055 0 0 1 4.082-1.867c.164-.054.326-.11.49-.153 3.059-.955 6.408-1.253 9.927-.781-3.558-.45-6.948-.123-10.044.851" fill="#fff" fill-rule="evenodd" data-name="Path 664"/><path d="M194.959 9.372c-.182.071-.362.15-.544.221a28.515 28.515 0 0 0-6.626 3.822c-.159.115-.304.237-.454.354a28.356 28.356 0 0 0-5.14 5.488c-.106.156-.204.308-.31.466a26.222 26.222 0 0 0-3.268 6.812 13.26 13.26 0 0 0-.177.56 32.975 32.975 0 0 0-.417 1.635c.18-.697.402-1.629.622-2.33 0-.022.013-.032.016-.043a25.314 25.314 0 0 1 3.263-6.8c.11-.153.212-.304.32-.455a26.75 26.75 0 0 1 5.14-5.458c.136-.12.29-.24.44-.348a27.07 27.07 0 0 1 6.61-3.78c.173-.077.365-.147.547-.22 3.368-1.277 7.083-1.93 10.965-1.83a29.38 29.38 0 0 0-10.987 1.906" fill="#fff" fill-rule="evenodd" data-name="Path 665"/><path d="M195.447 10.499c-.16.081-.333.172-.494.261a30.726 30.726 0 0 0-6.333 4.5c-.145.13-.29.267-.429.397a31.512 31.512 0 0 0-4.902 6.023c-.106.162-.21.314-.308.494a30.868 30.868 0 0 0-3.126 7.138c-.05.192-.112.38-.158.57a29.072 29.072 0 0 0-.998 7.36c0 .169.01.331.01.504 0 .191.016.382.037.576a25.654 25.654 0 0 0 1.359 7.52c.064.176.131.347.177.526a25.337 25.337 0 0 0 3.46 6.36c.114.143.22.285.327.418a25.084 25.084 0 0 0 3.064 3.221l-1.028-.947a24.997 24.997 0 0 1-2.215-2.425c-.106-.148-.219-.286-.327-.423a24.958 24.958 0 0 1-3.466-6.391c-.084-.17-.134-.349-.21-.52a26.928 26.928 0 0 1-1.37-7.542c-.002-.185-.007-.38-.007-.576-.014-.16-.014-.33-.014-.5a28.3 28.3 0 0 1 .993-7.353c.05-.187.103-.38.167-.567a29.346 29.346 0 0 1 3.148-7.13c.091-.154.198-.315.293-.493a31.908 31.908 0 0 1 5.379-6.366 30.656 30.656 0 0 1 6.376-4.45c.17-.095.338-.182.528-.269a28.547 28.547 0 0 1 10.566-2.948c-3.706.331-7.25 1.387-10.5 3.032" fill="#fff" fill-rule="evenodd" data-name="Path 666"/><path d="M197.459 11.514a30.64 30.64 0 0 0-5.547 5.438c-.097.144-.211.287-.328.44a37.273 37.273 0 0 0-3.98 6.486c-.084.185-.162.35-.231.531a37.304 37.304 0 0 0-2.54 7.445c-.047.193-.097.39-.126.583a35.61 35.61 0 0 0-.796 7.962c0 .187.006.376.012.57.075 2.644.46 5.114 1.107 7.382.045.165.098.343.14.516.69 2.224 1.636 4.257 2.795 6.02.082.126.186.259.261.387 1.21 1.728 2.62 3.196 4.193 4.372.122.076.238.159.366.254a15.885 15.885 0 0 0 3.9 1.988l-.422-.145a16.681 16.681 0 0 1-3.754-1.942c-.13-.09-.246-.171-.373-.257a18.958 18.958 0 0 1-4.278-4.398c-.08-.133-.179-.257-.26-.397-1.193-1.774-2.156-3.807-2.862-6.033-.038-.182-.103-.35-.143-.513-.656-2.276-1.054-4.748-1.138-7.396-.003-.192-.004-.38-.006-.577-.002-.167-.002-.338-.002-.503.004-2.515.286-5.025.816-7.445.034-.195.082-.388.13-.581.599-2.584 1.47-5.086 2.581-7.427.08-.177.161-.356.248-.519a35.043 35.043 0 0 1 4.057-6.47c.126-.147.22-.296.343-.446 1.582-1.92 3.346-3.635 5.231-5.06.15-.117.292-.218.426-.326 2.67-1.934 5.602-3.317 8.667-3.986-3.012.69-5.88 2.092-8.487 4.047" fill="#fff" fill-rule="evenodd" data-name="Path 667"/><path d="M200.534 12.239c-.08.113-.173.226-.262.357-1.176 1.602-2.28 3.471-3.26 5.543-.079.158-.159.317-.221.47-.97 2.09-1.82 4.397-2.537 6.833-.046.177-.104.354-.157.53a59.42 59.42 0 0 0-1.605 7.675c-.05.196-.071.391-.095.591a56.636 56.636 0 0 0-.505 8.023c0 .186 0 .378.006.577.05 2.63.285 5.075.683 7.283.05.163.077.325.105.491.444 2.174 1.04 4.123 1.783 5.79.057.124.102.248.166.364.76 1.633 1.661 2.973 2.655 4.003.071.075.152.166.223.233 1.039.986 2.154 1.64 3.37 1.942.098.04.182.05.263.074.095.01.18.018.267.041l-.259-.04a2.243 2.243 0 0 0-.217-.032 1.733 1.733 0 0 0-.265-.07c-1.264-.314-2.46-.99-3.509-1.976-.084-.079-.16-.143-.247-.225-1.041-1.048-1.993-2.391-2.783-4.028-.05-.116-.115-.25-.172-.367-.779-1.678-1.398-3.624-1.856-5.79-.022-.162-.066-.331-.093-.506-.428-2.211-.684-4.658-.734-7.297-.004-.193-.004-.373-.004-.574v-.495c0-2.525.187-5.047.522-7.51.037-.211.065-.41.094-.602a56.372 56.372 0 0 1 1.684-7.66c.054-.174.107-.355.168-.533a47.828 47.828 0 0 1 2.645-6.81c.074-.156.152-.314.232-.465 1.024-2.077 2.158-3.935 3.414-5.53.081-.116.177-.231.27-.357 1.73-2.161 3.647-3.794 5.643-4.725-1.92.942-3.744 2.592-5.412 4.772" fill="#fff" fill-rule="evenodd" data-name="Path 668"/><path d="M204.284 12.602c-.03.12-.06.242-.087.371-.368 1.686-.701 3.632-1.01 5.77-.026.164-.05.323-.07.483-.298 2.172-.57 4.53-.782 6.994a9.006 9.006 0 0 0-.054.554 194.377 194.377 0 0 0-.506 7.756c-.01.212-.017.418-.019.62-.113 2.493-.17 5.026-.179 7.547v.507c0 .197.004.382.004.57.02 2.634.085 5.07.204 7.254.012.165.018.327.026.48.133 2.144.323 4.047.545 5.662.017.122.027.237.047.362.234 1.574.504 2.862.807 3.828.039.064.054.13.07.196.324.916.67 1.503 1.04 1.728a.24.24 0 0 0 .08.038.473.473 0 0 0 .235.056l-.19-.006h-.01a.916.916 0 0 1-.359-.095c-.438-.23-.833-.818-1.197-1.737-.04-.064-.06-.131-.091-.207-.362-.968-.676-2.261-.947-3.835-.027-.113-.044-.232-.063-.354-.257-1.623-.466-3.52-.631-5.67-.003-.158-.016-.325-.023-.488a128.108 128.108 0 0 1-.25-7.24l-.002-.566v-.503c.006-2.529.074-5.066.195-7.565.016-.204.027-.402.033-.61.134-2.646.329-5.25.588-7.746.01-.187.038-.38.06-.557.255-2.486.553-4.84.91-6.995.02-.161.052-.322.077-.48.363-2.136.755-4.081 1.178-5.759.025-.13.065-.255.09-.372.601-2.284 1.264-4.06 1.943-5.126-.588 1.066-1.151 2.848-1.662 5.135" fill="#fff" fill-rule="evenodd" data-name="Path 669"/><path d="M208.286 12.575c.035.12.08.246.116.368.508 1.676.984 3.616 1.407 5.758.028.159.056.318.089.478.421 2.16.78 4.513 1.084 6.99.021.188.046.363.062.556.296 2.484.53 5.1.687 7.755.006.195.019.389.043.593.13 2.5.199 5.04.195 7.553 0 .17-.005.339-.005.51v.578c-.03 2.623-.138 5.056-.331 7.238-.02.163-.027.324-.036.488-.2 2.148-.456 4.065-.783 5.676-.037.118-.053.244-.074.36-.341 1.578-.737 2.866-1.18 3.835-.028.065-.056.145-.084.216-.457.913-.943 1.504-1.479 1.743-.038.01-.072.022-.12.037a1.058 1.058 0 0 1-.284.059l-.233.006c.104-.002.18-.026.28-.055.04-.01.064-.025.107-.04.457-.23.893-.816 1.297-1.737.03-.064.056-.131.08-.202.39-.97.736-2.266 1.034-3.84.021-.105.04-.23.07-.35.292-1.627.516-3.524.69-5.673.003-.159.031-.326.045-.486.154-2.182.243-4.608.283-7.24.006-.191.01-.377.01-.562v-.51c0-2.528-.064-5.063-.185-7.565-.014-.2-.02-.398-.03-.608-.134-2.648-.335-5.25-.598-7.748-.02-.182-.036-.378-.052-.55-.273-2.49-.589-4.847-.964-6.993-.024-.17-.046-.331-.075-.489-.38-2.135-.79-4.08-1.238-5.759-.036-.13-.075-.253-.11-.372-.631-2.283-1.326-4.06-2.058-5.126.832 1.06 1.616 2.822 2.34 5.108" fill="#fff" fill-rule="evenodd" data-name="Path 670"/><path d="M212.126 12.12c.106.121.2.234.306.346 1.35 1.591 2.594 3.437 3.72 5.492.074.153.152.31.239.455 1.114 2.086 2.059 4.364 2.889 6.771.05.181.106.36.168.542a50.27 50.27 0 0 1 1.815 7.637c.038.19.077.392.097.59a50.61 50.61 0 0 1 .543 7.51v.509c-.004.182-.004.38-.006.564-.062 2.64-.349 5.092-.827 7.306-.032.164-.075.333-.115.495-.503 2.19-1.198 4.146-2.047 5.823-.061.122-.136.255-.199.38-.883 1.646-1.896 3.007-3.056 4.048-.092.088-.19.16-.265.244-1.187.995-2.472 1.686-3.857 2.022a4.76 4.76 0 0 0-.124.013l-.336.066c.081-.015.137-.024.231-.052 1.337-.308 2.584-.99 3.709-1.991.081-.067.17-.15.258-.215 1.11-1.052 2.09-2.419 2.936-4.053.066-.122.126-.245.189-.365.826-1.681 1.488-3.627 1.97-5.816.052-.164.078-.323.113-.485.467-2.213.733-4.67.786-7.296.005-.204.018-.383.027-.583v-.5c0-2.52-.184-5.048-.531-7.517-.025-.193-.048-.389-.091-.588-.395-2.634-1-5.208-1.752-7.636-.05-.195-.111-.381-.163-.561a45.695 45.695 0 0 0-2.766-6.793c-.078-.158-.167-.31-.234-.47-1.083-2.052-2.281-3.907-3.579-5.492-.098-.119-.2-.236-.292-.352-1.826-2.157-3.832-3.782-5.936-4.7 2.196.897 4.283 2.508 6.18 4.653" fill="#fff" fill-rule="evenodd" data-name="Path 671"/><path d="M215 11.338c.161.101.297.208.451.311 1.971 1.402 3.802 3.092 5.443 5 .13.148.241.296.36.435a34.655 34.655 0 0 1 4.223 6.407c.093.175.18.354.259.525a36.551 36.551 0 0 1 2.683 7.393c.035.192.085.382.128.573.54 2.423.821 4.918.82 7.437 0 .177 0 .344-.006.508 0 .19-.006.385-.012.573-.096 2.641-.51 5.127-1.222 7.413a4.68 4.68 0 0 1-.153.515c-.74 2.247-1.75 4.286-2.997 6.072-.106.14-.19.273-.291.396a19.95 19.95 0 0 1-4.487 4.454c-.13.09-.254.177-.39.259a17.87 17.87 0 0 1-3.298 1.758l-.107.043-.287.117a16.885 16.885 0 0 0 3.456-1.818c.13-.08.24-.165.372-.26 1.66-1.187 3.14-2.682 4.412-4.413.086-.14.186-.263.282-.395 1.22-1.789 2.217-3.824 2.944-6.058.056-.18.108-.354.166-.516a28.728 28.728 0 0 0 1.178-7.398c.004-.198.022-.387.022-.582.01-.165.01-.333.01-.508a34.698 34.698 0 0 0-.81-7.443 22.13 22.13 0 0 0-.146-.575 36.398 36.398 0 0 0-2.61-7.406c-.096-.175-.17-.355-.264-.521a36.27 36.27 0 0 0-4.148-6.452c-.11-.137-.229-.282-.351-.419a30.094 30.094 0 0 0-5.353-5.048c-.15-.107-.29-.21-.446-.313-2.724-1.922-5.73-3.297-8.885-3.935 3.216.62 6.275 1.968 9.055 3.871" fill="#fff" fill-rule="evenodd" data-name="Path 672"/><path d="M216.627 10.34c.187.078.36.168.536.257a30.643 30.643 0 0 1 6.42 4.403c.14.13.295.26.44.39a31.634 31.634 0 0 1 4.978 5.947c.094.152.196.33.305.49a29.48 29.48 0 0 1 3.145 7.09c.06.192.112.387.156.567.645 2.366.987 4.865.977 7.345v.508c-.003.196-.012.384-.012.574a26.5 26.5 0 0 1-1.439 7.545c-.058.171-.113.349-.173.519a25.72 25.72 0 0 1-3.543 6.422c-.112.145-.224.285-.336.425-.279.333-.565.67-.847.992l-.974 1.062a35.95 35.95 0 0 0 1.672-1.9c.108-.14.218-.29.317-.424a24.457 24.457 0 0 0 3.53-6.39c.072-.183.117-.35.193-.529a26.096 26.096 0 0 0 1.406-7.524c.004-.198.016-.388.022-.587 0-.163.01-.335.01-.5a28.053 28.053 0 0 0-.97-7.354c-.05-.186-.095-.37-.156-.563a29.898 29.898 0 0 0-3.14-7.12c-.103-.158-.195-.327-.295-.496a31.294 31.294 0 0 0-4.96-5.974c-.136-.133-.288-.263-.434-.39a30.477 30.477 0 0 0-6.37-4.449 30.76 30.76 0 0 0-.534-.266 28.738 28.738 0 0 0-10.605-2.943 29.167 29.167 0 0 1 10.68 2.872" fill="#fff" fill-rule="evenodd" data-name="Path 673"/><path d="M216.876 9.234c.178.06.348.134.538.206a27.24 27.24 0 0 1 7.011 4.084 26.048 26.048 0 0 1 5.093 5.426 25.778 25.778 0 0 1 2.575 4.571l.784 2.014.02.07a26.923 26.923 0 0 0-2.99-6.037 6.51 6.51 0 0 0-.32-.455 27.278 27.278 0 0 0-5.095-5.457c-.158-.125-.306-.238-.444-.351a27.717 27.717 0 0 0-6.61-3.783 4.873 4.873 0 0 0-.537-.213c-3.366-1.28-7.064-1.941-10.955-1.842a28.69 28.69 0 0 1 10.93 1.767" fill="#fff" fill-rule="evenodd" data-name="Path 674"/><path d="M235.543 2.693c-4.46-4.208-12.82-3.314-22.248 1.493 1.057.27 2.087.592 3.096.964 6.484-2.983 11.881-3.476 14.748-.77 2.625 2.486 2.703 7.24.693 13.14-2.582 7.558-8.59 16.986-17.023 25.932-8.34 8.835-17.3 15.32-24.647 18.377-5.883 2.452-10.745 2.704-13.414.184-2.905-2.745-2.692-8.27.022-15.049a33.447 33.447 0 0 1-1.05-2.795c-4.117 9.547-4.468 17.804-.062 21.969 4.405 4.147 12.61 3.331 21.881-1.303 7.169-3.588 14.975-9.46 22.187-17.095 7.097-7.517 12.446-15.526 15.632-22.8 4.23-9.673 4.63-18.048.185-22.247" fill="#fff" fill-rule="evenodd" data-name="Path 675"/></g></g><defs><clipPath id="c"><path d="M496.78 43.939c0 .015 0 .015-.012.023.02-.01.03-.023.013-.023" data-name="Path 629" transform="translate(-496.768 -43.939)"/></clipPath><clipPath id="e"><path d="M538.659 68.945c.014.34.06.678.15.996-.053-.338-.095-.663-.15-.996" data-name="Path 630" transform="translate(-538.659 -68.945)"/></clipPath><clipPath id="g"><path d="M493.208 44.316s-.004.003-.004.007c.02-.004.021-.007.004-.007" data-name="Path 631" transform="translate(-493.204 -44.316)"/></clipPath><clipPath id="i"><path d="M492.287 32.637c-.21.459.42.958-.036 1.44-.21-.634-.304-1.737-1.187-1.497-.222.05-.085.38-.252.519.255-.168.603.336.44.447-.655.656-1.545-.112-2.184.166-.84.409-1.707.49-2.536.843-.16.07-.218.564-.516.564.113 0-.36.37-.36-.087-.218.35-.588.51-.944.398-.18-.034-.355-.351-.212-.468.444-.477 1.22.174 1.404-.256.455-.794-1.214-.179-1.678-.829-.15-.062-.219-.203-.351-.261-.516.168-.842-.253-1.319-.204-.65.046-1.186.512-1.781.809 0 .048-.046.255-.046.335 0 .092-.319-.043-.319.055-.247.208-.359.619-.622.733-.38.119-.49.77-.941.57 0 .182-.042.366-.042.518-.186.201-.37.465-.184.666 0 .125.122.338.338.255.233-.16.361-.523.708-.482.168.028.132.208.132.367 0-.098.214-.21.214-.11.22.56.554.853-.095.942 0 .134.058.301.058.365.25.318.357-.544.778-.13.209-.276.469-.467.716-.668-.054 0-.214 0-.214-.018-.193-.296.338-.386.338-.785-.164.068-.194-.192-.357-.125 0-.228-.034-.571.116-.609.618-.042.439-.714.856-.972.265-.239.247.317.451.373-.52.169-.802.691-.423.986.451.432 1.611-.515 1.611.316 0 .407-.71-.07-1.147.315 0 .105-.082.318.098.356 0 .051.159.024.222.016.011-.009.012-.009.012-.023.017 0 .007.012-.012.023-.213.383-.508.17-.832.13 0 1.152-.757.871-1.56 1.177-.232.11-.136-.149-.136-.2-.22-.147-.447.1-.694.1 0-.35-.204-.723 0-1.06-.408-.126-.363.263-.593.542 0 .136.115.16.115.261-.212.356-.568.703-.956.659 0 .291-.448.217-.242.534-.76.079-1.191.886-1.91 1.03.4.449.988 1.148.318 1.533-.39.212-.949-.271-1.373.086-.245.373-.086.85-.086 1.28 0 .155 0 .408-.17.55-.164.103.108.202.108.383.813.26 1.562.127 2.19-.596 0-.117.408.006.408-.176 0-.327.162-.673.343-.866.213-.418 1.048-.742 1.493-.175 0-.073-.123-.395-.123-.669.123 0 .326-.037.326.02.402.661.982.958 1.44 1.464v.354c-.202.307-.582.214-.815.421.211.348.559.515.815.35 0-.097-.078-.404.151-.456.056 0 .202.162.202.076 0-.227.035-.513.035-.775 0 .195.362.076.362.392.202-.136.088-.423.088-.49-.6-.421-1.072-.826-1.505-1.508 0-.05.215-.22.215-.11.575.21.977.803 1.202 1.263.215.431.468 1.013.864 1.48 0 .075.3.07.3 0 .168-.22-.056-.524-.056-.777 0-.415.7.134.7-.42 0 .049-.146-.274-.146-.222 0-.134.172.046.376.088-.435 1.618 1.19 1.361 2.11 1.702.424.1.021 1.489-.58 1.66.065 0-.19-.163-.344-.201-.384-.037-.71.28-1.063.126-.564-.254-1.138-.871-1.786-.44-.196.083-.26.362-.26.629-.877-.037-1.4-.856-2.111-1.272-.197-.085.22-.769.023-.887-.609-.532-1.367.079-2.103.02-.454-.044-.892.28-1.333.66-.21.129-.396-.195-.562-.086-.904.773-1.482 1.637-2.116 2.669-.208.273-.638.55-.638.844-.166 1.272-.962 2.404-.563 3.645.22.62.17 1.356.552 1.87.262.457.605.953.99 1.16 1.315.704 2.575-.517 3.913-.371.507.054.372.987.947.865.165-.04.302-.164.493-.087 0 .194-.244.346-.244.536.125 0 .341-.073.341.131 0 .493-.4.91-.174 1.293.646 1.174 1.268 2.42 1.043 3.715-.208.528-.544 1.137-.328 1.738.428 1.262.543 2.59.965 3.837 0 .172.176.45.372.62.373.282-.04 1.123.337 1.48.243.408.883.227 1.229.076 1.12-.703 2.113-1.115 2.327-2.24 0-.568.327-1.057.95-.947 0-.658-.377-1.248-.155-1.828.186-.738 1.156-.774 1.369-1.416.221-.923.149-1.954-.068-2.916-.2-.922.192-1.998.83-2.587 1.275-1.146 2.326-2.864 2.326-4.555-.661-.052-1.254.676-1.868.404-.358-.188-.922-.54-.922-.967-.413-1.565-1.07-2.775-1.935-4.061 0-.123-.2-.643.044-.547.627.23.894 1.028 1.318 1.623.616.838.55 1.94.993 2.847 0 .27.358.462.581.462 1.435-.222 2.211-1.674 3.428-2.595.842-.64-.1-1.625-.665-1.584-.987.034-1.975-.466-2.41-1.346.232.202.408.589.72.589 1.046 0 1.938.679 3 .589.121 0 .239.286.37.286.324 0 .573-.256.858-.5.215-.142.478.062.657.307.217.483.413 1.002.865 1.25 0-.397.287-.576.49-.837 0 1.683.385 3.286 1.256 4.636.204.37.636.311.859-.19.456-.956.228-2.006.894-2.824.63-.76 1.068-1.778 2.109-1.969-1.05-6.077-4.04-11.493-8.294-15.599-.244.042-.439-.273-.625.057" data-name="Path 632" transform="translate(-472.438 -32.484)"/></clipPath><clipPath id="k"><path d="M510.898 98.414v-.124c-.224.386-.605.654-.605 1.218-.398-.027-.842.172-1.044.591 0 .257.313.286.313.5.199.62-.508 1.2-.27 1.66.657 1.028 1.332-.819 1.556-1.603 0-.278.066-.598.066-.912 0-.395.404-.716.404-1.081 0-.105-.06-.234-.06-.396-.12.04-.242.12-.36.147" data-name="Path 633" transform="translate(-509.242 -98.267)"/></clipPath><clipPath id="m"><path d="M480.656 45.836c-.036-.006-.061-.032-.104-.034.003.04 0 .063.012.097.035.019.068.021.104.035a.607.607 0 0 0-.012-.098" data-name="Path 634" transform="translate(-480.552 -45.802)"/></clipPath><clipPath id="o"><path d="M480.64 46.081c.43.459.857-.345 1.282-.67.39-.247-.037-1.052-.645-.966 0-.308-.028-.622-.028-.917 0-.18-.284-.11-.452-.15.072 0-.147.012-.229.012-.433.328-.085.675-.023 1.076.908.168-.148 1.197.095 1.615" data-name="Path 635" transform="translate(-480.354 -43.378)"/></clipPath><clipPath id="q"><path d="M479.093 45.904c-.41-.202-.844-.07-1.042.315-.2.248-.048.682-.048 1.025.546-.233 1.228-.594 1.09-1.34" data-name="Path 636" transform="translate(-477.948 -45.81)"/></clipPath><clipPath id="s"><path d="M508 32.044c.206-.224.237-.655.237-1.014 0-.55.815-.364 1.23-.63.032 0 .03-.204 0-.204 0-.061.007-.118.007-.171-1.114.051-2.294.713-2.52 1.87 0 .322.813.562 1.047.15" data-name="Path 637" transform="translate(-506.954 -30.025)"/></clipPath><clipPath id="u"><path d="M459.342 27.973c0-.26.438-.238.223-.509 0-.085-.223-.06-.223-.148.25-.27.587-.414.834-.635-.145-.037-.355-.124-.355-.276.451-.324.904-.585 1.438-.527.349 0 .724-.717.333-.968-.208-.134-.576-.172-.816.064l.483.007c-.486.27-1.057.277-1.553.277-.13 0-.141-.506-.367-.555-.726-.151-1.357-.126-2.034-.126-2.093-.137-4.303.084-6.233.957.536.345 1.218.78 1.798.523.217.779.632 1.802-.287 2.35-.211.139.043.811.27 1.24 0 .166.043.356.043.502.459 1.144 1.51-.002 2.18-.436.174-.072.428-.144.67-.198.178-.038.284-.327.284-.417.68-.531 1.58-.388 2.28-.943.225-.196.683-.107 1.032-.182" data-name="Path 638" transform="translate(-451.072 -24.54)"/></clipPath><clipPath id="w"><path d="M469.545 35.237c.007 0-.15.136-.15.232-.458-.532-1.145-.286-1.587.045.026 0-.15-.21-.217-.21-.698.097-.47.956.008 1.112.684.188 1.171-.477 1.948-.477.267 0 .301-.668-.002-.702" data-name="Path 639" transform="translate(-467.15 -35.159)"/></clipPath><clipPath id="y"><path d="M438.972 25.752c.156-.07 6.122-1.46 6.338-1.736-1.167.46-2.363-.168-3.578-.077-.43 0-1.053-.091-.85.676-.145-.098-.257-.296-.257-.386-.361-.203-.838-.152-1.052.257-.209.47.311.453.311.815 0 .187-.359.177-.558.091-.503-.166-.022-.45-.022-.661 0-.484-.438-.18-.706-.18-.454 0 .351.524-.1.621 0-.323 0-.731-.199-.898-.19-.341-.496.14-.77.269 0 .317-.082.732-.478.6.445.913 1.247.044 1.902.374.034 0 .019.15.019.235" data-name="Path 640" transform="translate(-437.051 -23.93)"/></clipPath><clipPath id="A"><path d="M445.011 30.136c0-.162.192-.53.032-.595-.392-.393-.926-.677-1.346-.948-.664-.418-1.621-.422-2.284.237-.234.284.237.538.426.79-.527-.057-1.104.342-.898.952 0 .142.333.235.537.19.57-.162.539-1.187 1.196-1.142.552.077 1.108.007 1.326.72-.635 0-.998.248-1.463.65 0 .082-.214-.011-.332-.011.446.904 1.492.817 2.146 1.382 0-.306.214-.553.484-.49-.208-.176-.168-.5-.168-.688 0-.336.553-.313.713-.14.219.293.508.484.77.378.303-.07.229-.368.229-.638-.226-1.049-1.144-.11-1.368-.647" data-name="Path 641" transform="translate(-440.898 -28.303)"/></clipPath><clipPath id="C"><path d="M413.031 45.372c.441 1.432 2.122 1.318 3.176 1.95 0 .1.167.258.167.378.383.598 1.16.593 1.368 1.31.234.896 1.158 1.768 1.838 1.175.41.72.486 1.738.058 2.362-.436.57-.93 1.288-.695 2.034.217 1.086.545 2.158.963 3.163.429 1.133 1.596 1.538 2.42 2.337-.21 2.24 0 4.507 0 6.753 0 1.214.689 2.354.913 3.68.212 1.467 1.635 1.993 2.8 2.42 0-.893-1.01-1.048-1.01-1.827 0-.433.463-.839.463-1.28 0-.35-.486-.674-.486-1.102 0-.54.142-1.105.586-1.348.505-.302 1.15-.487 1.379-1.131 0-.068-.092-.152-.21-.137 0-.16.13-.263.13-.374.263-.278.708-.238.943-.606.641-1.04.776-2.696 1.837-3.328.48-.33 1.427-1.463.562-2.322.229-1.206 1.46-2.036 1.015-3.349-.213-.64-1.074-.288-1.494-.792-.259-.28-.54-.596-.842-.668-.578-.117-1.178.457-1.608-.004-.226-.3.075-.87.075-1.197-.225-.998-1.19-2.078-2.286-1.847 0-.231.02-.502-.133-.644-.456-.722-1.299-.903-1.908-1.42-.183.185-.313.077-.487.077 0-.302-.257-.677-.425-.529-.241.247-.374.573-.643.807 0-.337-.045-.677-.24-.962-.423.412-.917.715-1.322 1.154-.446-.712-.901.037-1.255-.183-.909-.642.065-2.658-1.495-2.473.45-.585.488-1.285.722-2.012-.563-.16-1.335-.007-1.54.654 0 .264-.648.065-.851-.384-.23-.633-.832-1.32-.411-1.722.41-.49.7-1.158 1.278-1.369.372-.077.826.103 1.277.103.113-.022.247-.103.247-.332.525.233.956.558 1.43.214.2.43.101.838-.118 1.176.232.251.405.866.658.557.384-.427.035-1.407.47-1.793.643-.462 1.013-1.113 1.648-1.572 0-.084.307.056.307.005.43-.93 1.115-1.731 2.169-1.78.267-.06.497-.144.497-.565.173.07.276-.188.478-.15.137 0 .223-.322.39-.393.141-.03.387-.12.564.145 0-.27.354-.609-.003-.77-.228-.086-.552-.106-.75-.477 0-.049-.202-.025-.323-.049.268-.288.08-.933.597-.998.197-.028.399-.07.633.296 0 .086.314-.04.314.066 0 .095.348.241.264.241.598.173 1.15-.229.942-.955.148.04.233-.074.36-.104-.472-.517-.683-1.194-1.112-1.79-.392-.523-1.073-.388-1.283.265 0-.878-.669-1.289-1.29-.987-.292.203-.182.83-.428 1.19-.425.551-1.242.433-1.479 1.067-.2.352-.204 1.008-.38 1.008-.767-.162.066-.927.066-1.46 0-.205-.412-.29-.412-.234-.611.087-1.367-.282-1.158-.985.409-1.044 1.542-.92 2.37-1.543.23-.243.611.28.837.493.382.24.642-.483.414-.809 0-.185-.19-.927-.445-.984-.13 0-.326.01-.326-.053-.227-.562-.126-1.063-.725-.798-.255.21-.276.842-.532.842-.828 0-1.686-.137-2.516-.334a28.645 28.645 0 0 0-7.973 12.069c.255.681.566 1.344.908 2.018.215.32.061.624.061.916" data-name="Path 642" transform="translate(-412.062 -29.788)"/></clipPath><clipPath id="E"><path d="M411.33 61.458c.207-.345-.052-.789-.052-1.177-.079.285-.158.56-.246.847.023.107.158.27.298.33" data-name="Path 643" transform="translate(-411.032 -60.281)"/></clipPath><clipPath id="G"><path d="M447.621 44.955c.045 0-.037.519-.234.69-.224.33-.471.5-.731.81.646.789 1.447-.13 1.914-.53 0-.054.007-.23.007-.362-.406 0-.749-.252-.956-.608" data-name="Path 644" transform="translate(-446.656 -44.955)"/></clipPath><clipPath id="I"><path d="M429.574 65.764c-.156.035-.443.158-.443.038-.828-.658-1.908-1.802-2.55-.574.133.058.248.09.248.307.23-.209.418-.438.711-.568 0 1.011.764.578 1.362 1.18.19.245.483-.13.672-.383" data-name="Path 645" transform="translate(-426.581 -64.684)"/></clipPath><clipPath id="K"><path d="M434.315 68.464c-.461-.097-1.401-.617-1.187.388-.247-.361-.28.03-.481-.06.463.796 1.65.592 2.1.06.167-.069-.19-.388-.432-.388" data-name="Path 646" transform="translate(-432.647 -68.243)"/></clipPath><clipPath id="M"><path d="M437.892 69.6c-.2.222.351.197.351.424 0-.642.729.58.28-.59-.22-.307-.422-.124-.631.165" data-name="Path 647" transform="translate(-437.848 -69.275)"/></clipPath><clipPath id="O"><path d="M430.88 68.475c-.38-.125-.71.1-.891.324-.204.227.287.462.488.377.218-.138.816-.565.404-.7" data-name="Path 648" transform="translate(-429.94 -68.44)"/></clipPath><clipPath id="b"><path d="M0 0h55.662v45.695H0V0z" data-name="Rectangle 893"/></clipPath><clipPath id="a"><path d="M0 0h238.707v68.827H0V0z" data-name="Rectangle 894"/></clipPath><linearGradient x1="-7309.427" y1="2156.753" x2="-7294.713" y2="2156.753" id="d"><stop stop-color="#f9edd0" offset="0"/><stop stop-color="#f9edd0" offset=".129"/><stop stop-color="#fbf5e5" offset=".425"/><stop stop-color="#fefcf8" offset=".762"/><stop stop-color="#fff" offset="1"/></linearGradient><linearGradient x1="-1565.897" y1="38.975" x2="-1562.989" y2="38.975" id="f"><stop stop-color="#f9edd0" offset="0"/><stop stop-color="#f9edd0" offset=".129"/><stop stop-color="#fbf5e5" offset=".425"/><stop stop-color="#fefcf8" offset=".762"/><stop stop-color="#fff" offset="1"/></linearGradient><linearGradient x1="-10075.629" y1="7594.478" x2="-10055.199" y2="7594.478" id="h"><stop stop-color="#f9edd0" offset="0"/><stop stop-color="#f9edd0" offset=".129"/><stop stop-color="#fbf5e5" offset=".425"/><stop stop-color="#fefcf8" offset=".762"/><stop stop-color="#fff" offset="1"/></linearGradient><linearGradient x1="-7.062" y1="1.478" x2="-7.047" y2="1.478" id="j"><stop stop-color="#f9edd0" offset="0"/><stop stop-color="#f9edd0" offset=".129"/><stop stop-color="#fbf5e5" offset=".425"/><stop stop-color="#fefcf8" offset=".762"/><stop stop-color="#fff" offset="1"/></linearGradient><linearGradient x1="-97.754" y1="5.181" x2="-97.562" y2="5.181" id="l"><stop stop-color="#f9edd0" offset="0"/><stop stop-color="#f9edd0" offset=".129"/><stop stop-color="#fbf5e5" offset=".425"/><stop stop-color="#fefcf8" offset=".762"/><stop stop-color="#fff" offset="1"/></linearGradient><linearGradient x1="-1799.829" y1="369.864" x2="-1796.083" y2="369.864" id="n"><stop stop-color="#f9edd0" offset="0"/><stop stop-color="#f9edd0" offset=".129"/><stop stop-color="#fbf5e5" offset=".425"/><stop stop-color="#fefcf8" offset=".762"/><stop stop-color="#fff" offset="1"/></linearGradient><linearGradient x1="-95.855" y1="15.649" x2="-95.656" y2="15.649" id="p"><stop stop-color="#f9edd0" offset="0"/><stop stop-color="#f9edd0" offset=".129"/><stop stop-color="#fbf5e5" offset=".425"/><stop stop-color="#fefcf8" offset=".762"/><stop stop-color="#fff" offset="1"/></linearGradient><linearGradient x1="-150.655" y1="31.806" x2="-150.34" y2="31.806" id="r"><stop stop-color="#f9edd0" offset="0"/><stop stop-color="#f9edd0" offset=".129"/><stop stop-color="#fbf5e5" offset=".425"/><stop stop-color="#fefcf8" offset=".762"/><stop stop-color="#fff" offset="1"/></linearGradient><linearGradient x1="-86.659" y1="22.921" x2="-86.488" y2="22.921" id="t"><stop stop-color="#f9edd0" offset="0"/><stop stop-color="#f9edd0" offset=".129"/><stop stop-color="#fbf5e5" offset=".425"/><stop stop-color="#fefcf8" offset=".762"/><stop stop-color="#fff" offset="1"/></linearGradient><linearGradient x1="-17.982" y1="8.5" x2="-17.942" y2="8.5" id="v"><stop stop-color="#f9edd0" offset="0"/><stop stop-color="#f9edd0" offset=".129"/><stop stop-color="#fbf5e5" offset=".425"/><stop stop-color="#fefcf8" offset=".762"/><stop stop-color="#fff" offset="1"/></linearGradient><linearGradient x1="-68.672" y1="32.239" x2="-68.525" y2="32.239" id="x"><stop stop-color="#f9edd0" offset="0"/><stop stop-color="#f9edd0" offset=".129"/><stop stop-color="#fbf5e5" offset=".425"/><stop stop-color="#fefcf8" offset=".762"/><stop stop-color="#fff" offset="1"/></linearGradient><linearGradient x1="-23.017" y1="26.489" x2="-22.965" y2="26.489" id="z"><stop stop-color="#f9edd0" offset="0"/><stop stop-color="#f9edd0" offset=".129"/><stop stop-color="#fbf5e5" offset=".425"/><stop stop-color="#fefcf8" offset=".762"/><stop stop-color="#fff" offset="1"/></linearGradient><linearGradient x1="-33.513" y1="13.52" x2="-33.437" y2="13.52" id="B"><stop stop-color="#f9edd0" offset="0"/><stop stop-color="#f9edd0" offset=".129"/><stop stop-color="#fbf5e5" offset=".425"/><stop stop-color="#fefcf8" offset=".762"/><stop stop-color="#fff" offset="1"/></linearGradient><linearGradient x1="-9.13" y1="1.294" x2="-9.107" y2="1.294" id="D"><stop stop-color="#f9edd0" offset="0"/><stop stop-color="#f9edd0" offset=".129"/><stop stop-color="#fbf5e5" offset=".425"/><stop stop-color="#fefcf8" offset=".762"/><stop stop-color="#fff" offset="1"/></linearGradient><linearGradient x1="-353.732" y1="36.186" x2="-352.872" y2="36.186" id="F"><stop stop-color="#f9edd0" offset="0"/><stop stop-color="#f9edd0" offset=".129"/><stop stop-color="#fbf5e5" offset=".425"/><stop stop-color="#fefcf8" offset=".762"/><stop stop-color="#fff" offset="1"/></linearGradient><linearGradient x1="-101.145" y1="21.505" x2="-100.919" y2="21.505" id="H"><stop stop-color="#f9edd0" offset="0"/><stop stop-color="#f9edd0" offset=".129"/><stop stop-color="#fbf5e5" offset=".425"/><stop stop-color="#fefcf8" offset=".762"/><stop stop-color="#fff" offset="1"/></linearGradient><linearGradient x1="-62.003" y1="17.315" x2="-61.858" y2="17.315" id="J"><stop stop-color="#f9edd0" offset="0"/><stop stop-color="#f9edd0" offset=".129"/><stop stop-color="#fbf5e5" offset=".425"/><stop stop-color="#fefcf8" offset=".762"/><stop stop-color="#fff" offset="1"/></linearGradient><linearGradient x1="-83.01" y1="22.717" x2="-82.818" y2="22.717" id="L"><stop stop-color="#f9edd0" offset="0"/><stop stop-color="#f9edd0" offset=".129"/><stop stop-color="#fbf5e5" offset=".425"/><stop stop-color="#fefcf8" offset=".762"/><stop stop-color="#fff" offset="1"/></linearGradient><linearGradient x1="-148.753" y1="26.227" x2="-148.413" y2="26.227" id="N"><stop stop-color="#f9edd0" offset="0"/><stop stop-color="#f9edd0" offset=".129"/><stop stop-color="#fbf5e5" offset=".425"/><stop stop-color="#fefcf8" offset=".762"/><stop stop-color="#fff" offset="1"/></linearGradient><linearGradient x1="-123.943" y1="42.987" x2="-123.655" y2="42.987" id="P"><stop stop-color="#f9edd0" offset="0"/><stop stop-color="#f9edd0" offset=".129"/><stop stop-color="#fbf5e5" offset=".425"/><stop stop-color="#fefcf8" offset=".762"/><stop stop-color="#fff" offset="1"/></linearGradient></defs></svg>