<svg xmlns="http://www.w3.org/2000/svg" width="33.175" height="17.646" viewBox="1962.184 7608 33.175 17.646"><g data-name="CompositeLayer"><path d="M1986.535 7608.715c1.09 0 2.149.216 3.146.64a8.179 8.179 0 0 1 4.323 4.323c.424.997.64 2.055.64 3.145 0 1.09-.216 2.149-.64 3.146a8.18 8.18 0 0 1-4.323 4.323 8.004 8.004 0 0 1-3.146.64h-15.528a8.004 8.004 0 0 1-3.146-.64 8.179 8.179 0 0 1-4.323-4.323 8.004 8.004 0 0 1-.64-3.146c0-1.09.216-2.148.64-3.145a8.18 8.18 0 0 1 4.323-4.324 8.004 8.004 0 0 1 3.146-.64h15.528m0-.714h-15.528c-4.853 0-8.823 3.97-8.823 8.823s3.97 8.823 8.823 8.823h15.528c4.853 0 8.823-3.97 8.823-8.823s-3.97-8.823-8.823-8.823Z" fill="#3c4043" fill-rule="evenodd" data-name="Outline"/><g data-name="G_Pay_Lockup_1_"><g data-name="Pay_Typeface_3_"><path d="M1978.003 7617.45v2.668h-.847v-6.59h2.246c.569 0 1.054.19 1.451.569.406.38.609.842.609 1.39 0 .56-.203 1.023-.609 1.398-.392.375-.878.56-1.451.56h-1.399v.005Zm0-3.11v2.298h1.417c.335 0 .617-.115.838-.34a1.11 1.11 0 0 0 .34-.807c0-.305-.115-.574-.34-.799a1.099 1.099 0 0 0-.838-.348h-1.417v-.005Z" fill="#3c4043" fill-rule="evenodd" data-name="Letter_p_3_"/><path d="M1983.677 7615.46c.626 0 1.12.168 1.482.503.362.335.542.794.542 1.376v2.78h-.807v-.627h-.035c-.349.516-.816.772-1.399.772-.498 0-.913-.146-1.248-.441a1.409 1.409 0 0 1-.503-1.103c0-.468.177-.838.53-1.112.352-.278.824-.414 1.411-.414.503 0 .918.092 1.24.278v-.195a.961.961 0 0 0-.349-.75 1.195 1.195 0 0 0-.82-.308c-.472 0-.847.198-1.12.6l-.746-.468c.41-.596 1.019-.891 1.822-.891Zm-1.094 3.273c0 .22.092.406.282.552.185.145.406.22.657.22.358 0 .675-.132.953-.397.278-.264.42-.573.42-.93-.266-.208-.632-.314-1.104-.314-.344 0-.63.084-.86.247-.234.172-.348.38-.348.622Z" fill="#3c4043" fill-rule="evenodd" data-name="Letter_a_3_"/><path d="m1990.307 7615.606-2.823 6.493h-.874l1.05-2.272-1.861-4.221h.922l1.34 3.238h.018l1.306-3.238h.922Z" fill="#3c4043" fill-rule="evenodd" data-name="Letter_y_3_"/></g><g data-name="G_Mark_1_"><path d="M1974.634 7616.911c0-.276-.024-.54-.07-.794h-3.55v1.456h2.044c-.083.484-.35.897-.759 1.173v.944h1.217c.711-.658 1.118-1.63 1.118-2.779Z" fill="#4285f4" fill-rule="evenodd" data-name="Blue_500"/><path d="M1972.3 7618.746c-.34.228-.775.362-1.286.362-.986 0-1.822-.665-2.122-1.56h-1.255v.974a3.78 3.78 0 0 0 3.377 2.081c1.021 0 1.879-.335 2.503-.913l-1.217-.944Z" fill="#34a853" fill-rule="evenodd" data-name="Green_500_1_"/><path d="M1968.774 7616.825c0-.251.042-.494.118-.723v-.974h-1.255a3.76 3.76 0 0 0-.402 1.697c0 .61.145 1.187.402 1.697l1.255-.974a2.28 2.28 0 0 1-.118-.723Z" fill="#fabb05" fill-rule="evenodd" data-name="Yellow_500_1_"/><path d="M1971.014 7614.542c.557 0 1.056.192 1.45.567l1.079-1.078a3.63 3.63 0 0 0-2.529-.984 3.78 3.78 0 0 0-3.377 2.081l1.255.974c.3-.895 1.136-1.56 2.122-1.56Z" fill="#e94235" fill-rule="evenodd" data-name="Red_500"/></g></g></g></svg>