<svg xmlns="http://www.w3.org/2000/svg" width="23" height="23" viewBox="1207.993 7669 23 23"><g data-name="Group 19"><path d="M1224.141 7669h-9.296a6.86 6.86 0 0 0-6.852 6.852v9.296a6.86 6.86 0 0 0 6.852 6.852h9.296a6.86 6.86 0 0 0 6.852-6.852v-9.296a6.86 6.86 0 0 0-6.852-6.852Zm4.538 16.148a4.538 4.538 0 0 1-4.538 4.538h-9.296a4.538 4.538 0 0 1-4.538-4.538v-9.296a4.538 4.538 0 0 1 4.538-4.538h9.296a4.538 4.538 0 0 1 4.538 4.538v9.296Z" fill="#fff" fill-rule="evenodd" data-name="XMLID_17_"/><path d="M1219.493 7674.551a5.955 5.955 0 0 0-5.948 5.949 5.955 5.955 0 0 0 5.948 5.948 5.955 5.955 0 0 0 5.949-5.948 5.955 5.955 0 0 0-5.949-5.949Zm0 9.583a3.635 3.635 0 1 1 0-7.269 3.635 3.635 0 0 1 0 7.27Z" fill="#fff" fill-rule="evenodd" data-name="XMLID_81_"/><path d="M1224.028 7674.496a1.425 1.425 0 1 1 0 .1z" fill="#fff" fill-rule="evenodd" data-name="XMLID_83_"/></g></svg>