<svg xmlns="http://www.w3.org/2000/svg" width="179" height="51.612"><g data-name="Mask Group 15" clip-path="url(&quot;#a&quot;)"><g data-name="Group 1990"><g data-name="Group 1989" clip-path="url(&quot;#b&quot;)"><path d="M8.433 17.613H5.975v-2.564c0-2.616-.565-3.924-1.697-3.924-1.202 0-1.803 1.307-1.803 3.921v15.616c0 1.283.106 2.208.318 2.773.271.718.766 1.078 1.485 1.078.778 0 1.302-.336 1.573-1.007.2-.517.3-1.453.3-2.806v-7.147H3.66v-2.069h4.968v9.193c0 3.936-1.45 5.904-4.35 5.904C1.427 36.58 0 34.589 0 30.606V15.12c0-4.007 1.426-6.01 4.278-6.01 2.77 0 4.155 2.003 4.155 6.01v2.493Z" fill="#fff" fill-rule="evenodd" data-name="Path 599"/><path d="M12.091 9.534h2.352v26.87H12.09V9.534z" fill="#fff" fill-rule="evenodd" data-name="Rectangle 850"/><path d="M21.514 36.723c-1.391 0-2.357-.542-2.9-1.627-.46-.895-.689-2.327-.689-4.296v-7.937c0-1.968.236-3.417.707-4.348.566-1.132 1.538-1.698 2.917-1.698 1.39 0 2.357.548 2.9 1.644.46.92.689 2.387.689 4.402V30.8c0 2.016-.23 3.465-.69 4.35-.542 1.048-1.52 1.573-2.934 1.573m.035-2.016c.825 0 1.238-.748 1.238-2.245V21.131c0-1.473-.413-2.21-1.238-2.21-.849 0-1.273.725-1.273 2.175v11.296c0 1.544.424 2.315 1.273 2.315" fill="#fff" fill-rule="evenodd" data-name="Path 600"/><path d="M30.918 35.131v1.273h-2.35V9.534h2.35v8.591c.73-.73 1.444-1.096 2.14-1.096 2.003 0 3.005 1.427 3.005 4.278v10.855c0 2.993-.82 4.49-2.457 4.49-.743 0-1.64-.507-2.688-1.52m2.793-13.86c0-1.331-.36-1.998-1.078-1.998-.554 0-1.126.52-1.715 1.556v12.056c.672.967 1.255 1.45 1.75 1.45.696 0 1.043-.601 1.043-1.803V21.272Z" fill="#fff" fill-rule="evenodd" data-name="Path 601"/><path d="m44.937 36.404-.425-.972c-.671.766-1.408 1.15-2.21 1.15-1.98 0-2.97-1.65-2.97-4.95 0-2.051.378-3.63 1.132-4.738.708-1.05 2.021-2.068 3.943-3.058v-2.67c0-1.496-.342-2.245-1.026-2.245-.719 0-1.078.808-1.078 2.422v1.891h-2.351v-1.608c0-3.182 1.131-4.773 3.394-4.773 1.273 0 2.168.524 2.687 1.573.46.908.69 2.363.69 4.367v9.952c0 1.025.182 2.245.547 3.66h-2.333Zm-1.733-1.697c.802 0 1.203-.771 1.203-2.315v-6.276c-1.109.766-1.827 1.53-2.158 2.29-.33.76-.494 1.964-.494 3.614 0 1.792.483 2.687 1.45 2.687" fill="#fff" fill-rule="evenodd" data-name="Path 602"/><path d="M50.187 9.534h2.351v26.87h-2.35V9.534z" fill="#fff" fill-rule="evenodd" data-name="Rectangle 851"/><path d="M69.845 34.23v2.033c-1.167.094-1.951.141-2.351.141-1.745 0-2.988-.5-3.73-1.502-.684-.896-1.025-2.293-1.025-4.19v-7.16h-1.114v-2.068h1.114v-6.276c0-2.116.365-3.634 1.095-4.557.707-.886 1.862-1.329 3.465-1.329.872 0 1.597.024 2.175.07v2.033a17.488 17.488 0 0 0-1.768-.105c-1.155 0-1.886.306-2.192.919-.2.424-.3 1.396-.3 2.916v6.33h3.906v2.068h-3.906v7.212c0 1.167.152 2.01.459 2.528.448.72 1.267 1.079 2.457 1.079.495 0 1.067-.048 1.715-.142" fill="#fff" fill-rule="evenodd" data-name="Path 603"/><path d="M74.777 20.441v15.963h-2.351V17.188h2.35v1.326c.743-.99 1.544-1.485 2.405-1.485.966 0 1.638.395 2.016 1.185.294.625.441 1.608.441 2.952v15.238h-2.35V21.13c0-1.213-.278-1.82-.832-1.82-.365 0-.925.377-1.68 1.131" fill="#fff" fill-rule="evenodd" data-name="Path 604"/><path d="M88.265 37.447v-2.156c-.99.978-1.82 1.467-2.492 1.467-1.815 0-2.723-1.373-2.723-4.12v-11.33c0-1.273.254-2.292.76-3.059.53-.813 1.279-1.22 2.245-1.22.755 0 1.491.366 2.21 1.097v-.937h2.281v19.94c0 1.827-.319 3.17-.955 4.03-.636.86-1.68 1.291-3.129 1.291a4.64 4.64 0 0 1-1.962-.407l.371-1.697c.471.071.854.107 1.15.107 1.496 0 2.244-1.002 2.244-3.006m-1.732-2.97c.577 0 1.155-.495 1.732-1.485V20.83c-.577-1.084-1.178-1.626-1.803-1.626-.73 0-1.096.678-1.096 2.033v11.296c0 1.297.389 1.944 1.167 1.944" fill="#fff" fill-rule="evenodd" data-name="Path 605"/><path d="m99.384 36.404-.424-.972c-.672.766-1.408 1.15-2.21 1.15-1.98 0-2.97-1.65-2.97-4.95 0-2.051.377-3.63 1.132-4.738.707-1.05 2.02-2.068 3.942-3.058v-2.67c0-1.496-.342-2.245-1.025-2.245-.72 0-1.079.808-1.079 2.422v1.891H94.4v-1.608c0-3.182 1.131-4.773 3.395-4.773 1.272 0 2.168.524 2.687 1.573.459.908.688 2.363.688 4.367v9.952c0 1.025.183 2.245.549 3.66h-2.334Zm-1.732-1.697c.801 0 1.202-.771 1.202-2.315v-6.276c-1.108.766-1.827 1.53-2.157 2.29-.33.76-.495 1.964-.495 3.614 0 1.792.483 2.687 1.45 2.687" fill="#fff" fill-rule="evenodd" data-name="Path 606"/><path d="M109.832 37.447v-2.156c-.99.978-1.82 1.467-2.493 1.467-1.814 0-2.722-1.373-2.722-4.12v-11.33c0-1.273.254-2.292.76-3.059.53-.813 1.279-1.22 2.245-1.22.755 0 1.491.366 2.21 1.097v-.937h2.28v19.94c0 1.827-.318 3.17-.954 4.03-.636.86-1.68 1.291-3.129 1.291a4.64 4.64 0 0 1-1.962-.407l.371-1.697c.471.071.854.107 1.15.107 1.496 0 2.244-1.002 2.244-3.006m-1.732-2.97c.577 0 1.155-.495 1.732-1.485V20.83c-.577-1.084-1.178-1.626-1.803-1.626-.731 0-1.096.678-1.096 2.033v11.296c0 1.297.389 1.944 1.167 1.944" fill="#fff" fill-rule="evenodd" data-name="Path 607"/><path d="M122.754 27.389h-4.826v4.955c0 1.564.389 2.345 1.167 2.345.872 0 1.308-.892 1.308-2.677V29.74h2.351v1.555c0 3.642-1.22 5.463-3.66 5.463-1.378 0-2.339-.548-2.881-1.644-.448-.896-.671-2.334-.671-4.314v-7.937c0-1.992.223-3.435.671-4.33.554-1.12 1.538-1.68 2.952-1.68 2.393 0 3.59 1.656 3.59 4.967v5.569Zm-4.826-6.081v3.871h2.475v-3.66c0-.942-.093-1.617-.28-2.024-.185-.406-.534-.61-1.045-.61-.766 0-1.15.808-1.15 2.423" fill="#fff" fill-rule="evenodd" data-name="Path 608"/></g></g><g data-name="Group 1992"><g data-name="Group 1991" transform="translate(162.027 14.331)" clip-path="url(&quot;#c&quot;)"><path d="M0 0h.022v.017H0V0z" fill-rule="evenodd" fill="url(&quot;#d&quot;)" data-name="Rectangle 853"/></g></g><g data-name="Group 1994"><g data-name="Group 1993" transform="translate(175.69 22.487)" clip-path="url(&quot;#e&quot;)"><path d="M0 0h.112v.748H0V0z" fill-rule="evenodd" fill="url(&quot;#f&quot;)" data-name="Rectangle 854"/></g></g><g data-name="Group 1996"><g data-name="Group 1995" transform="translate(160.865 14.454)" clip-path="url(&quot;#g&quot;)"><path d="M0 0h.016v.005H0V0z" fill-rule="evenodd" fill="url(&quot;#h&quot;)" data-name="Rectangle 855"/></g></g><g data-name="Group 1998"><g data-name="Group 1997" transform="translate(154.092 10.595)" clip-path="url(&quot;#i&quot;)"><path d="M0 0h21.788v27.81H0V0z" fill-rule="evenodd" fill="url(&quot;#j&quot;)" transform="translate(-.216 -.109)" data-name="Rectangle 856"/></g></g><g data-name="Group 2000"><g data-name="Group 1999" transform="translate(166.096 32.051)" clip-path="url(&quot;#k&quot;)"><path d="M0 0h1.697v3.764H0V0z" fill-rule="evenodd" fill="url(&quot;#l&quot;)" transform="translate(-.141)" data-name="Rectangle 857"/></g></g><g data-name="Group 2002"><g data-name="Group 2001" transform="translate(156.738 14.939)" clip-path="url(&quot;#m&quot;)"><path d="M0 0h.088v.1H0V0z" fill-rule="evenodd" fill="url(&quot;#n&quot;)" data-name="Rectangle 858"/></g></g><g data-name="Group 2004"><g data-name="Group 2003" transform="translate(156.673 14.148)" clip-path="url(&quot;#o&quot;)"><path d="M0 0h1.633v2.392H0V0z" fill-rule="evenodd" fill="url(&quot;#p&quot;)" transform="translate(-.165 -.02)" data-name="Rectangle 859"/></g></g><g data-name="Group 2006"><g data-name="Group 2005" transform="translate(155.889 14.942)" clip-path="url(&quot;#q&quot;)"><path d="M0 0h1.035v1.075H0V0z" fill-rule="evenodd" fill="url(&quot;#r&quot;)" transform="translate(-.073)" data-name="Rectangle 860"/></g></g><g data-name="Group 2008"><g data-name="Group 2007" transform="translate(165.35 9.793)" clip-path="url(&quot;#s&quot;)"><path d="M0 0h1.908v1.824H0V0z" fill-rule="evenodd" fill="url(&quot;#t&quot;)" data-name="Rectangle 861"/></g></g><g data-name="Group 2010"><g data-name="Group 2009" transform="translate(147.123 8.004)" clip-path="url(&quot;#u&quot;)"><path d="M0 0h8.182v5.064H0V0z" fill-rule="evenodd" fill="url(&quot;#v&quot;)" data-name="Rectangle 862"/></g></g><g data-name="Group 2012"><g data-name="Group 2011" transform="translate(152.367 11.468)" clip-path="url(&quot;#w&quot;)"><path d="M0 0h2.216v1.084H0V0z" fill-rule="evenodd" fill="url(&quot;#x&quot;)" transform="translate(-.192)" data-name="Rectangle 863"/></g></g><g data-name="Group 2014"><g data-name="Group 2013" transform="translate(142.55 7.805)" clip-path="url(&quot;#y&quot;)"><path d="M0 0h6.193v1.428H0V0z" fill-rule="evenodd" fill="url(&quot;#z&quot;)" transform="translate(0 -.062)" data-name="Rectangle 864"/></g></g><g data-name="Group 2016"><g data-name="Group 2015" transform="translate(143.805 9.231)" clip-path="url(&quot;#A&quot;)"><path d="M0 0h4.287v3.043H0V0z" fill-rule="evenodd" fill="url(&quot;#B&quot;)" transform="translate(-.122)" data-name="Rectangle 865"/></g></g><g data-name="Group 2018"><g data-name="Group 2017" transform="translate(134.399 9.716)" clip-path="url(&quot;#C&quot;)"><path d="M0 0h14.722v32.355H0V0z" fill-rule="evenodd" fill="url(&quot;#D&quot;)" data-name="Rectangle 866"/></g></g><g data-name="Group 2020"><g data-name="Group 2019" transform="translate(134.064 19.661)" clip-path="url(&quot;#E&quot;)"><path d="M0 0h.379v.883H0V0z" fill-rule="evenodd" fill="url(&quot;#F&quot;)" data-name="Rectangle 867"/></g></g><g data-name="Group 2022"><g data-name="Group 2021" transform="translate(145.682 14.662)" clip-path="url(&quot;#G&quot;)"><path d="M0 0h1.44v1.717H0V0z" fill-rule="evenodd" fill="url(&quot;#H&quot;)" data-name="Rectangle 868"/></g></g><g data-name="Group 2024"><g data-name="Group 2023" transform="translate(139.135 21.097)" clip-path="url(&quot;#I&quot;)"><path d="M0 0h2.244v1.28H0V0z" fill-rule="evenodd" fill="url(&quot;#J&quot;)" data-name="Rectangle 869"/></g></g><g data-name="Group 2026"><g data-name="Group 2025" transform="translate(141.113 22.258)" clip-path="url(&quot;#K&quot;)"><path d="M0 0h1.7v1.009H0V0z" fill-rule="evenodd" fill="url(&quot;#L&quot;)" data-name="Rectangle 870"/></g></g><g data-name="Group 2028"><g data-name="Group 2027" transform="translate(142.81 22.595)" clip-path="url(&quot;#M&quot;)"><path d="M0 0h.811v.612H0V0z" fill-rule="evenodd" fill="url(&quot;#N&quot;)" transform="translate(-.117)" data-name="Rectangle 871"/></g></g><g data-name="Group 2030"><g data-name="Group 2029" transform="translate(140.23 22.322)" clip-path="url(&quot;#O&quot;)"><path d="M0 0h1.13v.616H0V0z" fill-rule="evenodd" fill="url(&quot;#P&quot;)" transform="translate(-.116)" data-name="Rectangle 872"/></g></g><g data-name="Group 2075"><g data-name="Group 2074" clip-path="url(&quot;#Q&quot;)"><g data-name="Group 2073"><g data-name="Group 2072"><g data-name="Group 2071" transform="translate(134.063 7.805)" clip-path="url(&quot;#R&quot;)"><g data-name="Group 2032"><g data-name="Group 2031" transform="translate(27.964 6.527)" clip-path="url(&quot;#S&quot;)"><path d="M0 0h.022v.017H0V0z" fill-rule="evenodd" fill="url(&quot;#T&quot;)" data-name="Rectangle 873"/></g></g><g data-name="Group 2034"><g data-name="Group 2033" transform="translate(41.627 14.683)" clip-path="url(&quot;#U&quot;)"><path d="M0 0h.112v.747H0V0z" fill-rule="evenodd" fill="url(&quot;#V&quot;)" data-name="Rectangle 874"/></g></g><g data-name="Group 2036"><g data-name="Group 2035" transform="translate(26.801 6.65)" clip-path="url(&quot;#W&quot;)"><path d="M0 0h.016v.005H0V0z" fill-rule="evenodd" fill="url(&quot;#X&quot;)" data-name="Rectangle 875"/></g></g><g data-name="Group 2038"><g data-name="Group 2037" transform="translate(20.028 2.79)" clip-path="url(&quot;#Y&quot;)"><path d="M0 0h21.788v27.836H0V0z" fill-rule="evenodd" fill="url(&quot;#Z&quot;)" transform="translate(-.216 -.133)" data-name="Rectangle 876"/></g></g><g data-name="Group 2040"><g data-name="Group 2039" transform="translate(32.033 24.246)" clip-path="url(&quot;#aa&quot;)"><path d="M0 0h1.698v3.764H0V0z" fill-rule="evenodd" fill="url(&quot;#ab&quot;)" transform="translate(-.141)" data-name="Rectangle 877"/></g></g><g data-name="Group 2042"><g data-name="Group 2041" transform="translate(22.675 7.134)" clip-path="url(&quot;#ac&quot;)"><path d="M0 0h.087v.1H0V0z" fill-rule="evenodd" fill="url(&quot;#ad&quot;)" data-name="Rectangle 878"/></g></g><g data-name="Group 2044"><g data-name="Group 2043" transform="translate(22.61 6.344)" clip-path="url(&quot;#ae&quot;)"><path d="M0 0h1.633v2.394H0V0z" fill-rule="evenodd" fill="url(&quot;#af&quot;)" transform="translate(-.164 -.023)" data-name="Rectangle 879"/></g></g><g data-name="Group 2046"><g data-name="Group 2045" transform="translate(21.825 7.137)" clip-path="url(&quot;#ag&quot;)"><path d="M0 0h1.034v1.156H0V0z" fill-rule="evenodd" fill="url(&quot;#ah&quot;)" transform="translate(-.072 -.08)" data-name="Rectangle 880"/></g></g><g data-name="Group 2048"><g data-name="Group 2047" transform="translate(31.286 1.988)" clip-path="url(&quot;#ai&quot;)"><path d="M0 0h1.908v1.824H0V0z" fill-rule="evenodd" fill="url(&quot;#aj&quot;)" data-name="Rectangle 881"/></g></g><g data-name="Group 2050"><g data-name="Group 2049" transform="translate(13.06 .2)" clip-path="url(&quot;#ak&quot;)"><path d="M0 0h8.182v5.138H0V0z" fill-rule="evenodd" fill="url(&quot;#al&quot;)" transform="translate(0 -.075)" data-name="Rectangle 882"/></g></g><g data-name="Group 2052"><g data-name="Group 2051" transform="translate(18.303 3.663)" clip-path="url(&quot;#am&quot;)"><path d="M0 0h2.216v1.25H0V0z" fill-rule="evenodd" fill="url(&quot;#an&quot;)" transform="translate(-.192 -.167)" data-name="Rectangle 883"/></g></g><g data-name="Group 2054"><g data-name="Group 2053" transform="translate(8.486)" clip-path="url(&quot;#ao&quot;)"><path d="M0 0h6.193v1.656H0V0z" fill-rule="evenodd" fill="url(&quot;#ap&quot;)" transform="translate(0 -.062)" data-name="Rectangle 884"/></g></g><g data-name="Group 2056"><g data-name="Group 2055" transform="translate(9.741 1.427)" clip-path="url(&quot;#aq&quot;)"><path d="M0 0h4.287v3.142H0V0z" fill-rule="evenodd" fill="url(&quot;#ar&quot;)" transform="translate(-.122 -.1)" data-name="Rectangle 885"/></g></g><g data-name="Group 2058"><g data-name="Group 2057" transform="translate(.336 1.911)" clip-path="url(&quot;#as&quot;)"><path d="M0 0h14.721v32.499H0V0z" fill-rule="evenodd" fill="url(&quot;#at&quot;)" transform="translate(0 -.144)" data-name="Rectangle 886"/></g></g><g data-name="Group 2060"><g data-name="Group 2059" transform="translate(0 11.857)" clip-path="url(&quot;#au&quot;)"><path d="M0 0h.379v.883H0V0z" fill-rule="evenodd" fill="url(&quot;#av&quot;)" data-name="Rectangle 887"/></g></g><g data-name="Group 2062"><g data-name="Group 2061" transform="translate(11.62 6.858)" clip-path="url(&quot;#aw&quot;)"><path d="M0 0h1.44v1.716H0V0z" fill-rule="evenodd" fill="url(&quot;#ax&quot;)" data-name="Rectangle 888"/></g></g><g data-name="Group 2064"><g data-name="Group 2063" transform="translate(5.071 13.293)" clip-path="url(&quot;#ay&quot;)"><path d="M0 0h2.244v1.794H0V0z" fill-rule="evenodd" fill="url(&quot;#az&quot;)" transform="translate(0 -.513)" data-name="Rectangle 889"/></g></g><g data-name="Group 2066"><g data-name="Group 2065" transform="translate(7.05 14.454)" clip-path="url(&quot;#aA&quot;)"><path d="M0 0h1.7v1.306H0V0z" fill-rule="evenodd" fill="url(&quot;#aB&quot;)" transform="translate(0 -.297)" data-name="Rectangle 890"/></g></g><g data-name="Group 2068"><g data-name="Group 2067" transform="translate(8.746 14.79)" clip-path="url(&quot;#aC&quot;)"><path d="M0 0h.96v1.107H0V0z" fill-rule="evenodd" fill="url(&quot;#aD&quot;)" transform="translate(-.117 -.111)" data-name="Rectangle 891"/></g></g><g data-name="Group 2070"><g data-name="Group 2069" transform="translate(6.167 14.518)" clip-path="url(&quot;#aE&quot;)"><path d="M0 0h1.13v.683H0V0z" fill-rule="evenodd" fill="url(&quot;#aF&quot;)" transform="translate(-.116 -.067)" data-name="Rectangle 892"/></g></g></g></g></g><path d="M162.115 6.26c-.115-.041-.233-.075-.361-.115.038.014.063.03.084.044.126.04.255.075.367.121-.022-.014-.055-.036-.09-.05m-1.17-.482-.557-.17c.488.144.917.307 1.271.486.128.033.245.069.36.11a7.388 7.388 0 0 0-1.074-.426m-12.341-.22a.75.75 0 0 1 .139-.045c.074-.019.146-.04.212-.056l-.351.1m-1.983.743c.124-.04.245-.083.369-.115.398-.234.936-.453 1.609-.631-.09.025-.188.051-.265.077l-.049.02c-.69.193-1.253.411-1.664.65m-.821.835c.13-.058.274-.11.41-.165.076-.253.315-.505.69-.733-.121.031-.24.076-.369.116-.4.245-.647.511-.731.782m.314.876a5.26 5.26 0 0 1 .395-.202c-.278-.252-.378-.52-.315-.782-.137.053-.272.112-.408.166-.055.27.043.546.328.818m1.5.82c.113-.087.22-.163.32-.243a6.079 6.079 0 0 1-.913-.408 2.777 2.777 0 0 1-.461-.308c-.12.061-.25.13-.37.196.119.112.276.22.47.328.265.164.592.3.955.436m2.384.576c.06-.086.133-.172.203-.266-.802-.131-1.52-.302-2.133-.51-.101.08-.21.164-.312.242.64.214 1.394.398 2.242.534m2.91.313c.018-.098.048-.19.067-.279a25.437 25.437 0 0 1-2.602-.265c-.059.084-.13.17-.195.267.847.129 1.77.224 2.73.277m3.15 0c-.028-.098-.057-.19-.083-.279-.928.049-1.884.049-2.79.007-.021.09-.044.181-.065.278.963.044 1.96.043 2.938-.006m3.044-.333c-.073-.09-.149-.178-.219-.265-.256.047-.533.088-.82.125-.605.085-1.248.15-1.876.18.026.09.06.185.087.276a23.597 23.597 0 0 0 1.969-.186c.3-.038.586-.082.86-.13m2.326-.604c-.113-.08-.217-.158-.334-.235-.542.203-1.219.394-2.029.539.08.09.15.175.23.259.832-.153 1.567-.344 2.133-.563m1.356-.779-.4-.2c-.244.248-.636.481-1.163.696.12.076.222.156.337.234.554-.225.965-.467 1.226-.73m.264-.866a3.635 3.635 0 0 0-.403-.16c.095.265.025.525-.205.773.14.059.27.126.402.193.222-.259.305-.531.206-.806m-.845-.83c-.112-.046-.24-.08-.367-.121.425.242.682.487.79.735.135.045.262.1.404.154-.107-.26-.395-.521-.827-.768" fill="#fff" fill-rule="evenodd" data-name="Path 649"/><path d="M140.514 10.231c.102-.09.217-.18.33-.26.102-.354.393-.692.84-1.021l-.386.291c-.424.32-.685.647-.784.99m.496 1.415c.11-.104.214-.201.322-.297-.445-.424-.613-.862-.515-1.29-.118.087-.228.178-.34.266-.09.438.074.882.533 1.321m2.425 1.315c.094-.11.165-.22.257-.333a8.8 8.8 0 0 1-1.5-.668 4.178 4.178 0 0 1-.752-.516c-.108.097-.217.2-.32.297.212.182.465.357.767.529.432.252.95.477 1.548.691m3.83.944c.056-.116.114-.235.174-.348-1.321-.219-2.518-.505-3.53-.845-.073.108-.158.215-.246.33 1.028.34 2.248.636 3.602.863m4.703.496c.014-.121.039-.242.057-.36a41.396 41.396 0 0 1-4.292-.439c-.058.118-.118.238-.165.353 1.362.217 2.85.365 4.4.446m5.076.006c-.018-.127-.035-.248-.057-.366a54.823 54.823 0 0 1-4.623.015c-.019.122-.037.241-.053.36 1.555.07 3.153.07 4.733-.01m4.918-.547c-.057-.118-.124-.232-.175-.352-.433.087-.889.159-1.36.218a44.088 44.088 0 0 1-3.097.299c.021.118.041.238.066.358a45.846 45.846 0 0 0 3.18-.304c.488-.065.941-.132 1.386-.219m3.745-.975a7.973 7.973 0 0 0-.263-.314c-.903.343-2.04.647-3.357.896.055.115.114.233.178.341 1.36-.25 2.521-.565 3.442-.923m2.18-1.25c-.1-.1-.215-.197-.324-.292-.4.408-1.049.793-1.92 1.143.096.11.18.221.27.326.905-.36 1.57-.752 1.975-1.176m.452-1.395c-.118-.093-.23-.178-.333-.263.145.432.02.863-.349 1.27.106.098.222.197.33.294.37-.421.495-.861.352-1.3m-.801-.96-.391-.306c.41.304.678.599.814.91.114.083.217.166.328.256-.126-.289-.368-.578-.751-.86" fill="#fff" fill-rule="evenodd" data-name="Path 650"/><path d="M136.42 14.665c.082-.114.159-.228.24-.34.056-.179.145-.36.274-.535l-.26.382a1.7 1.7 0 0 0-.254.493m.66 1.827c.068-.115.148-.236.22-.37-.582-.55-.794-1.124-.678-1.681-.079.116-.153.23-.23.349-.127.575.096 1.147.688 1.702m3.127 1.71c.06-.132.12-.267.185-.389-.753-.278-1.423-.564-1.97-.885a5.61 5.61 0 0 1-.979-.67c-.079.12-.158.234-.231.37.264.225.593.46.987.682.564.317 1.236.618 2.008.892m4.949 1.21c.04-.131.08-.266.126-.4-1.724-.288-3.284-.66-4.603-1.106-.063.138-.122.261-.173.398 1.325.444 2.908.824 4.65 1.108m6.084.651c.008-.14.029-.285.045-.417a58.107 58.107 0 0 1-5.62-.568c-.034.133-.077.266-.117.398 1.773.29 3.696.48 5.692.587m6.566 0c-.016-.136-.028-.283-.04-.412a60.506 60.506 0 0 1-6.04.01 6.52 6.52 0 0 0-.04.416c2.002.096 4.07.094 6.12-.013m6.353-.69c-.038-.147-.083-.286-.122-.421-.567.11-1.162.197-1.772.279-1.322.176-2.68.304-4.055.391.016.141.034.273.046.417a57.806 57.806 0 0 0 4.112-.389 57.055 57.055 0 0 0 1.791-.278m4.857-1.26c-.072-.132-.128-.266-.198-.391-1.182.444-2.665.848-4.386 1.163.037.135.08.27.126.406 1.767-.314 3.246-.72 4.458-1.178m2.812-1.627c-.077-.118-.146-.245-.22-.373-.542.54-1.386 1.049-2.53 1.502.07.131.136.266.195.393 1.164-.47 2.022-.981 2.555-1.522m.573-1.813a4.663 4.663 0 0 0-.24-.34c.196.558.036 1.133-.44 1.667.071.114.148.247.23.368.487-.55.646-1.112.45-1.695m-.223-.442-.268-.38c.082.123.155.24.2.359l.235.341a1.618 1.618 0 0 0-.167-.32" fill="#fff" fill-rule="evenodd" data-name="Path 651"/><path d="M133.96 19.796c0-.016.01-.023.013-.032l-.012.032Zm.634 2.468c.037-.14.077-.285.125-.425-.678-.645-.924-1.294-.78-1.941-.05.145-.09.278-.132.42-.133.64.113 1.3.787 1.946m3.58 1.943c.025-.146.06-.29.096-.436-.871-.308-1.639-.648-2.28-1.015a6.561 6.561 0 0 1-1.122-.776c-.037.144-.084.285-.118.428.305.26.682.518 1.13.779.652.368 1.417.705 2.294 1.02m5.648 1.4c.028-.158.049-.308.07-.45-1.988-.333-3.772-.76-5.292-1.27-.034.144-.072.291-.093.437 1.522.512 3.324.943 5.315 1.283m6.952.723c.012-.154.02-.302.025-.459a59.897 59.897 0 0 1-6.455-.64 3.486 3.486 0 0 0-.07.443c2.02.314 4.22.54 6.5.656m7.502 0c-.01-.15-.014-.3-.022-.457-2.323.127-4.673.13-6.948.02-.009.159-.014.314-.015.465a73.87 73.87 0 0 0 6.985-.028m7.265-.79c-.019-.144-.036-.291-.068-.44a57.98 57.98 0 0 1-6.702.756c.004.146.014.29.032.444 1.586-.09 3.162-.24 4.683-.445.715-.092 1.4-.192 2.055-.315m5.54-1.442a17.266 17.266 0 0 0-.108-.431c-1.36.517-3.051.977-5.054 1.35.028.144.058.295.072.444 2.016-.376 3.718-.836 5.09-1.363m3.218-1.85c-.036-.14-.07-.278-.116-.423-.61.618-1.594 1.2-2.898 1.727.026.144.064.287.096.43 1.324-.528 2.302-1.116 2.918-1.735m.682-1.97-.132-.447c.203.625.002 1.258-.54 1.854.045.144.083.29.117.425.535-.595.73-1.21.555-1.832" fill="#fff" fill-rule="evenodd" data-name="Path 652"/><path d="M133.865 28.584c-.001-.138-.006-.285-.006-.432-.571-.537-.85-1.084-.853-1.625l.014.468c.02.531.288 1.065.845 1.59m3.703 2.015c-.003-.144-.003-.285-.004-.432-.905-.318-1.705-.668-2.383-1.05a8.618 8.618 0 0 1-1.173-.813c.002.143.013.286.03.431.304.271.694.549 1.166.813.67.37 1.462.729 2.364 1.05m5.866 1.441c-.003-.144-.003-.279-.003-.43-2.067-.344-3.947-.786-5.521-1.316 0 .14.005.282.009.427 1.575.532 3.447.981 5.515 1.32m7.196.764-.001-.426a67.392 67.392 0 0 1-6.735-.688c0 .139 0 .283.005.432 2.092.329 4.379.558 6.731.682m7.778.002c.005-.144.007-.284.007-.423a76.758 76.758 0 0 1-7.258.014c0 .147.003.286.003.427 2.373.112 4.824.107 7.248-.018m7.512-.818c.003-.152.013-.287.02-.436-.683.115-1.39.23-2.134.333-1.58.205-3.202.368-4.86.46v.434c1.657-.1 3.278-.254 4.856-.46.748-.112 1.449-.22 2.118-.33m5.747-1.493c.002-.149.015-.29.015-.437-1.42.543-3.192 1.023-5.283 1.413-.003.137-.003.285-.005.423 2.086-.38 3.856-.86 5.273-1.4m3.337-1.92c.003-.148.012-.29.017-.439-.63.645-1.651 1.257-3.03 1.803 0 .142-.004.29-.008.43 1.376-.544 2.383-1.156 3.02-1.793m.778-1.51.012-.47c-.008.473-.225.945-.635 1.401-.002.147-.009.288-.009.43.396-.441.604-.899.632-1.36" fill="#fff" fill-rule="evenodd" data-name="Path 653"/><path d="M135.05 34.63c-.063-.127-.1-.261-.158-.39-.353-.348-.585-.688-.703-1.025l.159.425c.122.332.35.66.702.99m3.478 1.9c-.028-.136-.077-.262-.107-.383-.856-.305-1.616-.638-2.254-1.001a7.22 7.22 0 0 1-1.112-.771c.048.132.099.26.133.395.311.264.67.507 1.114.759.63.365 1.38.693 2.226 1.002m5.526 1.36c-.017-.12-.05-.247-.07-.379-1.966-.32-3.744-.745-5.235-1.254.034.123.074.257.104.386 1.488.493 3.254.914 5.201 1.248m6.78.707c-.002-.118-.011-.244-.017-.366a59.813 59.813 0 0 1-6.406-.649c.038.123.058.244.08.369 1.973.316 4.126.528 6.343.646m7.328 0c.002-.118.023-.244.033-.364-2.307.12-4.625.12-6.882.03.009.123.013.245.02.359 2.241.095 4.535.092 6.83-.025m7.082-.775c.04-.123.059-.242.085-.363-.645.111-1.313.215-2.015.313-1.5.19-3.05.344-4.617.433-.015.123-.02.243-.027.366 1.556-.092 3.081-.24 4.576-.432a40.772 40.772 0 0 0 1.998-.317m5.413-1.393c.041-.135.081-.265.125-.387-1.348.512-3.031.966-5.009 1.33-.023.124-.056.25-.086.372 1.966-.364 3.633-.819 4.97-1.315m3.147-1.815c.053-.137.087-.263.144-.397-.605.61-1.58 1.194-2.883 1.71-.027.128-.068.25-.114.386 1.295-.514 2.258-1.093 2.853-1.7m.721-1.19.05-.15a2.533 2.533 0 0 1-.505.811c-.045.128-.086.262-.13.39.218-.251.373-.504.476-.761l.109-.29" fill="#fff" fill-rule="evenodd" data-name="Path 654"/><path d="M137.894 39.74c-.08-.111-.164-.215-.245-.317a3.928 3.928 0 0 1-.308-.354l.28.363c.081.105.17.208.273.308m2.975 1.613c-.06-.1-.134-.194-.194-.298-.74-.261-1.39-.55-1.933-.85a6.64 6.64 0 0 1-.96-.666c.086.107.166.214.246.314.256.218.572.437.94.65.535.309 1.181.592 1.901.85m4.706 1.156c-.037-.087-.086-.187-.13-.276-1.678-.283-3.207-.643-4.495-1.075.062.094.139.195.196.29 1.282.43 2.765.785 4.429 1.061m5.78.607c-.02-.084-.033-.174-.048-.265a51.57 51.57 0 0 1-5.48-.556c.043.093.076.185.125.272 1.69.275 3.504.454 5.403.55m6.236 0c.017-.08.03-.174.054-.263a62.227 62.227 0 0 1-5.904.016c.013.092.02.178.035.272 1.906.08 3.869.075 5.815-.026m6.035-.656c.049-.092.094-.184.142-.275-.551.092-1.13.182-1.73.26-1.287.177-2.616.31-3.955.385-.027.088-.039.183-.055.27a51.545 51.545 0 0 0 3.898-.38c.593-.074 1.169-.161 1.7-.26m4.613-1.19c.064-.105.14-.197.212-.296-1.174.433-2.599.818-4.298 1.14-.046.09-.102.19-.149.284 1.676-.316 3.096-.7 4.235-1.128m2.68-1.545c.082-.104.164-.217.238-.318-.512.52-1.338 1.014-2.454 1.46-.078.107-.141.206-.218.298 1.107-.436 1.92-.927 2.435-1.44m.208-.236.278-.36c-.036.053-.085.105-.122.162-.084.11-.168.213-.253.319.024-.041.067-.077.097-.121" fill="#fff" fill-rule="evenodd" data-name="Path 655"/><path d="M144.357 44.842a17.952 17.952 0 0 0-.28-.192 10.428 10.428 0 0 1-1.445-.651 3.935 3.935 0 0 1-.368-.223l.414.273c.083.054.161.114.26.166.401.227.869.435 1.419.627m3.49.856c-.063-.06-.12-.108-.185-.169-1.264-.218-2.415-.487-3.372-.802.091.057.178.119.274.19.933.31 2.048.581 3.283.781m4.287.448c-.03-.047-.046-.097-.07-.154a39.594 39.594 0 0 1-4.122-.423c.054.057.114.124.167.175a37.11 37.11 0 0 0 4.025.402m4.623 0c.022-.047.041-.097.059-.15-1.474.07-2.975.077-4.434.016.029.048.04.098.053.147 1.418.065 2.874.065 4.322-.013m4.474-.487c.06-.05.127-.112.193-.161-.418.061-.856.128-1.3.198-.971.124-1.963.216-2.98.28-.022.047-.043.108-.063.161a37.48 37.48 0 0 0 2.885-.28c.445-.056.852-.122 1.265-.198m3.42-.885c.098-.06.181-.124.28-.194-.873.337-1.953.622-3.219.853-.069.066-.142.12-.199.183 1.241-.234 2.286-.516 3.138-.842m1.41-.686.401-.27c-.352.236-.806.47-1.34.687-.098.067-.191.132-.294.194a6.88 6.88 0 0 0 1.232-.611" fill="#fff" fill-rule="evenodd" data-name="Path 656"/><path d="M150.677 47.232a1.34 1.34 0 0 0-.199-.053c-.339-.05-.661-.124-.965-.194l.543.118.13.033c.155.032.324.055.491.096m2.423.247a.293.293 0 0 1-.068-.03c-.842-.05-1.649-.13-2.396-.249.074.03.137.038.198.056.705.1 1.47.19 2.266.223m2.603 0c.03-.007.049-.018.08-.03-.85.036-1.72.04-2.57.006.022.016.04.023.061.03.801.036 1.61.036 2.43-.006m2.572-.288c.061-.01.103-.017.174-.038-.24.044-.494.088-.752.116-.561.08-1.139.13-1.727.176-.028.007-.054.016-.09.027.56-.027 1.111-.085 1.638-.161.215-.028.423-.055.63-.087l.127-.033m.252-.048.245-.05c-.048.013-.102.025-.152.04l-.093.01" fill="#fff" fill-rule="evenodd" data-name="Path 657"/><path d="M161.66 6.094c.127.034.244.069.36.11a15.7 15.7 0 0 1 2.14.908l.426.228a15.248 15.248 0 0 0-2.47-1.08c-.116-.041-.234-.075-.362-.115-2.246-.697-4.72-.914-7.32-.546 2.565-.391 5.001-.192 7.226.495" fill="#fff" fill-rule="evenodd" data-name="Path 658"/><path d="m159.271 5.314.236.052c-1.572-.386-3.29-.328-5.074.233 1.707-.564 3.34-.645 4.838-.285" fill="#fff" fill-rule="evenodd" data-name="Path 659"/><path d="m156.465 4.853.17.018c-.695-.076-1.435.16-2.202.728.703-.567 1.396-.81 2.032-.746" fill="#fff" fill-rule="evenodd" data-name="Path 660"/><path d="M154.189 4.748h.2c.017-.003.034.277.044.851-.07-.574-.14-.854-.244-.851" fill="#fff" fill-rule="evenodd" data-name="Path 661"/><path d="m151.887 4.898.18-.02c.75-.082 1.542.143 2.366.721-.888-.574-1.743-.797-2.546-.701" fill="#fff" fill-rule="evenodd" data-name="Path 662"/><path d="M148.6 5.554c-.09.025-.188.051-.265.077l.27-.074a.731.731 0 0 1 .138-.044c1.762-.51 3.674-.51 5.69.087-2.062-.58-4.035-.564-5.834-.046" fill="#fff" fill-rule="evenodd" data-name="Path 663"/><path d="M146.901 6.238c-.122.031-.24.076-.37.116a16.582 16.582 0 0 0-3.421 1.627l.45-.282a16.538 16.538 0 0 1 3.062-1.4c.123-.04.244-.082.368-.114 2.293-.716 4.804-.94 7.443-.586-2.668-.337-5.21-.092-7.532.639" fill="#fff" fill-rule="evenodd" data-name="Path 664"/><path d="M146.194 7.028c-.136.053-.271.112-.407.166a21.383 21.383 0 0 0-4.97 2.865c-.118.087-.228.178-.34.266a21.263 21.263 0 0 0-3.855 4.116c-.079.116-.152.23-.23.349a19.663 19.663 0 0 0-2.452 5.108 9.94 9.94 0 0 0-.133.42c-.116.396-.216.817-.313 1.226.136-.523.302-1.221.467-1.748 0-.016.01-.023.012-.032a18.984 18.984 0 0 1 2.447-5.1c.082-.113.159-.227.24-.34a20.06 20.06 0 0 1 3.854-4.093c.102-.09.217-.18.33-.26a20.298 20.298 0 0 1 4.956-2.835c.13-.058.274-.11.41-.165a21.586 21.586 0 0 1 8.223-1.372c-2.92-.05-5.704.463-8.239 1.429" fill="#fff" fill-rule="evenodd" data-name="Path 665"/><path d="M146.56 7.873c-.12.06-.25.13-.37.196a23.04 23.04 0 0 0-4.75 3.375c-.108.097-.216.2-.32.297a23.629 23.629 0 0 0-3.677 4.516c-.079.122-.158.235-.23.37a23.15 23.15 0 0 0-2.345 5.353c-.037.144-.084.285-.118.428a21.798 21.798 0 0 0-.748 5.519c0 .126.006.248.006.378.001.143.013.286.029.431.058 1.989.42 3.878 1.018 5.639.048.132.099.26.133.395a19 19 0 0 0 2.595 4.769c.085.107.165.214.245.314a18.81 18.81 0 0 0 2.298 2.415l-.77-.71a18.74 18.74 0 0 1-1.662-1.819c-.08-.11-.164-.214-.245-.316a18.715 18.715 0 0 1-2.6-4.793c-.062-.128-.1-.262-.157-.39a20.195 20.195 0 0 1-1.027-5.656c-.001-.139-.006-.285-.006-.432-.01-.12-.01-.247-.01-.375.01-1.903.259-3.74.745-5.513.037-.14.077-.285.125-.425a22.003 22.003 0 0 1 2.36-5.347c.069-.115.15-.236.22-.37a23.929 23.929 0 0 1 4.034-4.773 22.989 22.989 0 0 1 4.781-3.337c.127-.072.253-.136.396-.202a21.406 21.406 0 0 1 7.923-2.21 21.706 21.706 0 0 0-7.873 2.273" fill="#fff" fill-rule="evenodd" data-name="Path 666"/><path d="M148.069 8.634c-.101.08-.21.163-.311.24a22.979 22.979 0 0 0-3.848 3.838c-.074.108-.16.215-.247.33a27.95 27.95 0 0 0-2.984 4.864c-.063.138-.122.261-.173.398a27.975 27.975 0 0 0-1.906 5.583c-.034.144-.072.291-.093.437a26.705 26.705 0 0 0-.597 5.97c0 .14.005.282.009.427.056 1.983.344 3.835.83 5.536.034.124.074.258.104.387.518 1.668 1.228 3.192 2.097 4.514.062.094.14.194.196.29a14.303 14.303 0 0 0 3.144 3.279c.091.057.179.119.274.19a11.91 11.91 0 0 0 2.925 1.49l-.317-.108a12.509 12.509 0 0 1-2.815-1.456 18.095 18.095 0 0 0-.28-.193 14.216 14.216 0 0 1-3.208-3.298c-.06-.1-.133-.193-.194-.297-.895-1.33-1.618-2.855-2.147-4.524-.028-.137-.077-.263-.107-.385a22.596 22.596 0 0 1-.853-5.546c-.003-.144-.003-.285-.004-.433-.002-.125-.002-.253-.002-.377a26.33 26.33 0 0 1 .612-5.583c.025-.146.06-.29.097-.436a27.476 27.476 0 0 1 1.936-5.569c.06-.132.12-.266.185-.389a26.277 26.277 0 0 1 3.043-4.852c.094-.11.165-.221.257-.334a23.396 23.396 0 0 1 3.923-3.794c.112-.088.219-.164.319-.244 2.002-1.451 4.2-2.488 6.5-2.99-2.26.518-4.41 1.569-6.365 3.035" fill="#fff" fill-rule="evenodd" data-name="Path 667"/><path d="M150.375 9.178c-.06.084-.13.17-.196.267-.882 1.202-1.71 2.603-2.446 4.157-.058.118-.118.237-.165.353-.728 1.567-1.364 3.296-1.902 5.123-.035.133-.078.266-.118.398a44.559 44.559 0 0 0-1.204 5.755c-.037.147-.053.294-.07.443a42.471 42.471 0 0 0-.375 6.449c.037 1.972.214 3.806.512 5.461.038.123.058.244.08.369.331 1.63.78 3.091 1.336 4.341.042.093.076.186.125.273.57 1.225 1.245 2.23 1.99 3.002.054.057.114.124.167.175.78.74 1.616 1.229 2.527 1.456.074.03.137.038.198.056.07.008.135.013.2.03l-.194-.03a1.683 1.683 0 0 0-.163-.024 1.3 1.3 0 0 0-.199-.053c-.947-.235-1.845-.742-2.63-1.48-.064-.06-.121-.108-.186-.17-.781-.786-1.495-1.793-2.087-3.02-.037-.087-.086-.187-.13-.276-.583-1.258-1.048-2.717-1.391-4.341-.017-.122-.05-.249-.07-.38-.32-1.658-.512-3.493-.55-5.472-.003-.144-.003-.279-.003-.43v-.371c0-1.894.14-3.785.391-5.632.028-.158.049-.308.071-.45a42.275 42.275 0 0 1 1.263-5.745c.04-.13.08-.266.126-.4a35.869 35.869 0 0 1 1.983-5.107c.056-.116.114-.235.174-.348.768-1.557 1.619-2.951 2.56-4.148.06-.086.133-.172.203-.266 1.297-1.621 2.735-2.845 4.231-3.544-1.44.707-2.807 1.944-4.058 3.579" fill="#fff" fill-rule="evenodd" data-name="Path 668"/><path d="M153.187 9.45c-.022.09-.045.181-.066.278a63.112 63.112 0 0 0-.757 4.327c-.019.123-.037.242-.053.362a105.974 105.974 0 0 0-.586 5.244 6.752 6.752 0 0 0-.04.416 145.836 145.836 0 0 0-.38 5.816c-.008.159-.013.314-.013.465-.086 1.87-.128 3.769-.135 5.66v.38c0 .147.003.286.003.427.015 1.975.064 3.802.153 5.44.009.123.013.245.02.359.1 1.608.242 3.035.408 4.246.013.091.02.178.035.272.176 1.18.378 2.146.606 2.87.029.048.04.098.052.147.243.687.503 1.127.78 1.296a.18.18 0 0 0 .06.029.355.355 0 0 0 .176.041l-.143-.004h-.006a.687.687 0 0 1-.27-.072c-.328-.172-.625-.613-.897-1.302-.03-.048-.046-.098-.07-.155-.27-.726-.506-1.696-.709-2.876-.02-.084-.033-.174-.048-.265a54.482 54.482 0 0 1-.473-4.252c-.002-.118-.011-.244-.017-.366a96.043 96.043 0 0 1-.187-5.429l-.002-.425v-.377c.005-1.896.056-3.798.146-5.672.012-.154.02-.302.025-.458.101-1.984.247-3.936.441-5.809.008-.14.029-.285.045-.417.191-1.864.415-3.63.683-5.245.014-.121.039-.242.057-.36.272-1.602.566-3.06.884-4.319.019-.098.049-.19.067-.279.45-1.712.948-3.045 1.457-3.844-.44.8-.863 2.136-1.246 3.85" fill="#fff" fill-rule="evenodd" data-name="Path 669"/><path d="M156.188 9.43c.026.09.06.184.087.276a45.461 45.461 0 0 1 1.055 4.318c.021.118.041.238.066.358.317 1.619.585 3.384.813 5.242.016.14.035.272.047.416.222 1.863.397 3.825.515 5.816.004.146.014.291.032.444.097 1.876.15 3.779.147 5.664 0 .127-.004.254-.004.383v.433a71.711 71.711 0 0 1-.248 5.427c-.015.123-.02.243-.027.366-.15 1.611-.342 3.048-.588 4.257-.027.088-.039.183-.055.27-.256 1.183-.552 2.149-.885 2.876-.021.048-.042.108-.063.161-.342.685-.707 1.128-1.109 1.308-.028.007-.054.016-.09.027a.793.793 0 0 1-.213.044l-.174.005c.077-.001.134-.02.21-.042.03-.007.048-.018.08-.03.342-.172.67-.611.972-1.302.023-.048.042-.098.06-.151.293-.728.552-1.7.775-2.88.017-.079.03-.173.054-.262.218-1.22.386-2.643.517-4.255.002-.118.023-.244.033-.364.116-1.636.182-3.455.213-5.428.004-.144.007-.284.007-.423v-.381c0-1.897-.048-3.797-.14-5.673-.01-.15-.013-.3-.021-.456-.1-1.986-.252-3.938-.448-5.81-.016-.137-.028-.284-.04-.413a84.148 84.148 0 0 0-.722-5.244c-.019-.127-.035-.248-.057-.366-.285-1.601-.592-3.06-.928-4.319-.027-.097-.056-.19-.082-.279-.474-1.712-.995-3.045-1.544-3.843.624.794 1.212 2.116 1.755 3.83" fill="#fff" fill-rule="evenodd" data-name="Path 670"/><path d="M159.067 9.089c.08.09.15.175.23.259 1.012 1.193 1.945 2.577 2.79 4.118.055.115.114.233.178.341.836 1.565 1.544 3.273 2.167 5.078.037.135.08.27.126.406a37.698 37.698 0 0 1 1.36 5.727c.03.143.059.294.073.443.274 1.85.412 3.737.408 5.631v.381c-.003.137-.003.285-.005.423-.046 1.98-.261 3.819-.62 5.479-.024.123-.056.25-.086.371-.377 1.642-.898 3.11-1.535 4.367-.046.091-.102.191-.149.285-.662 1.234-1.422 2.254-2.292 3.035-.07.066-.142.12-.199.183-.89.746-1.853 1.265-2.892 1.516l-.093.01-.252.05c.061-.011.103-.018.174-.04 1.002-.23 1.937-.742 2.78-1.492.062-.05.128-.113.194-.162.833-.788 1.568-1.813 2.202-3.038.049-.092.094-.184.142-.275.62-1.26 1.116-2.72 1.477-4.36.039-.124.058-.243.084-.364.35-1.66.55-3.503.59-5.472.003-.152.013-.287.02-.436v-.375c0-1.89-.137-3.786-.398-5.638-.019-.144-.036-.29-.068-.44a38.977 38.977 0 0 0-1.314-5.727c-.038-.145-.084-.285-.122-.42a34.266 34.266 0 0 0-2.075-5.094c-.058-.118-.124-.232-.175-.352-.812-1.54-1.71-2.93-2.684-4.118-.073-.09-.149-.178-.219-.265-1.369-1.617-2.873-2.835-4.45-3.524 1.646.673 3.21 1.88 4.633 3.489" fill="#fff" fill-rule="evenodd" data-name="Path 671"/><path d="M161.223 8.502c.12.076.222.156.338.234a23.004 23.004 0 0 1 4.081 3.749c.098.11.181.221.27.326a25.986 25.986 0 0 1 3.361 5.198 27.407 27.407 0 0 1 2.012 5.544c.026.143.064.286.096.43.405 1.816.616 3.687.615 5.576 0 .133 0 .258-.004.381 0 .142-.005.29-.01.43-.072 1.98-.382 3.844-.916 5.559-.027.128-.068.25-.114.386-.556 1.685-1.313 3.214-2.248 4.553-.08.106-.142.205-.219.297a14.96 14.96 0 0 1-3.364 3.34c-.097.067-.19.133-.293.194a13.4 13.4 0 0 1-2.472 1.319l-.08.032-.216.087a12.663 12.663 0 0 0 2.591-1.363c.098-.06.181-.124.28-.194 1.245-.89 2.355-2.012 3.308-3.31.064-.105.14-.197.212-.296a17.885 17.885 0 0 0 2.207-4.543c.042-.135.08-.265.125-.387.512-1.706.824-3.57.883-5.547.003-.149.016-.29.016-.437.007-.124.007-.25.007-.38a26.017 26.017 0 0 0-.607-5.582 16.562 16.562 0 0 0-.109-.431 27.293 27.293 0 0 0-1.958-5.554c-.071-.131-.127-.266-.197-.39a27.197 27.197 0 0 0-3.11-4.839 7.69 7.69 0 0 0-.264-.314 22.567 22.567 0 0 0-4.014-3.785c-.112-.08-.217-.158-.334-.235-2.043-1.441-4.298-2.472-6.663-2.95 2.411.465 4.705 1.475 6.79 2.902" fill="#fff" fill-rule="evenodd" data-name="Path 672"/><path d="M162.442 7.753c.14.059.27.126.402.193a22.98 22.98 0 0 1 4.814 3.302c.106.097.222.196.33.293a23.722 23.722 0 0 1 3.733 4.46c.071.113.148.246.229.367a22.107 22.107 0 0 1 2.359 5.316c.045.144.083.29.117.425a20.73 20.73 0 0 1 .732 5.508v.381c-.002.147-.009.288-.009.43a19.874 19.874 0 0 1-1.079 5.658c-.044.128-.085.262-.13.39a19.286 19.286 0 0 1-2.657 4.815c-.083.109-.167.213-.252.319-.209.25-.423.503-.635.743l-.73.797c.432-.456.846-.93 1.254-1.425.08-.104.163-.217.237-.318a18.34 18.34 0 0 0 2.648-4.791c.053-.138.087-.263.144-.397.612-1.76.975-3.655 1.055-5.642.003-.149.012-.29.016-.44 0-.122.007-.251.007-.375.004-1.9-.25-3.735-.727-5.515-.037-.14-.07-.277-.117-.422a22.42 22.42 0 0 0-2.355-5.339c-.077-.118-.146-.245-.22-.372a23.464 23.464 0 0 0-3.72-4.48c-.102-.1-.216-.197-.325-.292a22.855 22.855 0 0 0-4.777-3.336 22.94 22.94 0 0 0-.4-.2 21.55 21.55 0 0 0-7.953-2.207c2.839.202 5.543.957 8.01 2.154" fill="#fff" fill-rule="evenodd" data-name="Path 673"/><path d="M162.629 6.924c.134.046.262.1.403.155a20.427 20.427 0 0 1 5.258 3.062 19.533 19.533 0 0 1 3.82 4.069l.235.341c.656.966 1.22 2.006 1.695 3.087l.588 1.51.014.053a20.188 20.188 0 0 0-2.24-4.527 4.884 4.884 0 0 0-.241-.342 20.455 20.455 0 0 0-3.821-4.092c-.118-.093-.23-.178-.333-.263a20.784 20.784 0 0 0-4.957-2.837 3.656 3.656 0 0 0-.402-.16 21.502 21.502 0 0 0-8.215-1.38c2.907-.092 5.68.388 8.196 1.324" fill="#fff" fill-rule="evenodd" data-name="Path 674"/><path d="M176.627 2.02c-3.344-3.156-9.613-2.486-16.683 1.119.793.202 1.565.444 2.321.723 4.863-2.237 8.91-2.607 11.06-.577 1.968 1.863 2.027 5.428.519 9.853-1.936 5.668-6.441 12.737-12.765 19.446-6.254 6.624-12.972 11.487-18.482 13.78-4.411 1.839-8.058 2.028-10.059.138-2.178-2.059-2.018-6.202.017-11.285a25.075 25.075 0 0 1-.788-2.096c-3.086 7.16-3.35 13.35-.046 16.474 3.303 3.11 9.456 2.498 16.408-.977 5.376-2.69 11.23-7.094 16.637-12.82 5.322-5.636 9.333-11.642 11.722-17.096 3.172-7.253 3.473-13.534.14-16.682" fill="#fff" fill-rule="evenodd" data-name="Path 675"/></g></g></g><defs><clipPath id="b"><path d="M0 0h179v51.611H0V0z" data-name="Rectangle 852"/></clipPath><clipPath id="c"><path d="M496.768 43.956c.014-.008.022-.017.01-.017 0 .011-.002.011-.01.017" data-name="Path 609" transform="translate(-496.768 -43.939)"/></clipPath><clipPath id="e"><path d="M538.771 69.692c-.039-.255-.07-.498-.112-.748.01.256.045.508.112.748" data-name="Path 610" transform="translate(-538.659 -68.944)"/></clipPath><clipPath id="g"><path d="M493.204 44.32c.014-.002.016-.004.003-.004 0 0-.003.002-.003.005" data-name="Path 611" transform="translate(-493.204 -44.316)"/></clipPath><clipPath id="i"><path d="M480.383 36.22c.013 0 .005.01-.009.018.009-.006.01-.006.01-.017m6.938-3.622c-.157.344.315.718-.026 1.08-.159-.475-.228-1.303-.89-1.123-.167.038-.064.286-.19.39.191-.126.453.252.33.335-.283.284-.624.212-.955.14-.243-.052-.48-.104-.682-.016-.63.307-1.28.368-1.902.632-.12.052-.163.424-.387.424.085 0-.27.277-.27-.066-.163.263-.44.383-.708.299-.134-.026-.266-.264-.158-.352.17-.182.404-.144.612-.106.199.036.373.073.44-.085.342-.596-.91-.134-1.258-.622-.113-.046-.164-.152-.263-.196-.215.07-.386.004-.557-.062-.137-.053-.273-.107-.432-.09-.488.034-.89.384-1.336.606 0 .036-.034.192-.034.251 0 .034-.058.027-.117.02-.061-.008-.123-.016-.123.022-.185.155-.269.463-.466.55-.284.088-.368.577-.706.427 0 .136-.031.274-.031.388-.14.15-.278.349-.138.5 0 .093.091.253.254.19.174-.12.27-.391.53-.36.126.02.1.155.1.274 0-.073.16-.157.16-.082.165.42.415.64-.072.707 0 .1.044.225.044.273.09.115.155.025.234-.065.085-.097.185-.194.35-.032.156-.207.351-.35.537-.502-.041 0-.161.001-.161-.012-.145-.223.253-.29.253-.59-.061.026-.098-.01-.134-.046-.036-.036-.073-.072-.134-.048 0-.17-.025-.428.087-.456.465-.031.33-.535.643-.729.198-.179.184.238.338.28-.39.126-.602.518-.318.74.148.141.398.085.631.03.301-.073.578-.144.578.206 0 .155-.137.14-.314.124-.173-.015-.385-.03-.547.113 0 .078-.061.238.074.266 0 .039.12.018.166.012-.159.287-.38.128-.623.098 0 .864-.568.653-1.17.882-.174.082-.103-.111-.103-.15-.165-.11-.335.076-.52.076 0-.263-.153-.543 0-.795-.305-.095-.272.197-.444.406 0 .102.086.12.086.196-.159.266-.426.528-.717.494 0 .218-.336.162-.182.4-.57.06-.893.665-1.432.773.3.336.74.86.238 1.15-.132.071-.29.036-.454.002-.197-.043-.401-.085-.575.062-.183.28-.064.638-.064.96 0 .115 0 .305-.128.412-.123.077.081.151.081.287.61.195 1.171.096 1.642-.447 0-.087.307.005.307-.132 0-.246.121-.505.257-.649.16-.313.786-.556 1.12-.131 0-.055-.093-.297-.093-.502.092 0 .244-.028.244.015.302.496.737.718 1.08 1.098v.265c-.152.23-.436.16-.61.316.157.261.418.386.61.263 0-.073-.058-.304.113-.342.042 0 .152.121.152.057 0-.171.026-.385.026-.582 0 .147.272.057.272.294.15-.102.066-.317.066-.367-.45-.316-.805-.62-1.13-1.13 0-.038.162-.166.162-.084.432.158.733.603.902.948.16.323.35.76.647 1.11 0 .056.225.052.225-.001.127-.164-.042-.393-.042-.583 0-.144.114-.132.236-.12.14.014.289.028.289-.194 0 .018-.027-.032-.054-.083-.028-.052-.056-.103-.056-.084 0-.1.13.035.283.066-.326 1.214.893 1.02 1.581 1.277.317.074.02 1.105-.426 1.242.012-.016-.159-.122-.266-.148a.868.868 0 0 0-.352.062c-.15.05-.294.098-.445.032-.423-.19-.853-.653-1.34-.33-.146.063-.194.272-.194.472-.658-.028-1.05-.642-1.584-.954-.147-.064.166-.576.018-.665-.288-.251-.621-.162-.966-.073-.202.052-.408.105-.611.089-.34-.034-.67.21-1 .494-.08.05-.157.01-.228-.03-.068-.037-.132-.075-.193-.035-.678.58-1.112 1.228-1.586 2.002-.157.205-.479.411-.479.633-.125.954-.721 1.802-.422 2.733.165.464.128 1.017.414 1.403.196.342.454.714.742.869.576.309 1.14.124 1.707-.06.404-.132.81-.263 1.227-.218.38.04.28.74.71.649.124-.03.226-.123.37-.066 0 .146-.183.26-.183.402.094 0 .255-.054.255.099 0 .37-.299.682-.13.969.485.88.951 1.815.782 2.786-.156.396-.408.852-.245 1.303.32.947.407 1.942.723 2.877 0 .13.132.337.279.465.28.212-.03.843.253 1.11.182.306.662.17.921.056.84-.526 1.584-.835 1.746-1.678 0-.427.245-.793.712-.711 0-.493-.283-.936-.117-1.37.14-.554.867-.581 1.027-1.063.166-.691.111-1.464-.05-2.186-.15-.691.143-1.498.621-1.94.957-.86 1.745-2.147 1.745-3.416-.218-.017-.425.079-.629.174-.26.122-.514.244-.772.13-.269-.142-.691-.405-.691-.726-.31-1.173-.803-2.08-1.451-3.045 0-.092-.15-.482.032-.41.47.172.671.77.99 1.217.46.628.41 1.455.743 2.135 0 .202.269.346.437.346 1.076-.166 1.657-1.255 2.57-1.946.631-.48-.075-1.218-.5-1.187-.74.025-1.48-.35-1.807-1.01.175.152.307.442.54.442.785 0 1.454.51 2.25.44.09 0 .18.216.278.216.243 0 .43-.192.643-.375.162-.106.359.047.493.23.162.363.31.752.648.937 0-.297.215-.431.368-.627 0 1.262.289 2.464.942 3.476.153.277.477.234.644-.142.342-.717.17-1.504.67-2.118.473-.57.801-1.333 1.582-1.476a21.305 21.305 0 0 0-6.22-11.698.34.34 0 0 1-.183-.033c-.046-.02-.091-.038-.134-.038-.053 0-.102.027-.152.114" data-name="Path 612" transform="translate(-472.439 -32.485)"/></clipPath><clipPath id="k"><path d="M510.484 98.377v-.093c-.168.29-.453.49-.453.914a.81.81 0 0 0-.783.443c0 .192.235.214.235.375.148.464-.381.9-.203 1.245.493.77.999-.615 1.167-1.203 0-.208.05-.448.05-.684 0-.296.302-.536.302-.81 0-.078-.045-.176-.045-.297-.09.03-.18.09-.27.11" data-name="Path 613" transform="translate(-509.243 -98.267)"/></clipPath><clipPath id="m"><path d="M480.56 45.875c.026.013.052.016.079.026a.456.456 0 0 0-.01-.074c-.027-.004-.046-.024-.078-.025.003.03.001.047.01.073" data-name="Path 614" transform="translate(-480.551 -45.802)"/></clipPath><clipPath id="o"><path d="M480.514 43.386c-.325.247-.064.507-.017.808.68.126-.111.898.07 1.211.324.344.644-.259.962-.502.293-.186-.027-.79-.483-.725 0-.231-.021-.466-.021-.687 0-.134-.207-.085-.334-.112-.025.003-.13.007-.177.007m.177-.007c.008 0 .008-.001-.005-.001l.005.001" data-name="Path 615" transform="translate(-480.354 -43.378)"/></clipPath><clipPath id="q"><path d="M478.025 46.117c-.15.185-.035.511-.035.768.409-.174.92-.445.816-1.005a.656.656 0 0 0-.288-.07.546.546 0 0 0-.493.307" data-name="Path 616" transform="translate(-477.948 -45.81)"/></clipPath><clipPath id="s"><path d="M506.954 31.428c0 .24.61.42.785.111.154-.168.177-.491.177-.76 0-.413.611-.274.922-.473.024 0 .023-.152 0-.152 0-.047.006-.089.006-.129-.836.038-1.72.535-1.89 1.403" data-name="Path 617" transform="translate(-506.954 -30.025)"/></clipPath><clipPath id="u"><path d="M451.072 25.285c.402.259.914.586 1.348.393.163.583.474 1.35-.215 1.763-.158.103.033.607.202.93 0 .123.033.266.033.375.344.858 1.132-.001 1.635-.327.13-.054.32-.108.503-.148.132-.029.211-.245.211-.313.51-.398 1.186-.29 1.711-.707.168-.147.512-.08.774-.137 0-.194.328-.178.166-.381 0-.064-.166-.045-.166-.111.187-.203.44-.31.625-.477-.109-.027-.266-.092-.266-.206.338-.243.678-.44 1.078-.396.261 0 .543-.537.25-.725-.156-.101-.432-.13-.612.047l.362.006c-.365.203-.793.207-1.165.207-.097 0-.106-.38-.275-.415-.544-.115-1.018-.095-1.525-.095-.28-.018-.564-.028-.849-.028-1.307 0-2.636.207-3.825.745" data-name="Path 618" transform="translate(-451.072 -24.54)"/></clipPath><clipPath id="w"><path d="M467.645 35.424c.004-.015-.117-.156-.165-.156-.523.073-.352.717.007.834.512.14.878-.359 1.46-.359.201 0 .226-.5 0-.525.004 0-.113.102-.113.173a.637.637 0 0 0-.498-.232c-.246 0-.5.122-.69.265" data-name="Path 619" transform="translate(-467.15 -35.159)"/></clipPath><clipPath id="y"><path d="M438.121 24.513c.06.122.233.301.014.349 0-.111 0-.235-.014-.35m2.44-.575c-.323 0-.79-.069-.637.507-.109-.074-.193-.222-.193-.29-.271-.152-.628-.113-.789.193-.156.353.234.34.234.612 0 .14-.27.132-.418.068-.378-.125-.018-.338-.018-.497 0-.362-.328-.134-.529-.134-.061 0-.092.013-.103.034a.417.417 0 0 0-.12-.242c-.144-.256-.373.106-.579.202 0 .237-.06.548-.358.45.2.409.495.34.805.273.208-.046.423-.092.621.007.026 0 .014.113.014.176.117-.052 4.591-1.095 4.753-1.301-.527.207-1.061.119-1.602.03a5.593 5.593 0 0 0-.891-.095 2.46 2.46 0 0 0-.19.007" data-name="Path 620" transform="translate(-437.051 -23.93)"/></clipPath><clipPath id="A"><path d="M441.285 28.698c-.176.213.177.403.319.593-.396-.043-.827.256-.674.714 0 .106.25.176.403.143.427-.122.404-.891.897-.857.414.058.831.005.994.54-.476 0-.748.185-1.096.487 0 .061-.161-.008-.25-.008.335.678 1.12.612 1.61 1.036 0-.23.16-.414.363-.368-.156-.131-.126-.375-.126-.515 0-.253.414-.235.534-.106.164.22.381.364.577.284.228-.052.172-.275.172-.478-.097-.451-.365-.412-.608-.372-.18.029-.346.058-.417-.114 0-.12.143-.397.023-.445-.293-.296-.694-.508-1.009-.711a1.428 1.428 0 0 0-.757-.218c-.336 0-.68.121-.955.395" data-name="Path 621" transform="translate(-440.898 -28.303)"/></clipPath><clipPath id="C"><path d="M420.325 29.842c-.19.158-.206.632-.399.632-.62 0-1.263-.103-1.886-.25a21.478 21.478 0 0 0-5.979 9.05c.191.51.425 1.008.681 1.514.161.24.046.467.046.686.33 1.074 1.591.988 2.381 1.462 0 .075.126.194.126.284.288.449.87.445 1.025.981.176.673.869 1.327 1.379.882.307.54.365 1.304.044 1.771-.327.428-.698.966-.522 1.526.163.813.409 1.618.722 2.371.322.85 1.197 1.154 1.815 1.753-.157 1.68 0 3.38 0 5.064 0 .91.516 1.764.684 2.76.16 1.1 1.226 1.494 2.1 1.815 0-.67-.756-.787-.756-1.372 0-.323.346-.628.346-.959 0-.262-.364-.506-.364-.827 0-.405.106-.828.439-1.01.379-.227.862-.365 1.034-.848 0-.052-.069-.114-.157-.103 0-.12.098-.197.098-.28.197-.209.53-.179.706-.455.481-.78.582-2.022 1.378-2.495.36-.247 1.07-1.098.421-1.741.172-.905 1.096-1.527.762-2.512-.16-.48-.806-.216-1.12-.594-.195-.21-.406-.446-.632-.5-.174-.036-.35.013-.52.06-.254.072-.493.144-.686-.063-.17-.225.056-.653.056-.898-.168-.749-.892-1.558-1.714-1.386 0-.172.015-.375-.1-.482-.341-.542-.974-.677-1.43-1.065-.138.14-.235.058-.366.058 0-.227-.193-.508-.318-.397-.182.185-.281.43-.483.605 0-.253-.033-.507-.18-.72-.317.308-.687.534-.991.864-.201-.32-.405-.246-.593-.17-.124.05-.242.099-.348.033-.681-.481.049-1.993-1.121-1.854.337-.44.366-.964.541-1.509-.422-.12-1.001-.006-1.155.49 0 .198-.486.049-.638-.288-.172-.474-.624-.99-.308-1.29.308-.369.526-.87.959-1.028.279-.058.62.077.957.077.085-.016.185-.077.185-.249.394.175.717.419 1.072.16.151.324.076.63-.088.883.174.188.304.65.494.418.287-.32.026-1.055.351-1.345.483-.346.76-.834 1.237-1.179 0-.034.067-.019.128-.004.053.013.102.026.102.008.322-.697.836-1.298 1.626-1.335.201-.044.373-.108.373-.423.068.027.122-.013.18-.054.051-.036.107-.072.179-.059.102 0 .167-.242.293-.295.105-.022.29-.09.422.109 0-.203.266-.456-.003-.577-.17-.064-.413-.08-.561-.358 0-.036-.152-.019-.243-.036.2-.216.06-.7.448-.749.148-.021.299-.053.475.222 0 .03.054.026.11.02.061-.006.125-.012.125.03 0 .07.26.18.198.18.448.13.861-.172.706-.717.111.03.175-.055.27-.077-.353-.388-.512-.896-.834-1.342-.294-.392-.805-.292-.962.198 0-.658-.501-.966-.966-.74-.22.153-.138.623-.322.893-.32.413-.932.324-1.109.8-.15.264-.153.756-.285.756-.575-.122.05-.696.05-1.095 0-.154-.31-.218-.31-.175-.458.065-1.024-.212-.868-.74.307-.782 1.156-.688 1.777-1.156.172-.183.459.21.628.37.287.18.482-.363.31-.607 0-.139-.142-.695-.333-.738-.098 0-.245.008-.245-.04-.138-.342-.114-.653-.34-.653a.527.527 0 0 0-.204.054" data-name="Path 622" transform="translate(-412.061 -29.788)"/></clipPath><clipPath id="E"><path d="M411.033 60.916a.43.43 0 0 0 .223.248c.156-.26-.039-.592-.04-.883-.058.214-.117.42-.183.635" data-name="Path 623" transform="translate(-411.033 -60.281)"/></clipPath><clipPath id="G"><path d="M447.204 45.472c-.168.248-.353.374-.548.607.484.592 1.085-.097 1.435-.397 0-.041.005-.173.005-.272-.299 0-.553-.183-.709-.443.012.069-.051.39-.183.505m.183-.505c-.001-.008-.004-.013-.007-.013a.317.317 0 0 1 .007.013" data-name="Path 624" transform="translate(-446.656 -44.954)"/></clipPath><clipPath id="I"><path d="M426.581 65.092c.1.043.186.068.186.23.173-.157.313-.328.533-.425 0 .757.573.432 1.022.883.142.185.362-.096.503-.286-.117.026-.331.118-.331.028-.422-.335-.932-.838-1.365-.838-.206 0-.394.112-.548.408" data-name="Path 625" transform="translate(-426.581 -64.684)"/></clipPath><clipPath id="K"><path d="M433.008 68.7c-.113-.166-.167-.12-.225-.076-.038.029-.077.057-.136.03.347.598 1.237.445 1.575.045.125-.051-.143-.29-.324-.29-.183-.039-.466-.166-.669-.166-.18 0-.297.101-.221.456" data-name="Path 626" transform="translate(-432.647 -68.243)"/></clipPath><clipPath id="M"><path d="M437.88 69.518c-.149.167.265.148.265.318 0-.21.104-.153.194-.096.114.074.204.147.015-.345-.06-.085-.119-.12-.176-.12-.1 0-.198.105-.297.243" data-name="Path 627" transform="translate(-437.848 -69.275)"/></clipPath><clipPath id="O"><path d="M429.976 68.709c-.152.17.215.346.366.283.164-.104.612-.424.303-.526a.524.524 0 0 0-.165-.027c-.214 0-.395.135-.504.27" data-name="Path 628" transform="translate(-429.94 -68.439)"/></clipPath><clipPath id="S"><path d="M496.777 43.939c0 .011 0 .011-.009.017.014-.008.022-.017.01-.017" data-name="Path 629" transform="translate(-496.768 -43.939)"/></clipPath><clipPath id="U"><path d="M538.659 68.945c.01.255.045.508.112.747-.039-.254-.07-.497-.112-.747" data-name="Path 630" transform="translate(-538.659 -68.945)"/></clipPath><clipPath id="W"><path d="M493.207 44.316s-.003.002-.003.005c.014-.003.016-.005.003-.005" data-name="Path 631" transform="translate(-493.204 -44.316)"/></clipPath><clipPath id="Y"><path d="M487.322 32.599c-.158.344.315.718-.027 1.079-.158-.475-.227-1.302-.89-1.122-.167.037-.064.286-.189.39.191-.126.452.252.33.334-.49.492-1.158-.084-1.638.125-.63.306-1.28.367-1.902.632-.119.052-.163.423-.386.423.084 0-.27.277-.27-.065-.164.262-.44.382-.708.298-.134-.025-.266-.263-.159-.35.333-.358.915.13 1.053-.192.341-.596-.91-.135-1.258-.622-.113-.047-.165-.152-.264-.196-.386.126-.63-.19-.989-.153-.487.034-.89.384-1.335.606 0 .036-.035.192-.035.252 0 .069-.239-.033-.239.041-.185.156-.27.464-.466.55-.285.089-.368.578-.706.428 0 .136-.032.273-.032.388-.14.15-.277.348-.137.499 0 .093.091.253.253.191.175-.12.27-.392.53-.361.127.02.1.156.1.275 0-.073.16-.158.16-.082.165.42.415.639-.071.706 0 .1.043.226.043.273.188.239.269-.408.584-.097.157-.207.352-.35.537-.5-.04 0-.16 0-.16-.014-.145-.222.253-.29.253-.59-.123.052-.145-.143-.268-.093 0-.17-.025-.428.087-.456.464-.032.33-.536.642-.73.199-.178.185.238.339.28-.391.127-.603.519-.318.74.338.324 1.208-.387 1.208.237 0 .305-.532-.053-.86.236 0 .078-.061.238.073.267 0 .038.12.018.167.012.008-.006.01-.006.01-.018.012 0 .004.01-.01.018-.16.287-.38.127-.624.097 0 .865-.568.654-1.17.883-.174.082-.102-.111-.102-.15-.165-.11-.335.075-.52.075 0-.262-.153-.542 0-.794-.306-.096-.273.196-.444.405 0 .102.085.121.085.196-.159.267-.425.528-.717.494 0 .219-.336.163-.181.401-.57.06-.893.664-1.432.773.3.336.74.86.238 1.149-.292.159-.711-.204-1.03.064-.183.28-.064.638-.064.96 0 .116 0 .306-.127.413-.123.077.08.15.08.287.61.195 1.172.095 1.643-.447 0-.088.306.005.306-.132 0-.246.122-.505.257-.65.16-.313.786-.556 1.12-.13 0-.056-.093-.297-.093-.502.093 0 .245-.028.245.014.302.497.736.719 1.08 1.099v.265c-.152.23-.437.16-.611.316.158.26.418.386.61.262 0-.073-.058-.303.114-.342.042 0 .152.122.152.057 0-.17.025-.384.025-.581 0 .146.272.057.272.294.151-.102.066-.317.066-.368-.45-.316-.804-.62-1.129-1.13 0-.038.162-.166.162-.083.431.157.732.603.901.947.161.324.351.76.648 1.11 0 .056.225.053.225 0 .126-.164-.042-.393-.042-.583 0-.31.524.1.524-.314 0 .036-.109-.206-.109-.167 0-.1.13.035.282.066-.326 1.213.893 1.02 1.582 1.276.318.075.016 1.117-.434 1.245.048 0-.143-.122-.259-.15-.287-.028-.532.21-.796.094-.424-.19-.854-.653-1.34-.33-.146.062-.195.272-.195.471-.657-.028-1.05-.641-1.583-.953-.147-.064.166-.577.017-.665-.456-.4-1.024.059-1.577.015-.34-.033-.669.21-.999.494-.158.097-.297-.146-.421-.064-.678.58-1.112 1.228-1.587 2.001-.156.205-.479.412-.479.633-.124.954-.72 1.803-.422 2.733.166.465.128 1.018.414 1.403.197.343.454.714.742.87.987.528 1.932-.388 2.935-.279.38.04.279.74.71.65.123-.031.226-.124.37-.066 0 .145-.183.259-.183.402.094 0 .255-.055.255.098 0 .37-.3.683-.13.97.484.88.95 1.814.782 2.785-.156.396-.408.853-.246 1.303.321.947.407 1.943.724 2.878 0 .129.132.337.278.464.28.212-.03.843.253 1.111.183.306.663.17.922.056.84-.526 1.584-.836 1.745-1.68 0-.425.245-.791.713-.71 0-.493-.284-.935-.117-1.37.14-.553.867-.58 1.027-1.062.166-.692.111-1.465-.052-2.186-.15-.692.145-1.498.623-1.94.956-.86 1.744-2.148 1.744-3.416-.495-.04-.94.507-1.4.303-.27-.14-.692-.405-.692-.725-.31-1.174-.802-2.08-1.45-3.046 0-.092-.15-.482.032-.41.47.172.67.771.989 1.217.461.629.411 1.456.744 2.135 0 .203.268.346.436.346 1.076-.166 1.658-1.255 2.57-1.945.632-.48-.074-1.218-.498-1.188-.74.026-1.482-.35-1.808-1.01.174.152.307.442.54.442.785 0 1.453.51 2.25.442.09 0 .179.214.277.214.243 0 .43-.191.644-.374.161-.107.358.046.493.23.162.362.31.751.648.937 0-.297.215-.432.368-.627 0 1.262.289 2.463.941 3.476.153.277.477.233.644-.143.342-.716.171-1.503.671-2.117.473-.57.8-1.333 1.581-1.477a21.303 21.303 0 0 0-6.22-11.697c-.182.031-.328-.205-.468.043" data-name="Path 632" transform="translate(-472.438 -32.484)"/></clipPath><clipPath id="aa"><path d="M510.484 98.377v-.093c-.168.29-.454.49-.454.914a.81.81 0 0 0-.783.443c0 .192.235.214.235.375.149.464-.38.9-.203 1.245.494.77 1-.615 1.167-1.203 0-.208.05-.448.05-.684 0-.296.303-.536.303-.81 0-.078-.046-.176-.046-.297-.09.03-.18.09-.27.11" data-name="Path 633" transform="translate(-509.242 -98.267)"/></clipPath><clipPath id="ac"><path d="M480.63 45.827c-.027-.004-.046-.024-.078-.025.002.03 0 .047.01.073.025.014.05.016.077.026a.453.453 0 0 0-.009-.074" data-name="Path 634" transform="translate(-480.552 -45.802)"/></clipPath><clipPath id="ae"><path d="M480.568 45.405c.324.344.643-.259.961-.502.293-.186-.027-.79-.483-.725 0-.23-.02-.466-.02-.687 0-.136-.214-.083-.34-.113.054 0-.11.009-.171.009-.325.246-.064.506-.018.807.68.126-.11.898.071 1.211" data-name="Path 635" transform="translate(-480.354 -43.378)"/></clipPath><clipPath id="ag"><path d="M478.806 45.88c-.307-.15-.632-.051-.78.237-.15.186-.037.511-.037.768.41-.174.92-.445.817-1.005" data-name="Path 636" transform="translate(-477.948 -45.81)"/></clipPath><clipPath id="ai"><path d="M507.74 31.539c.153-.168.176-.491.176-.76 0-.413.611-.274.922-.473.024 0 .023-.152 0-.152 0-.047.006-.089.006-.129-.836.038-1.72.535-1.89 1.403 0 .24.61.42.785.111" data-name="Path 637" transform="translate(-506.954 -30.025)"/></clipPath><clipPath id="ak"><path d="M457.274 27.114c0-.194.328-.178.167-.381 0-.064-.167-.046-.167-.111.187-.203.44-.311.625-.477-.109-.028-.266-.092-.266-.207.338-.243.678-.439 1.078-.395.262 0 .543-.537.25-.725-.156-.101-.432-.13-.612.047l.362.006c-.365.202-.793.207-1.165.207-.097 0-.105-.38-.275-.416-.544-.113-1.018-.094-1.525-.094-1.57-.103-3.226.063-4.674.717.402.259.914.586 1.348.393.163.583.474 1.35-.215 1.762-.158.104.032.608.202.93 0 .124.033.267.033.376.344.858 1.132-.001 1.635-.327.13-.054.32-.108.503-.149.132-.028.212-.244.212-.312.51-.399 1.185-.29 1.71-.707.168-.148.511-.08.774-.137" data-name="Path 638" transform="translate(-451.072 -24.54)"/></clipPath><clipPath id="am"><path d="M468.946 35.218c.005 0-.112.102-.112.173-.344-.399-.86-.214-1.19.034.019 0-.113-.157-.164-.157-.523.072-.352.717.007.834.512.14.878-.358 1.46-.358.2 0 .226-.5 0-.526" data-name="Path 639" transform="translate(-467.15 -35.159)"/></clipPath><clipPath id="ao"><path d="M438.491 25.296c.117-.052 4.591-1.095 4.753-1.302-.875.346-1.772-.126-2.683-.057-.323 0-.79-.069-.637.507-.109-.074-.193-.222-.193-.29-.27-.152-.628-.114-.789.193-.156.353.234.34.234.611 0 .14-.27.133-.419.068-.377-.124-.017-.337-.017-.496 0-.362-.328-.134-.53-.134-.339 0 .264.392-.075.465 0-.242 0-.548-.148-.673-.143-.256-.372.106-.578.201 0 .238-.06.55-.358.45.334.685.935.034 1.426.281.026 0 .014.113.014.176" data-name="Path 640" transform="translate(-437.051 -23.93)"/></clipPath><clipPath id="aq"><path d="M443.982 29.677c0-.12.144-.397.024-.446-.294-.295-.694-.507-1.01-.71-.497-.314-1.215-.317-1.711.177-.176.213.177.403.319.593-.396-.043-.828.256-.674.714 0 .106.25.176.403.142.427-.121.404-.89.896-.856.415.058.832.005.995.54-.476 0-.749.185-1.097.487 0 .061-.16-.009-.249-.009.335.679 1.119.613 1.61 1.037 0-.23.16-.415.362-.368-.155-.131-.125-.374-.125-.516 0-.251.414-.234.534-.105.164.22.38.363.577.284.228-.052.172-.276.172-.478-.17-.787-.858-.083-1.026-.486" data-name="Path 641" transform="translate(-440.898 -28.303)"/></clipPath><clipPath id="as"><path d="M412.789 41.474c.33 1.074 1.591.988 2.381 1.462 0 .075.126.194.126.284.287.448.87.445 1.025.981.176.673.868 1.327 1.379.882.307.54.364 1.304.043 1.771-.327.428-.697.966-.521 1.526a12.7 12.7 0 0 0 .722 2.371c.322.85 1.197 1.154 1.814 1.753-.157 1.679 0 3.38 0 5.064 0 .91.517 1.765.685 2.76.16 1.099 1.226 1.494 2.1 1.815 0-.67-.757-.787-.757-1.371 0-.324.347-.63.347-.96 0-.262-.365-.506-.365-.827 0-.405.107-.828.44-1.01.379-.227.862-.365 1.034-.848 0-.051-.069-.114-.157-.103 0-.12.097-.197.097-.28.197-.209.53-.179.707-.455.48-.78.582-2.022 1.377-2.495.36-.247 1.07-1.098.422-1.742.172-.904 1.095-1.526.761-2.51-.16-.481-.805-.217-1.12-.595-.194-.21-.405-.446-.631-.5-.434-.089-.884.342-1.207-.004-.169-.225.057-.652.057-.897-.169-.749-.892-1.559-1.714-1.386 0-.173.015-.375-.1-.482-.342-.542-.974-.677-1.431-1.065-.137.139-.235.058-.365.058 0-.227-.193-.508-.319-.397-.18.185-.28.43-.482.605 0-.252-.033-.507-.18-.721-.317.309-.688.536-.991.865-.334-.534-.676.028-.941-.137-.682-.481.048-1.993-1.122-1.855.337-.439.367-.963.542-1.508-.422-.12-1.001-.006-1.155.49 0 .198-.486.049-.638-.288-.173-.474-.624-.99-.308-1.29.307-.369.525-.87.958-1.028.28-.058.62.077.958.077.084-.016.185-.077.185-.249.394.175.717.419 1.072.161.15.323.076.629-.088.882.174.188.303.65.493.417.288-.32.026-1.054.352-1.344.483-.346.76-.834 1.236-1.179 0-.063.23.042.23.004.323-.697.837-1.298 1.627-1.335.2-.044.373-.108.373-.423.13.051.207-.142.358-.113.103 0 .168-.241.293-.295.106-.022.29-.09.423.11 0-.203.265-.457-.003-.578-.17-.064-.414-.08-.561-.358 0-.037-.152-.019-.243-.037.2-.215.06-.7.448-.748.147-.021.298-.053.474.222 0 .065.236-.03.236.05 0 .07.26.18.198.18.448.13.861-.172.706-.716.11.03.175-.056.27-.078-.354-.388-.512-.896-.834-1.342-.294-.392-.805-.291-.962.199 0-.66-.502-.967-.967-.74-.22.151-.137.621-.321.892-.32.413-.932.324-1.11.8-.15.264-.152.756-.284.756-.575-.122.05-.696.05-1.095 0-.154-.31-.218-.31-.175-.458.065-1.025-.212-.868-.74.306-.782 1.156-.689 1.777-1.156.172-.183.458.209.628.37.286.18.481-.363.31-.607 0-.139-.142-.695-.333-.738-.099 0-.245.008-.245-.04-.17-.421-.095-.797-.544-.599-.19.158-.206.632-.399.632-.62 0-1.264-.103-1.886-.25a21.48 21.48 0 0 0-5.979 9.05c.191.51.425 1.008.681 1.513.161.24.046.468.046.687" data-name="Path 642" transform="translate(-412.062 -29.788)"/></clipPath><clipPath id="au"><path d="M411.256 61.164c.155-.26-.04-.592-.04-.883-.059.214-.118.42-.184.635.017.08.118.203.224.248" data-name="Path 643" transform="translate(-411.032 -60.281)"/></clipPath><clipPath id="aw"><path d="M447.38 44.955c.033 0-.028.39-.176.517-.168.249-.353.375-.548.607.484.592 1.085-.097 1.435-.396 0-.041.005-.173.005-.272-.304 0-.561-.19-.716-.456" data-name="Path 644" transform="translate(-446.656 -44.955)"/></clipPath><clipPath id="ay"><path d="M428.825 65.494c-.117.027-.332.118-.332.028-.621-.493-1.43-1.35-1.912-.43.1.044.186.068.186.23.173-.156.313-.329.533-.425 0 .758.573.432 1.022.883.142.185.361-.096.503-.286" data-name="Path 645" transform="translate(-426.581 -64.684)"/></clipPath><clipPath id="aA"><path d="M433.898 68.409c-.346-.073-1.051-.463-.89.29-.186-.27-.21.023-.361-.044.347.597 1.237.444 1.575.044.125-.05-.143-.29-.324-.29" data-name="Path 646" transform="translate(-432.647 -68.243)"/></clipPath><clipPath id="aC"><path d="M437.88 69.518c-.149.167.265.148.265.319 0-.482.546.435.209-.442-.164-.23-.316-.094-.473.123" data-name="Path 647" transform="translate(-437.848 -69.275)"/></clipPath><clipPath id="aE"><path d="M430.645 68.466c-.284-.094-.532.075-.668.243-.153.17.215.346.366.283.164-.104.612-.424.302-.526" data-name="Path 648" transform="translate(-429.94 -68.44)"/></clipPath><clipPath id="R"><path d="M0 0h41.74v34.266H0V0z" data-name="Rectangle 893"/></clipPath><clipPath id="Q"><path d="M0 0h179v51.611H0V0z" data-name="Rectangle 894"/></clipPath><clipPath id="a"><path d="M0 0h179v51.611H0V0Z" data-name="Path 678"/></clipPath><linearGradient x1="-7306.146" y1="2160.09" x2="-7291.438" y2="2160.09" id="d"><stop stop-color="#fff" offset="0"/><stop stop-color="#fefefc" offset=".348"/><stop stop-color="#fdfbf4" offset=".532"/><stop stop-color="#fbf5e7" offset=".678"/><stop stop-color="#f9eed4" offset=".804"/><stop stop-color="#f9edd0" offset=".826"/><stop stop-color="#f9edd0" offset="1"/></linearGradient><linearGradient x1="-1565.897" y1="38.959" x2="-1562.988" y2="38.959" id="f"><stop stop-color="#fff" offset="0"/><stop stop-color="#fefefc" offset=".348"/><stop stop-color="#fdfbf4" offset=".532"/><stop stop-color="#fbf5e7" offset=".678"/><stop stop-color="#f9eed4" offset=".804"/><stop stop-color="#f9edd0" offset=".826"/><stop stop-color="#f9edd0" offset="1"/></linearGradient><linearGradient x1="-10069.352" y1="8167.771" x2="-10048.936" y2="8167.771" id="h"><stop stop-color="#fff" offset="0"/><stop stop-color="#fefefc" offset=".348"/><stop stop-color="#fdfbf4" offset=".532"/><stop stop-color="#fbf5e7" offset=".678"/><stop stop-color="#f9eed4" offset=".804"/><stop stop-color="#f9edd0" offset=".826"/><stop stop-color="#f9edd0" offset="1"/></linearGradient><linearGradient x1="-7.062" y1="1.479" x2="-7.047" y2="1.479" id="j"><stop stop-color="#fff" offset="0"/><stop stop-color="#fefefc" offset=".348"/><stop stop-color="#fdfbf4" offset=".532"/><stop stop-color="#fbf5e7" offset=".678"/><stop stop-color="#f9eed4" offset=".804"/><stop stop-color="#f9edd0" offset=".826"/><stop stop-color="#f9edd0" offset="1"/></linearGradient><linearGradient x1="-97.773" y1="5.194" x2="-97.581" y2="5.194" id="l"><stop stop-color="#fff" offset="0"/><stop stop-color="#fefefc" offset=".348"/><stop stop-color="#fdfbf4" offset=".532"/><stop stop-color="#fbf5e7" offset=".678"/><stop stop-color="#f9eed4" offset=".804"/><stop stop-color="#f9edd0" offset=".826"/><stop stop-color="#f9edd0" offset="1"/></linearGradient><linearGradient x1="-1786.355" y1="369.862" x2="-1782.634" y2="369.862" id="n"><stop stop-color="#fff" offset="0"/><stop stop-color="#fefefc" offset=".348"/><stop stop-color="#fdfbf4" offset=".532"/><stop stop-color="#fbf5e7" offset=".678"/><stop stop-color="#f9eed4" offset=".804"/><stop stop-color="#f9edd0" offset=".826"/><stop stop-color="#f9edd0" offset="1"/></linearGradient><linearGradient x1="-95.836" y1="15.673" x2="-95.637" y2="15.673" id="p"><stop stop-color="#fff" offset="0"/><stop stop-color="#fefefc" offset=".348"/><stop stop-color="#fdfbf4" offset=".532"/><stop stop-color="#fbf5e7" offset=".678"/><stop stop-color="#f9eed4" offset=".804"/><stop stop-color="#f9edd0" offset=".826"/><stop stop-color="#f9edd0" offset="1"/></linearGradient><linearGradient x1="-150.561" y1="34.113" x2="-150.245" y2="34.113" id="r"><stop stop-color="#fff" offset="0"/><stop stop-color="#fefefc" offset=".348"/><stop stop-color="#fdfbf4" offset=".532"/><stop stop-color="#fbf5e7" offset=".678"/><stop stop-color="#f9eed4" offset=".804"/><stop stop-color="#f9edd0" offset=".826"/><stop stop-color="#f9edd0" offset="1"/></linearGradient><linearGradient x1="-86.659" y1="22.928" x2="-86.488" y2="22.928" id="t"><stop stop-color="#fff" offset="0"/><stop stop-color="#fefefc" offset=".348"/><stop stop-color="#fdfbf4" offset=".532"/><stop stop-color="#fbf5e7" offset=".678"/><stop stop-color="#f9eed4" offset=".804"/><stop stop-color="#f9edd0" offset=".826"/><stop stop-color="#f9edd0" offset="1"/></linearGradient><linearGradient x1="-17.981" y1="8.613" x2="-17.941" y2="8.613" id="v"><stop stop-color="#fff" offset="0"/><stop stop-color="#fefefc" offset=".348"/><stop stop-color="#fdfbf4" offset=".532"/><stop stop-color="#fbf5e7" offset=".678"/><stop stop-color="#f9eed4" offset=".804"/><stop stop-color="#f9edd0" offset=".826"/><stop stop-color="#f9edd0" offset="1"/></linearGradient><linearGradient x1="-68.672" y1="37.019" x2="-68.525" y2="37.019" id="x"><stop stop-color="#fff" offset="0"/><stop stop-color="#fefefc" offset=".348"/><stop stop-color="#fdfbf4" offset=".532"/><stop stop-color="#fbf5e7" offset=".678"/><stop stop-color="#f9eed4" offset=".804"/><stop stop-color="#f9edd0" offset=".826"/><stop stop-color="#f9edd0" offset="1"/></linearGradient><linearGradient x1="-23.017" y1="30.714" x2="-22.965" y2="30.714" id="z"><stop stop-color="#fff" offset="0"/><stop stop-color="#fefefc" offset=".348"/><stop stop-color="#fdfbf4" offset=".532"/><stop stop-color="#fbf5e7" offset=".678"/><stop stop-color="#f9eed4" offset=".804"/><stop stop-color="#f9edd0" offset=".826"/><stop stop-color="#f9edd0" offset="1"/></linearGradient><linearGradient x1="-33.515" y1="13.925" x2="-33.439" y2="13.925" id="B"><stop stop-color="#fff" offset="0"/><stop stop-color="#fefefc" offset=".348"/><stop stop-color="#fdfbf4" offset=".532"/><stop stop-color="#fbf5e7" offset=".678"/><stop stop-color="#f9eed4" offset=".804"/><stop stop-color="#f9edd0" offset=".826"/><stop stop-color="#f9edd0" offset="1"/></linearGradient><linearGradient x1="-9.129" y1="1.295" x2="-9.107" y2="1.295" id="D"><stop stop-color="#fff" offset="0"/><stop stop-color="#fefefc" offset=".348"/><stop stop-color="#fdfbf4" offset=".532"/><stop stop-color="#fbf5e7" offset=".678"/><stop stop-color="#f9eed4" offset=".804"/><stop stop-color="#f9edd0" offset=".826"/><stop stop-color="#f9edd0" offset="1"/></linearGradient><linearGradient x1="-353.714" y1="36.22" x2="-352.854" y2="36.22" id="F"><stop stop-color="#fff" offset="0"/><stop stop-color="#fefefc" offset=".348"/><stop stop-color="#fdfbf4" offset=".532"/><stop stop-color="#fbf5e7" offset=".678"/><stop stop-color="#f9eed4" offset=".804"/><stop stop-color="#f9edd0" offset=".826"/><stop stop-color="#f9edd0" offset="1"/></linearGradient><linearGradient x1="-101.145" y1="21.525" x2="-100.919" y2="21.525" id="H"><stop stop-color="#fff" offset="0"/><stop stop-color="#fefefc" offset=".348"/><stop stop-color="#fdfbf4" offset=".532"/><stop stop-color="#fbf5e7" offset=".678"/><stop stop-color="#f9eed4" offset=".804"/><stop stop-color="#f9edd0" offset=".826"/><stop stop-color="#f9edd0" offset="1"/></linearGradient><linearGradient x1="-62.003" y1="23.823" x2="-61.858" y2="23.823" id="J"><stop stop-color="#fff" offset="0"/><stop stop-color="#fefefc" offset=".348"/><stop stop-color="#fdfbf4" offset=".532"/><stop stop-color="#fbf5e7" offset=".678"/><stop stop-color="#f9eed4" offset=".804"/><stop stop-color="#f9edd0" offset=".826"/><stop stop-color="#f9edd0" offset="1"/></linearGradient><linearGradient x1="-83.01" y1="29.115" x2="-82.818" y2="29.115" id="L"><stop stop-color="#fff" offset="0"/><stop stop-color="#fefefc" offset=".348"/><stop stop-color="#fdfbf4" offset=".532"/><stop stop-color="#fbf5e7" offset=".678"/><stop stop-color="#f9eed4" offset=".804"/><stop stop-color="#f9edd0" offset=".826"/><stop stop-color="#f9edd0" offset="1"/></linearGradient><linearGradient x1="-175.84" y1="47.379" x2="-175.438" y2="47.379" id="N"><stop stop-color="#fff" offset="0"/><stop stop-color="#fefefc" offset=".348"/><stop stop-color="#fdfbf4" offset=".532"/><stop stop-color="#fbf5e7" offset=".678"/><stop stop-color="#f9eed4" offset=".804"/><stop stop-color="#f9edd0" offset=".826"/><stop stop-color="#f9edd0" offset="1"/></linearGradient><linearGradient x1="-123.979" y1="47.578" x2="-123.691" y2="47.578" id="P"><stop stop-color="#fff" offset="0"/><stop stop-color="#fefefc" offset=".348"/><stop stop-color="#fdfbf4" offset=".532"/><stop stop-color="#fbf5e7" offset=".678"/><stop stop-color="#f9eed4" offset=".804"/><stop stop-color="#f9edd0" offset=".826"/><stop stop-color="#f9edd0" offset="1"/></linearGradient><linearGradient x1="-7309.427" y1="2156.753" x2="-7294.713" y2="2156.753" id="T"><stop stop-color="#f9edd0" offset="0"/><stop stop-color="#f9edd0" offset=".129"/><stop stop-color="#fbf5e5" offset=".425"/><stop stop-color="#fefcf8" offset=".762"/><stop stop-color="#fff" offset="1"/></linearGradient><linearGradient x1="-1565.897" y1="38.975" x2="-1562.989" y2="38.975" id="V"><stop stop-color="#f9edd0" offset="0"/><stop stop-color="#f9edd0" offset=".129"/><stop stop-color="#fbf5e5" offset=".425"/><stop stop-color="#fefcf8" offset=".762"/><stop stop-color="#fff" offset="1"/></linearGradient><linearGradient x1="-10075.629" y1="7594.478" x2="-10055.199" y2="7594.478" id="X"><stop stop-color="#f9edd0" offset="0"/><stop stop-color="#f9edd0" offset=".129"/><stop stop-color="#fbf5e5" offset=".425"/><stop stop-color="#fefcf8" offset=".762"/><stop stop-color="#fff" offset="1"/></linearGradient><linearGradient x1="-7.062" y1="1.478" x2="-7.047" y2="1.478" id="Z"><stop stop-color="#f9edd0" offset="0"/><stop stop-color="#f9edd0" offset=".129"/><stop stop-color="#fbf5e5" offset=".425"/><stop stop-color="#fefcf8" offset=".762"/><stop stop-color="#fff" offset="1"/></linearGradient><linearGradient x1="-97.754" y1="5.181" x2="-97.562" y2="5.181" id="ab"><stop stop-color="#f9edd0" offset="0"/><stop stop-color="#f9edd0" offset=".129"/><stop stop-color="#fbf5e5" offset=".425"/><stop stop-color="#fefcf8" offset=".762"/><stop stop-color="#fff" offset="1"/></linearGradient><linearGradient x1="-1799.829" y1="369.864" x2="-1796.083" y2="369.864" id="ad"><stop stop-color="#f9edd0" offset="0"/><stop stop-color="#f9edd0" offset=".129"/><stop stop-color="#fbf5e5" offset=".425"/><stop stop-color="#fefcf8" offset=".762"/><stop stop-color="#fff" offset="1"/></linearGradient><linearGradient x1="-95.855" y1="15.649" x2="-95.656" y2="15.649" id="af"><stop stop-color="#f9edd0" offset="0"/><stop stop-color="#f9edd0" offset=".129"/><stop stop-color="#fbf5e5" offset=".425"/><stop stop-color="#fefcf8" offset=".762"/><stop stop-color="#fff" offset="1"/></linearGradient><linearGradient x1="-150.655" y1="31.806" x2="-150.34" y2="31.806" id="ah"><stop stop-color="#f9edd0" offset="0"/><stop stop-color="#f9edd0" offset=".129"/><stop stop-color="#fbf5e5" offset=".425"/><stop stop-color="#fefcf8" offset=".762"/><stop stop-color="#fff" offset="1"/></linearGradient><linearGradient x1="-86.659" y1="22.921" x2="-86.488" y2="22.921" id="aj"><stop stop-color="#f9edd0" offset="0"/><stop stop-color="#f9edd0" offset=".129"/><stop stop-color="#fbf5e5" offset=".425"/><stop stop-color="#fefcf8" offset=".762"/><stop stop-color="#fff" offset="1"/></linearGradient><linearGradient x1="-17.982" y1="8.5" x2="-17.942" y2="8.5" id="al"><stop stop-color="#f9edd0" offset="0"/><stop stop-color="#f9edd0" offset=".129"/><stop stop-color="#fbf5e5" offset=".425"/><stop stop-color="#fefcf8" offset=".762"/><stop stop-color="#fff" offset="1"/></linearGradient><linearGradient x1="-68.672" y1="32.239" x2="-68.525" y2="32.239" id="an"><stop stop-color="#f9edd0" offset="0"/><stop stop-color="#f9edd0" offset=".129"/><stop stop-color="#fbf5e5" offset=".425"/><stop stop-color="#fefcf8" offset=".762"/><stop stop-color="#fff" offset="1"/></linearGradient><linearGradient x1="-23.017" y1="26.489" x2="-22.965" y2="26.489" id="ap"><stop stop-color="#f9edd0" offset="0"/><stop stop-color="#f9edd0" offset=".129"/><stop stop-color="#fbf5e5" offset=".425"/><stop stop-color="#fefcf8" offset=".762"/><stop stop-color="#fff" offset="1"/></linearGradient><linearGradient x1="-33.513" y1="13.52" x2="-33.437" y2="13.52" id="ar"><stop stop-color="#f9edd0" offset="0"/><stop stop-color="#f9edd0" offset=".129"/><stop stop-color="#fbf5e5" offset=".425"/><stop stop-color="#fefcf8" offset=".762"/><stop stop-color="#fff" offset="1"/></linearGradient><linearGradient x1="-9.13" y1="1.294" x2="-9.107" y2="1.294" id="at"><stop stop-color="#f9edd0" offset="0"/><stop stop-color="#f9edd0" offset=".129"/><stop stop-color="#fbf5e5" offset=".425"/><stop stop-color="#fefcf8" offset=".762"/><stop stop-color="#fff" offset="1"/></linearGradient><linearGradient x1="-353.732" y1="36.186" x2="-352.872" y2="36.186" id="av"><stop stop-color="#f9edd0" offset="0"/><stop stop-color="#f9edd0" offset=".129"/><stop stop-color="#fbf5e5" offset=".425"/><stop stop-color="#fefcf8" offset=".762"/><stop stop-color="#fff" offset="1"/></linearGradient><linearGradient x1="-101.145" y1="21.505" x2="-100.919" y2="21.505" id="ax"><stop stop-color="#f9edd0" offset="0"/><stop stop-color="#f9edd0" offset=".129"/><stop stop-color="#fbf5e5" offset=".425"/><stop stop-color="#fefcf8" offset=".762"/><stop stop-color="#fff" offset="1"/></linearGradient><linearGradient x1="-62.003" y1="17.315" x2="-61.858" y2="17.315" id="az"><stop stop-color="#f9edd0" offset="0"/><stop stop-color="#f9edd0" offset=".129"/><stop stop-color="#fbf5e5" offset=".425"/><stop stop-color="#fefcf8" offset=".762"/><stop stop-color="#fff" offset="1"/></linearGradient><linearGradient x1="-83.01" y1="22.717" x2="-82.818" y2="22.717" id="aB"><stop stop-color="#f9edd0" offset="0"/><stop stop-color="#f9edd0" offset=".129"/><stop stop-color="#fbf5e5" offset=".425"/><stop stop-color="#fefcf8" offset=".762"/><stop stop-color="#fff" offset="1"/></linearGradient><linearGradient x1="-148.753" y1="26.227" x2="-148.413" y2="26.227" id="aD"><stop stop-color="#f9edd0" offset="0"/><stop stop-color="#f9edd0" offset=".129"/><stop stop-color="#fbf5e5" offset=".425"/><stop stop-color="#fefcf8" offset=".762"/><stop stop-color="#fff" offset="1"/></linearGradient><linearGradient x1="-123.943" y1="42.987" x2="-123.655" y2="42.987" id="aF"><stop stop-color="#f9edd0" offset="0"/><stop stop-color="#f9edd0" offset=".129"/><stop stop-color="#fbf5e5" offset=".425"/><stop stop-color="#fefcf8" offset=".762"/><stop stop-color="#fff" offset="1"/></linearGradient></defs></svg>