<svg xmlns="http://www.w3.org/2000/svg" width="25.058" height="17.646" viewBox="1870.869 7608 25.058 17.646"><g data-name="CompositeLayer"><path d="M1874.87 7608h17.058a4 4 0 0 1 4 4v9.646a4 4 0 0 1-4 4h-17.059a4 4 0 0 1-4-4V7612a4 4 0 0 1 4-4z" fill="#36495d" fill-rule="evenodd" data-name="Rectangle 196"/><g data-name="Group 521"><path d="M1881.293 7613.04h4.21v7.566h-4.21v-7.566z" fill="#f16522" fill-rule="evenodd" data-name="Rectangle 198"/><path d="M1881.56 7616.823c0-1.535.72-2.902 1.838-3.782a4.811 4.811 0 1 0 0 7.565 4.803 4.803 0 0 1-1.838-3.783" fill="#e41b24" fill-rule="evenodd" data-name="Path 125"/><path d="M1891.183 7616.823a4.811 4.811 0 0 1-7.785 3.782 4.802 4.802 0 0 0 1.838-3.782 4.803 4.803 0 0 0-1.838-3.783 4.811 4.811 0 0 1 7.784 3.783m-.459 2.981v-.155h.063v-.031h-.16v.031h.063v.155h.034Zm.31 0v-.186h-.05l-.055.128-.056-.128h-.05v.186h.035v-.14l.052.121h.036l.053-.122v.141h.034Z" fill="#f89e1c" fill-rule="evenodd" data-name="Path 126"/></g></g></svg>