<svg xmlns="http://www.w3.org/2000/svg" width="25.046" height="17.646" viewBox="1931.762 7608 25.046 17.646"><g data-name="CompositeLayer"><g data-name="Rectangle 509"><path d="M1935.762 7608h17.046a4 4 0 0 1 4 4v9.646a4 4 0 0 1-4 4h-17.046a4 4 0 0 1-4-4V7612a4 4 0 0 1 4-4z" fill="#fff" fill-rule="evenodd"/><path d="M4 0h17.046a4 4 0 0 1 4 4v9.646a4 4 0 0 1-4 4H4a4 4 0 0 1-4-4V4a4 4 0 0 1 4-4z" stroke-linejoin="round" stroke-linecap="round" stroke="#292929" fill="transparent" transform="matrix(.96007 0 0 .94333 1932.262 7608.5)"/></g><path d="M1939.047 7614.308c-.193.229-.503.41-.812.384-.04-.31.112-.639.29-.842.193-.235.532-.403.806-.416.032.323-.094.639-.284.874m.28.445c-.447-.026-.831.255-1.044.255-.216 0-.542-.242-.896-.236-.462.007-.89.268-1.126.684-.483.832-.126 2.064.342 2.74.229.336.503.704.864.69.342-.012.477-.222.89-.222.416 0 .535.223.897.216.374-.006.609-.335.838-.67.261-.38.368-.752.374-.771-.006-.006-.722-.28-.729-1.106-.006-.69.565-1.019.59-1.038-.322-.478-.825-.53-1-.542m2.59-.935v5.027h.78v-1.719h1.08c.987 0 1.68-.677 1.68-1.657s-.68-1.651-1.654-1.651h-1.886Zm.78.658h.9c.677 0 1.064.36 1.064.996 0 .635-.387 1-1.067 1h-.897v-1.996Zm4.186 4.408c.49 0 .945-.249 1.151-.642h.016v.603h.722v-2.502c0-.726-.58-1.193-1.473-1.193-.829 0-1.442.474-1.464 1.125h.703c.058-.31.345-.513.738-.513.477 0 .745.223.745.632v.278l-.974.058c-.906.054-1.396.425-1.396 1.07 0 .651.506 1.084 1.232 1.084Zm.21-.597c-.417 0-.681-.2-.681-.506 0-.316.255-.5.742-.53l.867-.054v.284c0 .47-.4.806-.929.806Zm2.643 1.925c.761 0 1.12-.29 1.432-1.17l1.37-3.844h-.793l-.919 2.97h-.016l-.919-2.97h-.816l1.323 3.66-.071.222c-.12.378-.313.523-.658.523-.061 0-.18-.007-.23-.013v.603c.046.013.24.02.297.02Z" fill-rule="evenodd" data-name="Apple_Pay-Logo.wine"/></g></svg>