<svg xmlns="http://www.w3.org/2000/svg" width="25.058" height="17.646" viewBox="1810 7608 25.058 17.646"><g data-name="CompositeLayer"><path d="M1814 7608h17.058a4 4 0 0 1 4 4v9.646a4 4 0 0 1-4 4H1814a4 4 0 0 1-4-4V7612a4 4 0 0 1 4-4z" fill="#253b80" fill-rule="evenodd" data-name="Rectangle 194"/><g data-name="Group 518"><path d="M1816.017 7615.763c-.074.49-.449.49-.81.49H1815l.145-.915a.114.114 0 0 1 .112-.096h.095c.246 0 .479 0 .599.14.072.085.094.21.066.381Zm-.157-1.278h-1.365a.19.19 0 0 0-.188.16l-.552 3.5a.114.114 0 0 0 .113.132h.651a.19.19 0 0 0 .188-.16l.149-.945a.19.19 0 0 1 .187-.16h.432c.9 0 1.418-.435 1.554-1.297.06-.378.002-.674-.174-.882-.194-.228-.538-.348-.995-.348Z" fill="#fff" fill-rule="evenodd" data-name="Path 114"/><path d="M1819.03 7617.02a.729.729 0 0 1-.738.624c-.19 0-.342-.06-.44-.176a.556.556 0 0 1-.102-.46c.059-.37.36-.629.733-.629.185 0 .336.062.436.178.1.118.139.282.11.463Zm.91-1.273h-.653a.114.114 0 0 0-.113.097l-.029.182-.045-.066c-.142-.205-.457-.274-.772-.274-.723 0-1.34.547-1.46 1.315-.063.383.026.749.243 1.004.2.235.485.333.824.333.582 0 .905-.375.905-.375l-.03.182c-.01.07.043.132.113.132h.589a.19.19 0 0 0 .187-.16l.353-2.238a.113.113 0 0 0-.112-.132Z" fill="#fff" fill-rule="evenodd" data-name="Path 115"/><path d="M1823.422 7615.747h-.657a.19.19 0 0 0-.157.084l-.906 1.334-.384-1.282a.19.19 0 0 0-.182-.136h-.646a.114.114 0 0 0-.108.151l.724 2.123-.68.961c-.054.076 0 .18.092.18h.657a.19.19 0 0 0 .156-.082l2.185-3.154a.114.114 0 0 0-.094-.179Z" fill="#fff" fill-rule="evenodd" data-name="Path 116"/><path d="M1825.755 7615.763c-.075.49-.449.49-.811.49h-.206l.145-.915a.113.113 0 0 1 .112-.096h.095c.246 0 .479 0 .599.14.071.085.093.21.066.381Zm-.158-1.278h-1.365a.19.19 0 0 0-.187.16l-.553 3.5a.114.114 0 0 0 .113.132h.7c.065 0 .121-.048.131-.112l.157-.993a.19.19 0 0 1 .187-.16h.432c.9 0 1.418-.435 1.554-1.297.061-.378.003-.674-.174-.882-.194-.228-.538-.348-.995-.348Z" fill="#fff" fill-rule="evenodd" data-name="Path 117"/><path d="M1828.767 7617.02a.728.728 0 0 1-.738.624c-.19 0-.342-.06-.44-.176a.557.557 0 0 1-.102-.46c.06-.37.36-.629.733-.629.186 0 .336.062.436.178.1.118.14.282.11.463Zm.91-1.273h-.653a.113.113 0 0 0-.112.097l-.029.182-.046-.066c-.141-.205-.457-.274-.772-.274-.722 0-1.339.547-1.459 1.315-.062.383.026.749.243 1.004.2.235.485.333.824.333.582 0 .905-.375.905-.375l-.03.182c-.01.07.043.132.113.132h.589a.19.19 0 0 0 .187-.16l.354-2.238a.114.114 0 0 0-.113-.132Z" fill="#fff" fill-rule="evenodd" data-name="Path 118"/><path d="m1830.448 7614.58-.56 3.566a.114.114 0 0 0 .112.13h.564a.19.19 0 0 0 .187-.16l.553-3.5a.114.114 0 0 0-.113-.131h-.63a.114.114 0 0 0-.113.096Z" fill="#fff" fill-rule="evenodd" data-name="Path 119"/></g></g></svg>