<svg xmlns="http://www.w3.org/2000/svg" width="21.945" height="17.83" viewBox="1164.84 7671.232 21.945 17.83"><path d="M1186.16 7671.628c-.638.408-2.102 1.002-2.824 1.002a4.527 4.527 0 0 0-7.685 4.138c-3.391-.088-7.1-1.788-9.333-4.697-1.373 2.376-.185 5.019 1.373 5.982-.533.04-1.515-.062-1.977-.513-.03 1.577.727 3.667 3.492 4.425-.532.287-1.475.204-1.885.143.144 1.332 2.009 3.072 4.047 3.072-.726.84-3.46 2.365-6.528 1.88a13.603 13.603 0 0 0 7.082 2.002c7.304 0 12.976-5.92 12.67-13.222l-.001-.025.002-.057c0-.023-.002-.044-.003-.066a7.81 7.81 0 0 0 2.195-2.318c-.37.204-1.479.612-2.51.713.661-.358 1.643-1.528 1.885-2.46" fill="#fff" fill-rule="evenodd" data-name="Fill-1"/></svg>