<svg xmlns="http://www.w3.org/2000/svg" width="25.058" height="17.646" viewBox="1840.436 7608 25.058 17.646"><g data-name="CompositeLayer"><path d="M1844.436 7608h17.058a4 4 0 0 1 4 4v9.646a4 4 0 0 1-4 4h-17.058a4 4 0 0 1-4-4V7612a4 4 0 0 1 4-4z" fill="#0066b2" fill-rule="evenodd" data-name="Rectangle 195"/><g data-name="Group 520"><g data-name="Group 519"><path d="M1851.9 7619.588h-1.304l.815-5.014h1.306l-.816 5.014Z" fill="#fff" fill-rule="evenodd" data-name="Path 120"/><path d="m1849.498 7614.574-1.245 3.448-.147-.742-.439-2.254s-.053-.452-.619-.452h-2.057l-.024.085s.63.13 1.365.573l1.134 4.355h1.36l2.077-5.013h-1.405Z" fill="#fff" fill-rule="evenodd" data-name="Path 121"/><path d="M1859.764 7619.587h1.198l-1.045-5.013h-1.05c-.484 0-.602.374-.602.374l-1.946 4.64h1.36l.272-.745h1.66l.153.744Zm-1.436-1.773.685-1.876.386 1.876h-1.071Z" fill="#fff" fill-rule="evenodd" data-name="Path 122"/><path d="m1856.42 7615.78.187-1.077s-.575-.218-1.174-.218c-.647 0-2.186.283-2.186 1.66 0 1.295 1.806 1.31 1.806 1.99 0 .68-1.62.559-2.154.13l-.194 1.126s.583.283 1.473.283c.891 0 2.235-.462 2.235-1.717 0-1.303-1.822-1.424-1.822-1.99 0-.568 1.271-.495 1.83-.187Z" fill="#fff" fill-rule="evenodd" data-name="Path 123"/></g><path d="m1848.106 7617.28-.439-2.254s-.053-.452-.619-.452h-2.057l-.024.085s.989.205 1.937.973a3.909 3.909 0 0 1 1.202 1.648Z" fill="#f9a533" fill-rule="evenodd" data-name="Path 124"/></g></g></svg>