<svg xmlns="http://www.w3.org/2000/svg" width="26.967" height="19" viewBox="1116.664 7671.232 26.967 19"><path d="M1143.068 7674.199a3.388 3.388 0 0 0-2.384-2.4c-2.103-.567-10.536-.567-10.536-.567s-8.433 0-10.536.567a3.388 3.388 0 0 0-2.385 2.4c-.563 2.116-.563 6.533-.563 6.533s0 4.416.563 6.533a3.388 3.388 0 0 0 2.385 2.4c2.103.567 10.536.567 10.536.567s8.433 0 10.536-.567a3.388 3.388 0 0 0 2.384-2.4c.563-2.117.563-6.533.563-6.533s0-4.417-.563-6.533Zm-15.678 10.543v-8.02l7.048 4.01-7.048 4.01Z" fill="#fff" fill-rule="evenodd" data-name="Path 597"/></svg>