<?xml version="1.0" encoding="utf-8"?>
<!-- Generator: Adobe Illustrator 27.5.0, SVG Export Plug-In . SVG Version: 6.00 Build 0)  -->
<svg version="1.1" id="_x3C_Layer_x3E_" xmlns="http://www.w3.org/2000/svg" xmlns:xlink="http://www.w3.org/1999/xlink" x="0px"
	 y="0px" viewBox="0 0 64 64" style="enable-background:new 0 0 64 64;" xml:space="preserve">
<style type="text/css">
	.st0{fill:url(#SVGID_1_);}
	.st1{opacity:0.75;fill:url(#SVGID_00000034076948479976328780000017587143237830990749_);}
	.st2{fill:url(#SVGID_00000113333908621474392700000016827730030335495588_);}
	.st3{fill:url(#SVGID_00000019648220699315221990000009008850735563022469_);}
	.st4{fill:url(#SVGID_00000062898014461824726090000005839166505948419741_);}
	.st5{fill:url(#SVGID_00000042722294144268924050000004011977768014703544_);}
	.st6{fill:url(#SVGID_00000149354847454127802820000013860980959112146851_);}
	.st7{fill:url(#SVGID_00000150804896985154055290000012358144573538922420_);}
	.st8{fill:url(#SVGID_00000093862330423272295850000013714090914031016320_);}
	.st9{fill:url(#SVGID_00000010285478350455730620000002625957761543167133_);}
	.st10{fill:url(#SVGID_00000167389225187107484650000008047395396658680971_);}
	.st11{fill:url(#SVGID_00000137117681458944316190000014428117182940557457_);}
	.st12{fill:url(#SVGID_00000084488691813382577210000004356578123025672368_);}
	.st13{fill:url(#SVGID_00000122002432332069629040000017415297256893516438_);}
	.st14{fill:url(#SVGID_00000003785761054351322340000001914194637681694597_);}
	.st15{fill:url(#SVGID_00000078731687759247746480000012356071800323204252_);}
	.st16{fill:url(#SVGID_00000090999497539435677350000013220177276754419631_);}
	.st17{fill:url(#SVGID_00000024709415339109324810000011030247840143744416_);}
	.st18{fill:url(#SVGID_00000055703755739313724560000007012659250787093143_);}
	.st19{fill:url(#SVGID_00000166635942670320512970000001101683307892921729_);}
	.st20{fill:url(#SVGID_00000089547523282084060490000016980495744332403589_);}
	.st21{fill:url(#SVGID_00000119119237935929129510000017800445671170423992_);}
	.st22{opacity:0.43;}
	.st23{fill:url(#SVGID_00000137101799907178180590000004693909045456663990_);}
	.st24{fill:url(#SVGID_00000084515923881851589980000000666506631381267342_);}
	.st25{fill:url(#SVGID_00000150079921510361491100000005972263468828773770_);}
	.st26{fill:url(#SVGID_00000080904923931329682200000006120623919163857329_);}
	.st27{fill:url(#SVGID_00000178183079287324266010000004137464141067610791_);}
	.st28{fill:url(#SVGID_00000008857081429770161250000004579347034910932126_);}
	.st29{fill:url(#SVGID_00000126301384017443906010000015571686995661500555_);}
	.st30{fill:url(#SVGID_00000073702720608435590700000016488951594590234251_);}
	.st31{fill:url(#SVGID_00000092424176028420716050000015796978619367642241_);}
	.st32{fill:url(#SVGID_00000000181662707594975640000012466252484316618124_);}
	.st33{fill:url(#SVGID_00000152968274732812814130000015893088729532077750_);}
	.st34{fill:url(#SVGID_00000118383224279564578820000017413672051002733450_);}
	.st35{fill:url(#SVGID_00000021809203211343526760000017422441915756755102_);}
	.st36{fill:url(#SVGID_00000139986722338739334320000011263578898686352042_);}
	.st37{fill:url(#SVGID_00000132061824948365991380000009710841177286549142_);}
	.st38{fill:url(#SVGID_00000038401914712135617730000009183091561551991231_);}
	.st39{fill:url(#SVGID_00000055674805505721588920000001571897487390232988_);}
	.st40{fill:url(#SVGID_00000120525552945638042630000015343011505222854807_);}
	.st41{fill:url(#SVGID_00000014602530328018527140000014905781269794324619_);}
	.st42{fill:url(#SVGID_00000097466028255156771500000003380975776191437238_);}
	.st43{fill:#FFFFFF;}
	.st44{fill:#E75222;}
</style>
<g>
	<linearGradient id="SVGID_1_" gradientUnits="userSpaceOnUse" x1="10.0828" y1="32.2947" x2="54.4884" y2="32.2947">
		<stop  offset="5.076140e-03" style="stop-color:#E75222"/>
		<stop  offset="7.529968e-02" style="stop-color:#E96531"/>
		<stop  offset="0.2176" style="stop-color:#EE925D"/>
		<stop  offset="0.4172" style="stop-color:#F5D1AD"/>
		<stop  offset="0.5228" style="stop-color:#F7F2DB"/>
		<stop  offset="0.5354" style="stop-color:#F6EDD5"/>
		<stop  offset="0.7039" style="stop-color:#F2B284"/>
		<stop  offset="0.8427" style="stop-color:#EC814B"/>
		<stop  offset="0.9452" style="stop-color:#E8602C"/>
		<stop  offset="1" style="stop-color:#E75222"/>
	</linearGradient>
	<path class="st0" d="M54.5,32.3c0,12.3-9.9,22.2-22.2,22.2c-12.3,0-22.2-9.9-22.2-22.2c0-12.3,9.9-22.2,22.2-22.2
		C44.5,10.1,54.5,20,54.5,32.3z"/>
	
		<linearGradient id="SVGID_00000132769307285304097730000009951633412448117151_" gradientUnits="userSpaceOnUse" x1="32.2856" y1="54.4977" x2="32.2856" y2="10.0918">
		<stop  offset="1.015230e-02" style="stop-color:#F7F2DB"/>
		<stop  offset="6.885069e-02" style="stop-color:#F6DAB9"/>
		<stop  offset="0.1423" style="stop-color:#F5C095"/>
		<stop  offset="0.2235" style="stop-color:#F3A777"/>
		<stop  offset="0.3127" style="stop-color:#F19360"/>
		<stop  offset="0.4133" style="stop-color:#EF824E"/>
		<stop  offset="0.5318" style="stop-color:#EE7642"/>
		<stop  offset="0.6852" style="stop-color:#ED6F3C"/>
		<stop  offset="1" style="stop-color:#ED6D3A"/>
	</linearGradient>
	<path style="opacity:0.75;fill:url(#SVGID_00000132769307285304097730000009951633412448117151_);" d="M54.5,32.3
		c0,12.3-9.9,22.2-22.2,22.2c-12.3,0-22.2-9.9-22.2-22.2c0-12.3,9.9-22.2,22.2-22.2C44.5,10.1,54.5,20,54.5,32.3z"/>
	<g>
		
			<linearGradient id="SVGID_00000045583036611558867260000016424564063078175896_" gradientUnits="userSpaceOnUse" x1="40.1679" y1="20.0789" x2="40.1679" y2="20.0968">
			<stop  offset="0" style="stop-color:#FFFFFF"/>
			<stop  offset="0.3695" style="stop-color:#FFFEFD"/>
			<stop  offset="0.5657" style="stop-color:#FDFBF5"/>
			<stop  offset="0.7206" style="stop-color:#FBF6E7"/>
			<stop  offset="0.8258" style="stop-color:#F8F1D9"/>
		</linearGradient>
		<path style="fill:url(#SVGID_00000045583036611558867260000016424564063078175896_);" d="M40.2,20.1
			C40.2,20.1,40.2,20.1,40.2,20.1C40.2,20.1,40.2,20.1,40.2,20.1z"/>
		
			<linearGradient id="SVGID_00000078726881661065394820000002888529318019891086_" gradientUnits="userSpaceOnUse" x1="54.4133" y1="28.5524" x2="54.4133" y2="29.3287">
			<stop  offset="0" style="stop-color:#FFFFFF"/>
			<stop  offset="0.3695" style="stop-color:#FFFEFD"/>
			<stop  offset="0.5657" style="stop-color:#FDFBF5"/>
			<stop  offset="0.7206" style="stop-color:#FBF6E7"/>
			<stop  offset="0.8258" style="stop-color:#F8F1D9"/>
		</linearGradient>
		<path style="fill:url(#SVGID_00000078726881661065394820000002888529318019891086_);" d="M54.4,28.6c0,0.3,0,0.5,0.1,0.8
			C54.4,29.1,54.4,28.8,54.4,28.6z"/>
		
			<linearGradient id="SVGID_00000176017432535076603000000012307546325667442854_" gradientUnits="userSpaceOnUse" x1="38.9582" y1="20.2066" x2="38.9582" y2="20.2116">
			<stop  offset="0" style="stop-color:#FFFFFF"/>
			<stop  offset="0.3695" style="stop-color:#FFFEFD"/>
			<stop  offset="0.5657" style="stop-color:#FDFBF5"/>
			<stop  offset="0.7206" style="stop-color:#FBF6E7"/>
			<stop  offset="0.8258" style="stop-color:#F8F1D9"/>
		</linearGradient>
		<path style="fill:url(#SVGID_00000176017432535076603000000012307546325667442854_);" d="M39,20.2C39,20.2,39,20.2,39,20.2
			C39,20.2,39,20.2,39,20.2z"/>
		
			<linearGradient id="SVGID_00000052073998572942666810000001693569886364037523_" gradientUnits="userSpaceOnUse" x1="43.1214" y1="16.1974" x2="43.1214" y2="44.8547">
			<stop  offset="0" style="stop-color:#FFFFFF"/>
			<stop  offset="0.3695" style="stop-color:#FFFEFD"/>
			<stop  offset="0.5657" style="stop-color:#FDFBF5"/>
			<stop  offset="0.7206" style="stop-color:#FBF6E7"/>
			<stop  offset="0.8258" style="stop-color:#F8F1D9"/>
		</linearGradient>
		<path style="fill:url(#SVGID_00000052073998572942666810000001693569886364037523_);" d="M47.4,16.3c-0.2,0.4,0.3,0.7,0,1.1
			c-0.2-0.5-0.2-1.4-0.9-1.2c-0.2,0-0.1,0.3-0.2,0.4c0.2-0.1,0.5,0.3,0.3,0.3c-0.5,0.5-1.2-0.1-1.7,0.1c-0.7,0.3-1.3,0.4-2,0.7
			c-0.1,0.1-0.2,0.4-0.4,0.4c0.1,0-0.3,0.3-0.3-0.1c-0.2,0.3-0.5,0.4-0.7,0.3c-0.1,0-0.3-0.3-0.2-0.4c0.3-0.4,1,0.1,1.1-0.2
			c0.4-0.6-0.9-0.1-1.3-0.6c-0.1,0-0.2-0.2-0.3-0.2c-0.4,0.1-0.7-0.2-1-0.2c-0.5,0-0.9,0.4-1.4,0.6c0,0,0,0.2,0,0.3
			c0,0.1-0.2,0-0.2,0c-0.2,0.2-0.3,0.5-0.5,0.6c-0.3,0.1-0.4,0.6-0.7,0.4c0,0.1,0,0.3,0,0.4c-0.1,0.2-0.3,0.4-0.1,0.5
			c0,0.1,0.1,0.3,0.3,0.2c0.2-0.1,0.3-0.4,0.6-0.4c0.1,0,0.1,0.2,0.1,0.3c0-0.1,0.2-0.2,0.2-0.1c0.2,0.4,0.4,0.7-0.1,0.7
			c0,0.1,0,0.2,0,0.3c0.2,0.2,0.3-0.4,0.6-0.1c0.2-0.2,0.4-0.4,0.6-0.5c0,0-0.2,0-0.2,0C38.6,20,39,19.9,39,19.6
			c-0.1,0.1-0.2-0.1-0.3-0.1c0-0.2,0-0.4,0.1-0.5c0.5,0,0.3-0.6,0.7-0.8c0.2-0.2,0.2,0.2,0.4,0.3c-0.4,0.1-0.6,0.5-0.3,0.8
			c0.4,0.3,1.3-0.4,1.3,0.2c0,0.3-0.6-0.1-0.9,0.2c0,0.1-0.1,0.2,0.1,0.3c0,0,0.1,0,0.2,0c0,0,0,0,0,0c0,0,0,0,0,0
			c-0.2,0.3-0.4,0.1-0.6,0.1c0,0.9-0.6,0.7-1.2,0.9c-0.2,0.1-0.1-0.1-0.1-0.2C38,20.8,37.8,21,37.7,21c0-0.3-0.2-0.6,0-0.8
			c-0.3-0.1-0.3,0.2-0.5,0.4c0,0.1,0.1,0.1,0.1,0.2c-0.2,0.3-0.4,0.5-0.7,0.5c0,0.2-0.3,0.2-0.2,0.4c-0.6,0.1-0.9,0.7-1.5,0.8
			c0.3,0.3,0.8,0.9,0.2,1.2c-0.3,0.2-0.7-0.2-1.1,0.1c-0.2,0.3-0.1,0.7-0.1,1c0,0.1,0,0.3-0.1,0.4c-0.1,0.1,0.1,0.2,0.1,0.3
			c0.6,0.2,1.2,0.1,1.7-0.5c0-0.1,0.3,0,0.3-0.1c0-0.3,0.1-0.5,0.3-0.7c0.2-0.3,0.8-0.6,1.2-0.1c0-0.1-0.1-0.3-0.1-0.5
			c0.1,0,0.3,0,0.3,0c0.3,0.5,0.8,0.7,1.1,1.1c0,0.1,0,0.2,0,0.3c-0.2,0.2-0.5,0.2-0.6,0.3c0.2,0.3,0.4,0.4,0.6,0.3
			c0-0.1-0.1-0.3,0.1-0.4c0,0,0.2,0.1,0.2,0.1c0-0.2,0-0.4,0-0.6c0,0.2,0.3,0.1,0.3,0.3c0.2-0.1,0.1-0.3,0.1-0.4
			c-0.5-0.3-0.8-0.6-1.2-1.2c0,0,0.2-0.2,0.2-0.1c0.4,0.2,0.8,0.6,0.9,1c0.2,0.3,0.4,0.8,0.7,1.2c0,0.1,0.2,0.1,0.2,0
			c0.1-0.2,0-0.4,0-0.6c0-0.3,0.5,0.1,0.5-0.3c0,0-0.1-0.2-0.1-0.2c0-0.1,0.1,0,0.3,0.1c-0.3,1.3,0.9,1.1,1.6,1.3
			c0.3,0.1,0,1.2-0.5,1.3c0.1,0-0.1-0.1-0.3-0.2c-0.3,0-0.6,0.2-0.8,0.1c-0.4-0.2-0.9-0.7-1.4-0.3c-0.2,0.1-0.2,0.3-0.2,0.5
			c-0.7,0-1.1-0.7-1.6-1c-0.2-0.1,0.2-0.6,0-0.7c-0.5-0.4-1.1,0.1-1.6,0c-0.4,0-0.7,0.2-1,0.5c-0.2,0.1-0.3-0.2-0.4-0.1
			c-0.7,0.6-1.2,1.3-1.6,2.1c-0.2,0.2-0.5,0.4-0.5,0.7c-0.1,1-0.7,1.9-0.4,2.8c0.2,0.5,0.1,1.1,0.4,1.5c0.2,0.4,0.5,0.7,0.8,0.9
			c1,0.5,2-0.4,3-0.3c0.4,0,0.3,0.8,0.7,0.7c0.1,0,0.2-0.1,0.4-0.1c0,0.2-0.2,0.3-0.2,0.4c0.1,0,0.3-0.1,0.3,0.1
			c0,0.4-0.3,0.7-0.1,1c0.5,0.9,1,1.9,0.8,2.9c-0.2,0.4-0.4,0.9-0.3,1.4c0.3,1,0.4,2,0.8,3c0,0.1,0.1,0.4,0.3,0.5
			c0.3,0.2,0,0.9,0.3,1.2c0.2,0.3,0.7,0.2,1,0.1c0.9-0.5,1.6-0.9,1.8-1.7c0-0.4,0.3-0.8,0.7-0.7c0-0.5-0.3-1-0.1-1.4
			c0.1-0.6,0.9-0.6,1.1-1.1c0.2-0.7,0.1-1.5-0.1-2.3c-0.2-0.7,0.1-1.6,0.6-2c1-0.9,1.8-2.2,1.8-3.5c-0.5,0-1,0.5-1.5,0.3
			c-0.3-0.1-0.7-0.4-0.7-0.8c-0.3-1.2-0.8-2.2-1.5-3.2c0-0.1-0.2-0.5,0-0.4c0.5,0.2,0.7,0.8,1,1.3c0.5,0.7,0.4,1.5,0.8,2.2
			c0,0.2,0.3,0.4,0.5,0.4c1.1-0.2,1.7-1.3,2.7-2c0.7-0.5-0.1-1.3-0.5-1.2c-0.8,0-1.5-0.4-1.9-1c0.2,0.2,0.3,0.5,0.6,0.5
			c0.8,0,1.5,0.5,2.3,0.5c0.1,0,0.2,0.2,0.3,0.2c0.3,0,0.4-0.2,0.7-0.4c0.2-0.1,0.4,0,0.5,0.2c0.2,0.4,0.3,0.8,0.7,1
			c0-0.3,0.2-0.4,0.4-0.7c0,1.3,0.3,2.6,1,3.6c0.2,0.3,0.5,0.2,0.7-0.1c0.4-0.7,0.2-1.6,0.7-2.2c0.5-0.6,0.8-1.4,1.6-1.5
			c-0.8-4.7-3.1-9-6.5-12.2C47.7,16.3,47.5,16.1,47.4,16.3z"/>
		
			<linearGradient id="SVGID_00000177458491642024033820000002627912992309641886_" gradientUnits="userSpaceOnUse" x1="45.1954" y1="38.4886" x2="45.1954" y2="41.8351">
			<stop  offset="0" style="stop-color:#FFFFFF"/>
			<stop  offset="0.3695" style="stop-color:#FFFEFD"/>
			<stop  offset="0.5657" style="stop-color:#FDFBF5"/>
			<stop  offset="0.7206" style="stop-color:#FBF6E7"/>
			<stop  offset="0.8258" style="stop-color:#F8F1D9"/>
		</linearGradient>
		<path style="fill:url(#SVGID_00000177458491642024033820000002627912992309641886_);" d="M45.7,38.6
			C45.7,38.6,45.7,38.5,45.7,38.6c-0.2,0.2-0.5,0.4-0.5,0.9c-0.3,0-0.7,0.1-0.8,0.5c0,0.2,0.2,0.2,0.2,0.4c0.2,0.5-0.4,0.9-0.2,1.3
			c0.5,0.8,1-0.6,1.2-1.2c0-0.2,0.1-0.5,0.1-0.7c0-0.3,0.3-0.6,0.3-0.8c0-0.1,0-0.2,0-0.3C45.9,38.5,45.8,38.6,45.7,38.6z"/>
		
			<linearGradient id="SVGID_00000101061282023569602360000006884535155137755833_" gradientUnits="userSpaceOnUse" x1="34.7101" y1="20.7103" x2="34.7101" y2="20.8132">
			<stop  offset="0" style="stop-color:#FFFFFF"/>
			<stop  offset="0.3695" style="stop-color:#FFFEFD"/>
			<stop  offset="0.5657" style="stop-color:#FDFBF5"/>
			<stop  offset="0.7206" style="stop-color:#FBF6E7"/>
			<stop  offset="0.8258" style="stop-color:#F8F1D9"/>
		</linearGradient>
		<path style="fill:url(#SVGID_00000101061282023569602360000006884535155137755833_);" d="M34.7,20.7
			C34.7,20.7,34.7,20.7,34.7,20.7C34.7,20.7,34.7,20.8,34.7,20.7C34.7,20.8,34.7,20.8,34.7,20.7C34.8,20.8,34.8,20.8,34.7,20.7z"/>
		
			<linearGradient id="SVGID_00000047061066024090201210000009944205926150629043_" gradientUnits="userSpaceOnUse" x1="35.2668" y1="19.8889" x2="35.2668" y2="22.1024">
			<stop  offset="0" style="stop-color:#FFFFFF"/>
			<stop  offset="0.3695" style="stop-color:#FFFEFD"/>
			<stop  offset="0.5657" style="stop-color:#FDFBF5"/>
			<stop  offset="0.7206" style="stop-color:#FBF6E7"/>
			<stop  offset="0.8258" style="stop-color:#F8F1D9"/>
		</linearGradient>
		<path style="fill:url(#SVGID_00000047061066024090201210000009944205926150629043_);" d="M34.8,22c0.3,0.4,0.7-0.3,1-0.5
			c0.3-0.2,0-0.8-0.5-0.8c0-0.2,0-0.5,0-0.7c0-0.1-0.2-0.1-0.4-0.1c0.1,0-0.1,0-0.2,0c-0.3,0.3-0.1,0.5,0,0.8
			C35.5,20.9,34.6,21.7,34.8,22z"/>
		
			<linearGradient id="SVGID_00000147215558149414631680000013601855440025004454_" gradientUnits="userSpaceOnUse" x1="34.2354" y1="20.7129" x2="34.2354" y2="21.8298">
			<stop  offset="0" style="stop-color:#FFFFFF"/>
			<stop  offset="0.3695" style="stop-color:#FFFEFD"/>
			<stop  offset="0.5657" style="stop-color:#FDFBF5"/>
			<stop  offset="0.7206" style="stop-color:#FBF6E7"/>
			<stop  offset="0.8258" style="stop-color:#F8F1D9"/>
		</linearGradient>
		<path style="fill:url(#SVGID_00000147215558149414631680000013601855440025004454_);" d="M34.7,20.8c-0.3-0.2-0.7-0.1-0.8,0.2
			c-0.2,0.2,0,0.5,0,0.8C34.3,21.6,34.8,21.4,34.7,20.8z"/>
		
			<linearGradient id="SVGID_00000135662735141502532710000003781049705611187611_" gradientUnits="userSpaceOnUse" x1="44.5992" y1="15.364" x2="44.5992" y2="17.1078">
			<stop  offset="0" style="stop-color:#FFFFFF"/>
			<stop  offset="0.3695" style="stop-color:#FFFEFD"/>
			<stop  offset="0.5657" style="stop-color:#FDFBF5"/>
			<stop  offset="0.7206" style="stop-color:#FBF6E7"/>
			<stop  offset="0.8258" style="stop-color:#F8F1D9"/>
		</linearGradient>
		<path style="fill:url(#SVGID_00000135662735141502532710000003781049705611187611_);" d="M44.4,16.9c0.2-0.2,0.2-0.5,0.2-0.8
			c0-0.4,0.6-0.3,1-0.5c0,0,0-0.2,0-0.2c0,0,0-0.1,0-0.1c-0.9,0-1.8,0.6-2,1.5C43.6,17.1,44.2,17.3,44.4,16.9z"/>
		
			<linearGradient id="SVGID_00000103982429352177055010000008285164827805546924_" gradientUnits="userSpaceOnUse" x1="28.8379" y1="13.5054" x2="28.8379" y2="18.2593">
			<stop  offset="0" style="stop-color:#FFFFFF"/>
			<stop  offset="0.3695" style="stop-color:#FFFEFD"/>
			<stop  offset="0.5657" style="stop-color:#FDFBF5"/>
			<stop  offset="0.7206" style="stop-color:#FBF6E7"/>
			<stop  offset="0.8258" style="stop-color:#F8F1D9"/>
		</linearGradient>
		<path style="fill:url(#SVGID_00000103982429352177055010000008285164827805546924_);" d="M31.1,16.2c0-0.2,0.3-0.2,0.2-0.4
			c0-0.1-0.2,0-0.2-0.1c0.2-0.2,0.5-0.3,0.6-0.5c-0.1,0-0.3-0.1-0.3-0.2c0.4-0.3,0.7-0.5,1.1-0.4c0.3,0,0.6-0.6,0.3-0.8
			c-0.2-0.1-0.4-0.1-0.6,0l0.4,0c-0.4,0.2-0.8,0.2-1.2,0.2c-0.1,0-0.1-0.4-0.3-0.4c-0.6-0.1-1.1-0.1-1.6-0.1
			c-1.6-0.1-3.4,0.1-4.9,0.7c0.4,0.3,0.9,0.6,1.4,0.4c0.2,0.6,0.5,1.4-0.2,1.8c-0.2,0.1,0,0.6,0.2,1c0,0.1,0,0.3,0,0.4
			c0.4,0.9,1.2,0,1.7-0.3c0.1-0.1,0.3-0.1,0.5-0.2c0.1,0,0.2-0.3,0.2-0.3c0.5-0.4,1.2-0.3,1.8-0.7C30.5,16.2,30.8,16.2,31.1,16.2z"
			/>
		
			<linearGradient id="SVGID_00000069390429165840543600000003681790630380774829_" gradientUnits="userSpaceOnUse" x1="31.1402" y1="17.1037" x2="31.1402" y2="18.1095">
			<stop  offset="0" style="stop-color:#FFFFFF"/>
			<stop  offset="0.3695" style="stop-color:#FFFEFD"/>
			<stop  offset="0.5657" style="stop-color:#FDFBF5"/>
			<stop  offset="0.7206" style="stop-color:#FBF6E7"/>
			<stop  offset="0.8258" style="stop-color:#F8F1D9"/>
		</linearGradient>
		<path style="fill:url(#SVGID_00000069390429165840543600000003681790630380774829_);" d="M32,17.2c0,0-0.1,0.1-0.1,0.2
			c-0.4-0.4-0.9-0.2-1.2,0c0,0-0.1-0.2-0.2-0.2c-0.5,0.1-0.4,0.7,0,0.9c0.5,0.1,0.9-0.4,1.5-0.4C32.2,17.7,32.2,17.2,32,17.2z"/>
		
			<linearGradient id="SVGID_00000153662910436491132030000005179808416702566574_" gradientUnits="userSpaceOnUse" x1="23.1411" y1="13.2985" x2="23.1411" y2="14.718">
			<stop  offset="0" style="stop-color:#FFFFFF"/>
			<stop  offset="0.3695" style="stop-color:#FFFEFD"/>
			<stop  offset="0.5657" style="stop-color:#FDFBF5"/>
			<stop  offset="0.7206" style="stop-color:#FBF6E7"/>
			<stop  offset="0.8258" style="stop-color:#F8F1D9"/>
		</linearGradient>
		<path style="fill:url(#SVGID_00000153662910436491132030000005179808416702566574_);" d="M21.4,14.7c0.1-0.1,4.8-1.1,4.9-1.4
			c-0.9,0.4-1.8-0.1-2.8-0.1c-0.3,0-0.8-0.1-0.7,0.5c-0.1-0.1-0.2-0.2-0.2-0.3c-0.3-0.2-0.7-0.1-0.8,0.2c-0.2,0.4,0.2,0.4,0.2,0.6
			c0,0.1-0.3,0.1-0.4,0.1c-0.4-0.1,0-0.4,0-0.5c0-0.4-0.3-0.1-0.6-0.1c-0.4,0,0.3,0.4-0.1,0.5c0-0.3,0-0.6-0.2-0.7
			c-0.1-0.3-0.4,0.1-0.6,0.2c0,0.2-0.1,0.6-0.4,0.5c0.3,0.7,1,0,1.5,0.3C21.4,14.5,21.4,14.7,21.4,14.7z"/>
		
			<linearGradient id="SVGID_00000164504843421271316430000009322999357252069045_" gradientUnits="userSpaceOnUse" x1="23.3656" y1="14.7805" x2="23.3656" y2="17.9422">
			<stop  offset="0" style="stop-color:#FFFFFF"/>
			<stop  offset="0.3695" style="stop-color:#FFFEFD"/>
			<stop  offset="0.5657" style="stop-color:#FDFBF5"/>
			<stop  offset="0.7206" style="stop-color:#FBF6E7"/>
			<stop  offset="0.8258" style="stop-color:#F8F1D9"/>
		</linearGradient>
		<path style="fill:url(#SVGID_00000164504843421271316430000009322999357252069045_);" d="M24.4,16.2c0-0.1,0.1-0.4,0-0.5
			c-0.3-0.3-0.7-0.5-1-0.7c-0.5-0.3-1.3-0.3-1.8,0.2c-0.2,0.2,0.2,0.4,0.3,0.6c-0.4,0-0.9,0.3-0.7,0.7c0,0.1,0.3,0.2,0.4,0.1
			c0.4-0.1,0.4-0.9,0.9-0.9c0.4,0.1,0.9,0,1,0.6c-0.5,0-0.8,0.2-1.1,0.5c0,0.1-0.2,0-0.3,0c0.3,0.7,1.2,0.6,1.7,1.1
			c0-0.2,0.2-0.4,0.4-0.4c-0.2-0.1-0.1-0.4-0.1-0.5c0-0.3,0.4-0.2,0.6-0.1c0.2,0.2,0.4,0.4,0.6,0.3c0.2-0.1,0.2-0.3,0.2-0.5
			C25.3,15.9,24.6,16.6,24.4,16.2z"/>
		
			<linearGradient id="SVGID_00000116207902144073833470000004215325586108584865_" gradientUnits="userSpaceOnUse" x1="18.9674" y1="15.2836" x2="18.9674" y2="48.8979">
			<stop  offset="0" style="stop-color:#FFFFFF"/>
			<stop  offset="0.3695" style="stop-color:#FFFEFD"/>
			<stop  offset="0.5657" style="stop-color:#FDFBF5"/>
			<stop  offset="0.7206" style="stop-color:#FBF6E7"/>
			<stop  offset="0.8258" style="stop-color:#F8F1D9"/>
		</linearGradient>
		<path style="fill:url(#SVGID_00000116207902144073833470000004215325586108584865_);" d="M12.2,27.4c0.3,1.1,1.7,1,2.5,1.5
			c0,0.1,0.1,0.2,0.1,0.3c0.3,0.5,0.9,0.5,1.1,1c0.2,0.7,0.9,1.4,1.4,0.9c0.3,0.6,0.4,1.4,0,1.8c-0.3,0.4-0.7,1-0.5,1.6
			c0.2,0.8,0.4,1.7,0.7,2.5c0.3,0.9,1.2,1.2,1.9,1.8c-0.2,1.7,0,3.5,0,5.3c0,0.9,0.5,1.8,0.7,2.9c0.2,1.1,1.3,1.6,2.2,1.9
			c0-0.7-0.8-0.8-0.8-1.4c0-0.3,0.4-0.7,0.4-1c0-0.3-0.4-0.5-0.4-0.9c0-0.4,0.1-0.9,0.5-1.1c0.4-0.2,0.9-0.4,1.1-0.9
			c0-0.1-0.1-0.1-0.2-0.1c0-0.1,0.1-0.2,0.1-0.3c0.2-0.2,0.6-0.2,0.7-0.5c0.5-0.8,0.6-2.1,1.4-2.6c0.4-0.3,1.1-1.1,0.4-1.8
			c0.2-0.9,1.1-1.6,0.8-2.6c-0.2-0.5-0.8-0.2-1.2-0.6c-0.2-0.2-0.4-0.5-0.7-0.5c-0.5-0.1-0.9,0.4-1.3,0c-0.2-0.2,0.1-0.7,0.1-0.9
			c-0.2-0.8-0.9-1.6-1.8-1.4c0-0.2,0-0.4-0.1-0.5c-0.4-0.6-1-0.7-1.5-1.1c-0.1,0.1-0.2,0.1-0.4,0.1c0-0.2-0.2-0.5-0.3-0.4
			c-0.2,0.2-0.3,0.4-0.5,0.6c0-0.3,0-0.5-0.2-0.7c-0.3,0.3-0.7,0.6-1,0.9c-0.3-0.6-0.7,0-1-0.1c-0.7-0.5,0.1-2.1-1.2-1.9
			c0.4-0.5,0.4-1,0.6-1.6c-0.4-0.1-1,0-1.2,0.5c0,0.2-0.5,0.1-0.7-0.3c-0.2-0.5-0.6-1-0.3-1.3c0.3-0.4,0.5-0.9,1-1.1
			c0.3-0.1,0.6,0.1,1,0.1c0.1,0,0.2-0.1,0.2-0.3c0.4,0.2,0.7,0.4,1.1,0.2c0.2,0.3,0.1,0.7-0.1,0.9c0.2,0.2,0.3,0.7,0.5,0.4
			c0.3-0.3,0-1.1,0.4-1.4c0.5-0.4,0.8-0.9,1.3-1.2c0-0.1,0.2,0,0.2,0c0.3-0.7,0.9-1.3,1.7-1.4c0.2,0,0.4-0.1,0.4-0.4
			c0.1,0.1,0.2-0.1,0.4-0.1c0.1,0,0.2-0.3,0.3-0.3c0.1,0,0.3-0.1,0.4,0.1c0-0.2,0.3-0.5,0-0.6c-0.2-0.1-0.4-0.1-0.6-0.4
			c0,0-0.2,0-0.3,0c0.2-0.2,0.1-0.7,0.5-0.8c0.2,0,0.3-0.1,0.5,0.2c0,0.1,0.2,0,0.2,0.1c0,0.1,0.3,0.2,0.2,0.2
			c0.5,0.1,0.9-0.2,0.7-0.7c0.1,0,0.2-0.1,0.3-0.1c-0.4-0.4-0.5-0.9-0.9-1.4c-0.3-0.4-0.8-0.3-1,0.2c0-0.7-0.5-1-1-0.8
			c-0.2,0.2-0.1,0.6-0.3,0.9c-0.3,0.4-1,0.3-1.2,0.8c-0.2,0.3-0.2,0.8-0.3,0.8c-0.6-0.1,0.1-0.7,0.1-1.1c0-0.2-0.3-0.2-0.3-0.2
			c-0.5,0.1-1.1-0.2-0.9-0.8c0.3-0.8,1.2-0.7,1.8-1.2c0.2-0.2,0.5,0.2,0.7,0.4c0.3,0.2,0.5-0.4,0.3-0.6c0-0.1-0.1-0.7-0.3-0.8
			c-0.1,0-0.3,0-0.3,0c-0.2-0.4-0.1-0.8-0.6-0.6c-0.2,0.2-0.2,0.7-0.4,0.7c-0.6,0-1.3-0.1-2-0.3c-2.8,2.5-5,5.8-6.2,9.4
			c0.2,0.5,0.4,1,0.7,1.6C12.3,27,12.2,27.2,12.2,27.4z"/>
		
			<linearGradient id="SVGID_00000062870852427991237010000004434916537277639299_" gradientUnits="userSpaceOnUse" x1="11.2547" y1="25.6165" x2="11.2547" y2="26.5338">
			<stop  offset="0" style="stop-color:#FFFFFF"/>
			<stop  offset="0.3695" style="stop-color:#FFFEFD"/>
			<stop  offset="0.5657" style="stop-color:#FDFBF5"/>
			<stop  offset="0.7206" style="stop-color:#FBF6E7"/>
			<stop  offset="0.8258" style="stop-color:#F8F1D9"/>
		</linearGradient>
		<path style="fill:url(#SVGID_00000062870852427991237010000004434916537277639299_);" d="M11.3,26.5c0.2-0.3,0-0.6,0-0.9
			c-0.1,0.2-0.1,0.4-0.2,0.7C11.1,26.4,11.2,26.5,11.3,26.5z"/>
		
			<linearGradient id="SVGID_00000026848741921762298520000011429741823046468250_" gradientUnits="userSpaceOnUse" x1="23.9271" y1="20.4231" x2="23.9271" y2="21.833">
			<stop  offset="0" style="stop-color:#FFFFFF"/>
			<stop  offset="0.3695" style="stop-color:#FFFEFD"/>
			<stop  offset="0.5657" style="stop-color:#FDFBF5"/>
			<stop  offset="0.7206" style="stop-color:#FBF6E7"/>
			<stop  offset="0.8258" style="stop-color:#F8F1D9"/>
		</linearGradient>
		<path style="fill:url(#SVGID_00000026848741921762298520000011429741823046468250_);" d="M23.9,20.4c0,0,0,0.4-0.2,0.5
			c-0.2,0.3-0.4,0.4-0.6,0.6c0.5,0.6,1.1-0.1,1.5-0.4c0,0,0-0.2,0-0.3C24.4,20.9,24.1,20.7,23.9,20.4z"/>
		
			<linearGradient id="SVGID_00000071553366074580088040000010294548332909840013_" gradientUnits="userSpaceOnUse" x1="17.5418" y1="27.1087" x2="17.5418" y2="28.3101">
			<stop  offset="0" style="stop-color:#FFFFFF"/>
			<stop  offset="0.3695" style="stop-color:#FFFEFD"/>
			<stop  offset="0.5657" style="stop-color:#FDFBF5"/>
			<stop  offset="0.7206" style="stop-color:#FBF6E7"/>
			<stop  offset="0.8258" style="stop-color:#F8F1D9"/>
		</linearGradient>
		<path style="fill:url(#SVGID_00000071553366074580088040000010294548332909840013_);" d="M18.7,28c-0.1,0-0.3,0.1-0.3,0
			c-0.6-0.5-1.5-1.4-2-0.4c0.1,0,0.2,0.1,0.2,0.2c0.2-0.2,0.3-0.3,0.6-0.4c0,0.8,0.6,0.4,1.1,0.9C18.3,28.4,18.6,28.1,18.7,28z"/>
		
			<linearGradient id="SVGID_00000027601205163966570620000001613492750662833041_" gradientUnits="userSpaceOnUse" x1="19.2666" y1="28.3146" x2="19.2666" y2="29.1548">
			<stop  offset="0" style="stop-color:#FFFFFF"/>
			<stop  offset="0.3695" style="stop-color:#FFFEFD"/>
			<stop  offset="0.5657" style="stop-color:#FDFBF5"/>
			<stop  offset="0.7206" style="stop-color:#FBF6E7"/>
			<stop  offset="0.8258" style="stop-color:#F8F1D9"/>
		</linearGradient>
		<path style="fill:url(#SVGID_00000027601205163966570620000001613492750662833041_);" d="M19.7,28.5c-0.4-0.1-1.1-0.5-0.9,0.3
			c-0.2-0.3-0.2,0-0.4,0c0.4,0.6,1.3,0.5,1.6,0C20.2,28.7,19.9,28.5,19.7,28.5z"/>
		
			<linearGradient id="SVGID_00000149348039253506579500000010616384591446668695_" gradientUnits="userSpaceOnUse" x1="20.5138" y1="28.6644" x2="20.5138" y2="29.2473">
			<stop  offset="0" style="stop-color:#FFFFFF"/>
			<stop  offset="0.3695" style="stop-color:#FFFEFD"/>
			<stop  offset="0.5657" style="stop-color:#FDFBF5"/>
			<stop  offset="0.7206" style="stop-color:#FBF6E7"/>
			<stop  offset="0.8258" style="stop-color:#F8F1D9"/>
		</linearGradient>
		<path style="fill:url(#SVGID_00000149348039253506579500000010616384591446668695_);" d="M20.2,28.9c-0.2,0.2,0.3,0.2,0.3,0.3
			c0-0.5,0.6,0.5,0.2-0.5C20.5,28.5,20.4,28.7,20.2,28.9z"/>
		
			<linearGradient id="SVGID_00000119093576457436926270000007629300827601231802_" gradientUnits="userSpaceOnUse" x1="17.9359" y1="28.3811" x2="17.9359" y2="28.9689">
			<stop  offset="0" style="stop-color:#FFFFFF"/>
			<stop  offset="0.3695" style="stop-color:#FFFEFD"/>
			<stop  offset="0.5657" style="stop-color:#FDFBF5"/>
			<stop  offset="0.7206" style="stop-color:#FBF6E7"/>
			<stop  offset="0.8258" style="stop-color:#F8F1D9"/>
		</linearGradient>
		<path style="fill:url(#SVGID_00000119093576457436926270000007629300827601231802_);" d="M18.2,28.4c-0.3-0.1-0.6,0.1-0.7,0.3
			c-0.2,0.2,0.2,0.4,0.4,0.3C18.1,28.8,18.6,28.5,18.2,28.4z"/>
	</g>
	<g class="st22">
		
			<linearGradient id="SVGID_00000158030515202913182300000010243716774905061768_" gradientUnits="userSpaceOnUse" x1="40.1596" y1="20.0878" x2="40.1762" y2="20.0878">
			<stop  offset="0.1292" style="stop-color:#F8F1D9"/>
			<stop  offset="0.338" style="stop-color:#FAF6E6"/>
			<stop  offset="0.7257" style="stop-color:#FEFDF8"/>
			<stop  offset="1" style="stop-color:#FFFFFF"/>
		</linearGradient>
		<path style="fill:url(#SVGID_00000158030515202913182300000010243716774905061768_);" d="M40.2,20.1
			C40.2,20.1,40.2,20.1,40.2,20.1C40.2,20.1,40.2,20.1,40.2,20.1z"/>
		
			<linearGradient id="SVGID_00000133516717030668878890000009361598261802103966_" gradientUnits="userSpaceOnUse" x1="54.355" y1="28.9406" x2="54.4715" y2="28.9406">
			<stop  offset="0.1292" style="stop-color:#F8F1D9"/>
			<stop  offset="0.338" style="stop-color:#FAF6E6"/>
			<stop  offset="0.7257" style="stop-color:#FEFDF8"/>
			<stop  offset="1" style="stop-color:#FFFFFF"/>
		</linearGradient>
		<path style="fill:url(#SVGID_00000133516717030668878890000009361598261802103966_);" d="M54.4,28.6c0,0.3,0,0.5,0.1,0.8
			C54.4,29.1,54.4,28.8,54.4,28.6z"/>
		
			<linearGradient id="SVGID_00000052092283529399565050000012771502651634476475_" gradientUnits="userSpaceOnUse" x1="38.9521" y1="20.2091" x2="38.9644" y2="20.2091">
			<stop  offset="0.1292" style="stop-color:#F8F1D9"/>
			<stop  offset="0.338" style="stop-color:#FAF6E6"/>
			<stop  offset="0.7257" style="stop-color:#FEFDF8"/>
			<stop  offset="1" style="stop-color:#FFFFFF"/>
		</linearGradient>
		<path style="fill:url(#SVGID_00000052092283529399565050000012771502651634476475_);" d="M39,20.2C39,20.2,39,20.2,39,20.2
			C39,20.2,39,20.2,39,20.2z"/>
		
			<linearGradient id="SVGID_00000080921115341352147540000011139455214622880399_" gradientUnits="userSpaceOnUse" x1="31.9155" y1="30.5261" x2="54.3272" y2="30.5261">
			<stop  offset="0.1292" style="stop-color:#F8F1D9"/>
			<stop  offset="0.338" style="stop-color:#FAF6E6"/>
			<stop  offset="0.7257" style="stop-color:#FEFDF8"/>
			<stop  offset="1" style="stop-color:#FFFFFF"/>
		</linearGradient>
		<path style="fill:url(#SVGID_00000080921115341352147540000011139455214622880399_);" d="M47.4,16.3c-0.2,0.4,0.3,0.7,0,1.1
			c-0.2-0.5-0.2-1.4-0.9-1.2c-0.2,0-0.1,0.3-0.2,0.4c0.2-0.1,0.5,0.3,0.3,0.3c-0.5,0.5-1.2-0.1-1.7,0.1c-0.7,0.3-1.3,0.4-2,0.7
			c-0.1,0.1-0.2,0.4-0.4,0.4c0.1,0-0.3,0.3-0.3-0.1c-0.2,0.3-0.5,0.4-0.7,0.3c-0.1,0-0.3-0.3-0.2-0.4c0.3-0.4,1,0.1,1.1-0.2
			c0.4-0.6-0.9-0.1-1.3-0.6c-0.1,0-0.2-0.2-0.3-0.2c-0.4,0.1-0.7-0.2-1-0.2c-0.5,0-0.9,0.4-1.4,0.6c0,0,0,0.2,0,0.3
			c0,0.1-0.2,0-0.2,0c-0.2,0.2-0.3,0.5-0.5,0.6c-0.3,0.1-0.4,0.6-0.7,0.4c0,0.1,0,0.3,0,0.4c-0.1,0.2-0.3,0.4-0.1,0.5
			c0,0.1,0.1,0.3,0.3,0.2c0.2-0.1,0.3-0.4,0.6-0.4c0.1,0,0.1,0.2,0.1,0.3c0-0.1,0.2-0.2,0.2-0.1c0.2,0.4,0.4,0.7-0.1,0.7
			c0,0.1,0,0.2,0,0.3c0.2,0.2,0.3-0.4,0.6-0.1c0.2-0.2,0.4-0.4,0.6-0.5c0,0-0.2,0-0.2,0C38.6,20,39,19.9,39,19.6
			c-0.1,0.1-0.2-0.1-0.3-0.1c0-0.2,0-0.4,0.1-0.5c0.5,0,0.3-0.6,0.7-0.8c0.2-0.2,0.2,0.2,0.4,0.3c-0.4,0.1-0.6,0.5-0.3,0.8
			c0.4,0.3,1.3-0.4,1.3,0.2c0,0.3-0.6-0.1-0.9,0.2c0,0.1-0.1,0.2,0.1,0.3c0,0,0.1,0,0.2,0c0,0,0,0,0,0c0,0,0,0,0,0
			c-0.2,0.3-0.4,0.1-0.6,0.1c0,0.9-0.6,0.7-1.2,0.9c-0.2,0.1-0.1-0.1-0.1-0.2C38,20.8,37.8,21,37.7,21c0-0.3-0.2-0.6,0-0.8
			c-0.3-0.1-0.3,0.2-0.5,0.4c0,0.1,0.1,0.1,0.1,0.2c-0.2,0.3-0.4,0.5-0.7,0.5c0,0.2-0.3,0.2-0.2,0.4c-0.6,0.1-0.9,0.7-1.5,0.8
			c0.3,0.3,0.8,0.9,0.2,1.2c-0.3,0.2-0.7-0.2-1.1,0.1c-0.2,0.3-0.1,0.7-0.1,1c0,0.1,0,0.3-0.1,0.4c-0.1,0.1,0.1,0.2,0.1,0.3
			c0.6,0.2,1.2,0.1,1.7-0.5c0-0.1,0.3,0,0.3-0.1c0-0.3,0.1-0.5,0.3-0.7c0.2-0.3,0.8-0.6,1.2-0.1c0-0.1-0.1-0.3-0.1-0.5
			c0.1,0,0.3,0,0.3,0c0.3,0.5,0.8,0.7,1.1,1.1c0,0.1,0,0.2,0,0.3c-0.2,0.2-0.5,0.2-0.6,0.3c0.2,0.3,0.4,0.4,0.6,0.3
			c0-0.1-0.1-0.3,0.1-0.4c0,0,0.2,0.1,0.2,0.1c0-0.2,0-0.4,0-0.6c0,0.2,0.3,0.1,0.3,0.3c0.2-0.1,0.1-0.3,0.1-0.4
			c-0.5-0.3-0.8-0.6-1.2-1.2c0,0,0.2-0.2,0.2-0.1c0.4,0.2,0.8,0.6,0.9,1c0.2,0.3,0.4,0.8,0.7,1.2c0,0.1,0.2,0.1,0.2,0
			c0.1-0.2,0-0.4,0-0.6c0-0.3,0.5,0.1,0.5-0.3c0,0-0.1-0.2-0.1-0.2c0-0.1,0.1,0,0.3,0.1c-0.3,1.3,0.9,1.1,1.6,1.3
			c0.3,0.1,0,1.2-0.5,1.3c0.1,0-0.1-0.1-0.3-0.2c-0.3,0-0.6,0.2-0.8,0.1c-0.4-0.2-0.9-0.7-1.4-0.3c-0.2,0.1-0.2,0.3-0.2,0.5
			c-0.7,0-1.1-0.7-1.6-1c-0.2-0.1,0.2-0.6,0-0.7c-0.5-0.4-1.1,0.1-1.6,0c-0.4,0-0.7,0.2-1,0.5c-0.2,0.1-0.3-0.2-0.4-0.1
			c-0.7,0.6-1.2,1.3-1.6,2.1c-0.2,0.2-0.5,0.4-0.5,0.7c-0.1,1-0.7,1.9-0.4,2.8c0.2,0.5,0.1,1.1,0.4,1.5c0.2,0.4,0.5,0.7,0.8,0.9
			c1,0.5,2-0.4,3-0.3c0.4,0,0.3,0.8,0.7,0.7c0.1,0,0.2-0.1,0.4-0.1c0,0.2-0.2,0.3-0.2,0.4c0.1,0,0.3-0.1,0.3,0.1
			c0,0.4-0.3,0.7-0.1,1c0.5,0.9,1,1.9,0.8,2.9c-0.2,0.4-0.4,0.9-0.3,1.4c0.3,1,0.4,2,0.8,3c0,0.1,0.1,0.4,0.3,0.5
			c0.3,0.2,0,0.9,0.3,1.2c0.2,0.3,0.7,0.2,1,0.1c0.9-0.5,1.6-0.9,1.8-1.7c0-0.4,0.3-0.8,0.7-0.7c0-0.5-0.3-1-0.1-1.4
			c0.1-0.6,0.9-0.6,1.1-1.1c0.2-0.7,0.1-1.5-0.1-2.3c-0.2-0.7,0.1-1.6,0.6-2c1-0.9,1.8-2.2,1.8-3.5c-0.5,0-1,0.5-1.5,0.3
			c-0.3-0.1-0.7-0.4-0.7-0.8c-0.3-1.2-0.8-2.2-1.5-3.2c0-0.1-0.2-0.5,0-0.4c0.5,0.2,0.7,0.8,1,1.3c0.5,0.7,0.4,1.5,0.8,2.2
			c0,0.2,0.3,0.4,0.5,0.4c1.1-0.2,1.7-1.3,2.7-2c0.7-0.5-0.1-1.3-0.5-1.2c-0.8,0-1.5-0.4-1.9-1c0.2,0.2,0.3,0.5,0.6,0.5
			c0.8,0,1.5,0.5,2.3,0.5c0.1,0,0.2,0.2,0.3,0.2c0.3,0,0.4-0.2,0.7-0.4c0.2-0.1,0.4,0,0.5,0.2c0.2,0.4,0.3,0.8,0.7,1
			c0-0.3,0.2-0.4,0.4-0.7c0,1.3,0.3,2.6,1,3.6c0.2,0.3,0.5,0.2,0.7-0.1c0.4-0.7,0.2-1.6,0.7-2.2c0.5-0.6,0.8-1.4,1.6-1.5
			c-0.8-4.7-3.1-9-6.5-12.2C47.7,16.3,47.5,16.1,47.4,16.3z"/>
		
			<linearGradient id="SVGID_00000122696757201514217990000017900926798195245488_" gradientUnits="userSpaceOnUse" x1="44.3869" y1="40.1618" x2="46.004" y2="40.1618">
			<stop  offset="0.1292" style="stop-color:#F8F1D9"/>
			<stop  offset="0.338" style="stop-color:#FAF6E6"/>
			<stop  offset="0.7257" style="stop-color:#FEFDF8"/>
			<stop  offset="1" style="stop-color:#FFFFFF"/>
		</linearGradient>
		<path style="fill:url(#SVGID_00000122696757201514217990000017900926798195245488_);" d="M45.7,38.6
			C45.7,38.6,45.7,38.5,45.7,38.6c-0.2,0.2-0.5,0.4-0.5,0.9c-0.3,0-0.7,0.1-0.8,0.5c0,0.2,0.2,0.2,0.2,0.4c0.2,0.5-0.4,0.9-0.2,1.3
			c0.5,0.8,1-0.6,1.2-1.2c0-0.2,0.1-0.5,0.1-0.7c0-0.3,0.3-0.6,0.3-0.8c0-0.1,0-0.2,0-0.3C45.9,38.5,45.8,38.6,45.7,38.6z"/>
		
			<linearGradient id="SVGID_00000080188060891313609800000004236557672183615377_" gradientUnits="userSpaceOnUse" x1="34.6647" y1="20.7618" x2="34.7554" y2="20.7618">
			<stop  offset="0.1292" style="stop-color:#F8F1D9"/>
			<stop  offset="0.338" style="stop-color:#FAF6E6"/>
			<stop  offset="0.7257" style="stop-color:#FEFDF8"/>
			<stop  offset="1" style="stop-color:#FFFFFF"/>
		</linearGradient>
		<path style="fill:url(#SVGID_00000080188060891313609800000004236557672183615377_);" d="M34.7,20.7
			C34.7,20.7,34.7,20.7,34.7,20.7C34.7,20.7,34.7,20.8,34.7,20.7C34.7,20.8,34.7,20.8,34.7,20.7C34.8,20.8,34.8,20.8,34.7,20.7z"/>
		
			<linearGradient id="SVGID_00000050649618175299129160000004757955114689195417_" gradientUnits="userSpaceOnUse" x1="34.5976" y1="20.9957" x2="35.936" y2="20.9957">
			<stop  offset="0.1292" style="stop-color:#F8F1D9"/>
			<stop  offset="0.338" style="stop-color:#FAF6E6"/>
			<stop  offset="0.7257" style="stop-color:#FEFDF8"/>
			<stop  offset="1" style="stop-color:#FFFFFF"/>
		</linearGradient>
		<path style="fill:url(#SVGID_00000050649618175299129160000004757955114689195417_);" d="M34.8,22c0.3,0.4,0.7-0.3,1-0.5
			c0.3-0.2,0-0.8-0.5-0.8c0-0.2,0-0.5,0-0.7c0-0.1-0.2-0.1-0.4-0.1c0.1,0-0.1,0-0.2,0c-0.3,0.3-0.1,0.5,0,0.8
			C35.5,20.9,34.6,21.7,34.8,22z"/>
		
			<linearGradient id="SVGID_00000103956043486649306100000012259790369061533113_" gradientUnits="userSpaceOnUse" x1="33.7823" y1="21.2714" x2="34.6884" y2="21.2714">
			<stop  offset="0.1292" style="stop-color:#F8F1D9"/>
			<stop  offset="0.338" style="stop-color:#FAF6E6"/>
			<stop  offset="0.7257" style="stop-color:#FEFDF8"/>
			<stop  offset="1" style="stop-color:#FFFFFF"/>
		</linearGradient>
		<path style="fill:url(#SVGID_00000103956043486649306100000012259790369061533113_);" d="M34.7,20.8c-0.3-0.2-0.7-0.1-0.8,0.2
			c-0.2,0.2,0,0.5,0,0.8C34.3,21.6,34.8,21.4,34.7,20.8z"/>
		
			<linearGradient id="SVGID_00000033345379218004841620000016675053330227144618_" gradientUnits="userSpaceOnUse" x1="43.6114" y1="16.2359" x2="45.5869" y2="16.2359">
			<stop  offset="0.1292" style="stop-color:#F8F1D9"/>
			<stop  offset="0.338" style="stop-color:#FAF6E6"/>
			<stop  offset="0.7257" style="stop-color:#FEFDF8"/>
			<stop  offset="1" style="stop-color:#FFFFFF"/>
		</linearGradient>
		<path style="fill:url(#SVGID_00000033345379218004841620000016675053330227144618_);" d="M44.4,16.9c0.2-0.2,0.2-0.5,0.2-0.8
			c0-0.4,0.6-0.3,1-0.5c0,0,0-0.2,0-0.2c0,0,0-0.1,0-0.1c-0.9,0-1.8,0.6-2,1.5C43.6,17.1,44.2,17.3,44.4,16.9z"/>
		
			<linearGradient id="SVGID_00000163052915739753351940000001844793380292342418_" gradientUnits="userSpaceOnUse" x1="24.6753" y1="15.8823" x2="33.0005" y2="15.8823">
			<stop  offset="0.1292" style="stop-color:#F8F1D9"/>
			<stop  offset="0.338" style="stop-color:#FAF6E6"/>
			<stop  offset="0.7257" style="stop-color:#FEFDF8"/>
			<stop  offset="1" style="stop-color:#FFFFFF"/>
		</linearGradient>
		<path style="fill:url(#SVGID_00000163052915739753351940000001844793380292342418_);" d="M31.1,16.2c0-0.2,0.3-0.2,0.2-0.4
			c0-0.1-0.2,0-0.2-0.1c0.2-0.2,0.5-0.3,0.6-0.5c-0.1,0-0.3-0.1-0.3-0.2c0.4-0.3,0.7-0.5,1.1-0.4c0.3,0,0.6-0.6,0.3-0.8
			c-0.2-0.1-0.4-0.1-0.6,0l0.4,0c-0.4,0.2-0.8,0.2-1.2,0.2c-0.1,0-0.1-0.4-0.3-0.4c-0.6-0.1-1.1-0.1-1.6-0.1
			c-1.6-0.1-3.4,0.1-4.9,0.7c0.4,0.3,0.9,0.6,1.4,0.4c0.2,0.6,0.5,1.4-0.2,1.8c-0.2,0.1,0,0.6,0.2,1c0,0.1,0,0.3,0,0.4
			c0.4,0.9,1.2,0,1.7-0.3c0.1-0.1,0.3-0.1,0.5-0.2c0.1,0,0.2-0.3,0.2-0.3c0.5-0.4,1.2-0.3,1.8-0.7C30.5,16.2,30.8,16.2,31.1,16.2z"
			/>
		
			<linearGradient id="SVGID_00000090279164700244875940000000310856326720716443_" gradientUnits="userSpaceOnUse" x1="30.1231" y1="17.6066" x2="32.1572" y2="17.6066">
			<stop  offset="0.1292" style="stop-color:#F8F1D9"/>
			<stop  offset="0.338" style="stop-color:#FAF6E6"/>
			<stop  offset="0.7257" style="stop-color:#FEFDF8"/>
			<stop  offset="1" style="stop-color:#FFFFFF"/>
		</linearGradient>
		<path style="fill:url(#SVGID_00000090279164700244875940000000310856326720716443_);" d="M32,17.2c0,0-0.1,0.1-0.1,0.2
			c-0.4-0.4-0.9-0.2-1.2,0c0,0-0.1-0.2-0.2-0.2c-0.5,0.1-0.4,0.7,0,0.9c0.5,0.1,0.9-0.4,1.5-0.4C32.2,17.7,32.2,17.2,32,17.2z"/>
		
			<linearGradient id="SVGID_00000016039904335968336540000014676545370037255856_" gradientUnits="userSpaceOnUse" x1="19.924" y1="14.0083" x2="26.3583" y2="14.0083">
			<stop  offset="0.1292" style="stop-color:#F8F1D9"/>
			<stop  offset="0.338" style="stop-color:#FAF6E6"/>
			<stop  offset="0.7257" style="stop-color:#FEFDF8"/>
			<stop  offset="1" style="stop-color:#FFFFFF"/>
		</linearGradient>
		<path style="fill:url(#SVGID_00000016039904335968336540000014676545370037255856_);" d="M21.4,14.7c0.1-0.1,4.8-1.1,4.9-1.4
			c-0.9,0.4-1.8-0.1-2.8-0.1c-0.3,0-0.8-0.1-0.7,0.5c-0.1-0.1-0.2-0.2-0.2-0.3c-0.3-0.2-0.7-0.1-0.8,0.2c-0.2,0.4,0.2,0.4,0.2,0.6
			c0,0.1-0.3,0.1-0.4,0.1c-0.4-0.1,0-0.4,0-0.5c0-0.4-0.3-0.1-0.6-0.1c-0.4,0,0.3,0.4-0.1,0.5c0-0.3,0-0.6-0.2-0.7
			c-0.1-0.3-0.4,0.1-0.6,0.2c0,0.2-0.1,0.6-0.4,0.5c0.3,0.7,1,0,1.5,0.3C21.4,14.5,21.4,14.7,21.4,14.7z"/>
		
			<linearGradient id="SVGID_00000002342557521602081520000011369497766762750127_" gradientUnits="userSpaceOnUse" x1="21.2277" y1="16.3613" x2="25.5035" y2="16.3613">
			<stop  offset="0.1292" style="stop-color:#F8F1D9"/>
			<stop  offset="0.338" style="stop-color:#FAF6E6"/>
			<stop  offset="0.7257" style="stop-color:#FEFDF8"/>
			<stop  offset="1" style="stop-color:#FFFFFF"/>
		</linearGradient>
		<path style="fill:url(#SVGID_00000002342557521602081520000011369497766762750127_);" d="M24.4,16.2c0-0.1,0.1-0.4,0-0.5
			c-0.3-0.3-0.7-0.5-1-0.7c-0.5-0.3-1.3-0.3-1.8,0.2c-0.2,0.2,0.2,0.4,0.3,0.6c-0.4,0-0.9,0.3-0.7,0.7c0,0.1,0.3,0.2,0.4,0.1
			c0.4-0.1,0.4-0.9,0.9-0.9c0.4,0.1,0.9,0,1,0.6c-0.5,0-0.8,0.2-1.1,0.5c0,0.1-0.2,0-0.3,0c0.3,0.7,1.2,0.6,1.7,1.1
			c0-0.2,0.2-0.4,0.4-0.4c-0.2-0.1-0.1-0.4-0.1-0.5c0-0.3,0.4-0.2,0.6-0.1c0.2,0.2,0.4,0.4,0.6,0.3c0.2-0.1,0.2-0.3,0.2-0.5
			C25.3,15.9,24.6,16.6,24.4,16.2z"/>
		
			<linearGradient id="SVGID_00000160896606554346404560000010695433354049138105_" gradientUnits="userSpaceOnUse" x1="11.4561" y1="32.0908" x2="26.4787" y2="32.0908">
			<stop  offset="0.1292" style="stop-color:#F8F1D9"/>
			<stop  offset="0.338" style="stop-color:#FAF6E6"/>
			<stop  offset="0.7257" style="stop-color:#FEFDF8"/>
			<stop  offset="1" style="stop-color:#FFFFFF"/>
		</linearGradient>
		<path style="fill:url(#SVGID_00000160896606554346404560000010695433354049138105_);" d="M12.2,27.4c0.3,1.1,1.7,1,2.5,1.5
			c0,0.1,0.1,0.2,0.1,0.3c0.3,0.5,0.9,0.5,1.1,1c0.2,0.7,0.9,1.4,1.4,0.9c0.3,0.6,0.4,1.4,0,1.8c-0.3,0.4-0.7,1-0.5,1.6
			c0.2,0.8,0.4,1.7,0.7,2.5c0.3,0.9,1.2,1.2,1.9,1.8c-0.2,1.7,0,3.5,0,5.3c0,0.9,0.5,1.8,0.7,2.9c0.2,1.1,1.3,1.6,2.2,1.9
			c0-0.7-0.8-0.8-0.8-1.4c0-0.3,0.4-0.7,0.4-1c0-0.3-0.4-0.5-0.4-0.9c0-0.4,0.1-0.9,0.5-1.1c0.4-0.2,0.9-0.4,1.1-0.9
			c0-0.1-0.1-0.1-0.2-0.1c0-0.1,0.1-0.2,0.1-0.3c0.2-0.2,0.6-0.2,0.7-0.5c0.5-0.8,0.6-2.1,1.4-2.6c0.4-0.3,1.1-1.1,0.4-1.8
			c0.2-0.9,1.1-1.6,0.8-2.6c-0.2-0.5-0.8-0.2-1.2-0.6c-0.2-0.2-0.4-0.5-0.7-0.5c-0.5-0.1-0.9,0.4-1.3,0c-0.2-0.2,0.1-0.7,0.1-0.9
			c-0.2-0.8-0.9-1.6-1.8-1.4c0-0.2,0-0.4-0.1-0.5c-0.4-0.6-1-0.7-1.5-1.1c-0.1,0.1-0.2,0.1-0.4,0.1c0-0.2-0.2-0.5-0.3-0.4
			c-0.2,0.2-0.3,0.4-0.5,0.6c0-0.3,0-0.5-0.2-0.7c-0.3,0.3-0.7,0.6-1,0.9c-0.3-0.6-0.7,0-1-0.1c-0.7-0.5,0.1-2.1-1.2-1.9
			c0.4-0.5,0.4-1,0.6-1.6c-0.4-0.1-1,0-1.2,0.5c0,0.2-0.5,0.1-0.7-0.3c-0.2-0.5-0.6-1-0.3-1.3c0.3-0.4,0.5-0.9,1-1.1
			c0.3-0.1,0.6,0.1,1,0.1c0.1,0,0.2-0.1,0.2-0.3c0.4,0.2,0.7,0.4,1.1,0.2c0.2,0.3,0.1,0.7-0.1,0.9c0.2,0.2,0.3,0.7,0.5,0.4
			c0.3-0.3,0-1.1,0.4-1.4c0.5-0.4,0.8-0.9,1.3-1.2c0-0.1,0.2,0,0.2,0c0.3-0.7,0.9-1.3,1.7-1.4c0.2,0,0.4-0.1,0.4-0.4
			c0.1,0.1,0.2-0.1,0.4-0.1c0.1,0,0.2-0.3,0.3-0.3c0.1,0,0.3-0.1,0.4,0.1c0-0.2,0.3-0.5,0-0.6c-0.2-0.1-0.4-0.1-0.6-0.4
			c0,0-0.2,0-0.3,0c0.2-0.2,0.1-0.7,0.5-0.8c0.2,0,0.3-0.1,0.5,0.2c0,0.1,0.2,0,0.2,0.1c0,0.1,0.3,0.2,0.2,0.2
			c0.5,0.1,0.9-0.2,0.7-0.7c0.1,0,0.2-0.1,0.3-0.1c-0.4-0.4-0.5-0.9-0.9-1.4c-0.3-0.4-0.8-0.3-1,0.2c0-0.7-0.5-1-1-0.8
			c-0.2,0.2-0.1,0.6-0.3,0.9c-0.3,0.4-1,0.3-1.2,0.8c-0.2,0.3-0.2,0.8-0.3,0.8c-0.6-0.1,0.1-0.7,0.1-1.1c0-0.2-0.3-0.2-0.3-0.2
			c-0.5,0.1-1.1-0.2-0.9-0.8c0.3-0.8,1.2-0.7,1.8-1.2c0.2-0.2,0.5,0.2,0.7,0.4c0.3,0.2,0.5-0.4,0.3-0.6c0-0.1-0.1-0.7-0.3-0.8
			c-0.1,0-0.3,0-0.3,0c-0.2-0.4-0.1-0.8-0.6-0.6c-0.2,0.2-0.2,0.7-0.4,0.7c-0.6,0-1.3-0.1-2-0.3c-2.8,2.5-5,5.8-6.2,9.4
			c0.2,0.5,0.4,1,0.7,1.6C12.3,27,12.2,27.2,12.2,27.4z"/>
		
			<linearGradient id="SVGID_00000096038076119943373670000017106788636601766308_" gradientUnits="userSpaceOnUse" x1="11.1073" y1="26.0751" x2="11.4022" y2="26.0751">
			<stop  offset="0.1292" style="stop-color:#F8F1D9"/>
			<stop  offset="0.338" style="stop-color:#FAF6E6"/>
			<stop  offset="0.7257" style="stop-color:#FEFDF8"/>
			<stop  offset="1" style="stop-color:#FFFFFF"/>
		</linearGradient>
		<path style="fill:url(#SVGID_00000096038076119943373670000017106788636601766308_);" d="M11.3,26.5c0.2-0.3,0-0.6,0-0.9
			c-0.1,0.2-0.1,0.4-0.2,0.7C11.1,26.4,11.2,26.5,11.3,26.5z"/>
		
			<linearGradient id="SVGID_00000087400698567845371420000011497908410254329752_" gradientUnits="userSpaceOnUse" x1="23.1789" y1="21.128" x2="24.6753" y2="21.128">
			<stop  offset="0.1292" style="stop-color:#F8F1D9"/>
			<stop  offset="0.338" style="stop-color:#FAF6E6"/>
			<stop  offset="0.7257" style="stop-color:#FEFDF8"/>
			<stop  offset="1" style="stop-color:#FFFFFF"/>
		</linearGradient>
		<path style="fill:url(#SVGID_00000087400698567845371420000011497908410254329752_);" d="M23.9,20.4c0,0,0,0.4-0.2,0.5
			c-0.2,0.3-0.4,0.4-0.6,0.6c0.5,0.6,1.1-0.1,1.5-0.4c0,0,0-0.2,0-0.3C24.4,20.9,24.1,20.7,23.9,20.4z"/>
		
			<linearGradient id="SVGID_00000012457079327877610040000012637836916010363579_" gradientUnits="userSpaceOnUse" x1="16.3762" y1="27.7094" x2="18.7075" y2="27.7094">
			<stop  offset="0.1292" style="stop-color:#F8F1D9"/>
			<stop  offset="0.338" style="stop-color:#FAF6E6"/>
			<stop  offset="0.7257" style="stop-color:#FEFDF8"/>
			<stop  offset="1" style="stop-color:#FFFFFF"/>
		</linearGradient>
		<path style="fill:url(#SVGID_00000012457079327877610040000012637836916010363579_);" d="M18.7,28c-0.1,0-0.3,0.1-0.3,0
			c-0.6-0.5-1.5-1.4-2-0.4c0.1,0,0.2,0.1,0.2,0.2c0.2-0.2,0.3-0.3,0.6-0.4c0,0.8,0.6,0.4,1.1,0.9C18.3,28.4,18.6,28.1,18.7,28z"/>
		
			<linearGradient id="SVGID_00000125566601544843224690000004096691672154237629_" gradientUnits="userSpaceOnUse" x1="18.4318" y1="28.7347" x2="20.1014" y2="28.7347">
			<stop  offset="0.1292" style="stop-color:#F8F1D9"/>
			<stop  offset="0.338" style="stop-color:#FAF6E6"/>
			<stop  offset="0.7257" style="stop-color:#FEFDF8"/>
			<stop  offset="1" style="stop-color:#FFFFFF"/>
		</linearGradient>
		<path style="fill:url(#SVGID_00000125566601544843224690000004096691672154237629_);" d="M19.7,28.5c-0.4-0.1-1.1-0.5-0.9,0.3
			c-0.2-0.3-0.2,0-0.4,0c0.4,0.6,1.3,0.5,1.6,0C20.2,28.7,19.9,28.5,19.7,28.5z"/>
		
			<linearGradient id="SVGID_00000085243740629435870420000000055973432275407539_" gradientUnits="userSpaceOnUse" x1="20.1943" y1="28.9559" x2="20.8334" y2="28.9559">
			<stop  offset="0.1292" style="stop-color:#F8F1D9"/>
			<stop  offset="0.338" style="stop-color:#FAF6E6"/>
			<stop  offset="0.7257" style="stop-color:#FEFDF8"/>
			<stop  offset="1" style="stop-color:#FFFFFF"/>
		</linearGradient>
		<path style="fill:url(#SVGID_00000085243740629435870420000000055973432275407539_);" d="M20.2,28.9c-0.2,0.2,0.3,0.2,0.3,0.3
			c0-0.5,0.6,0.5,0.2-0.5C20.5,28.5,20.4,28.7,20.2,28.9z"/>
		
			<linearGradient id="SVGID_00000163776239641353110070000009845276811134261151_" gradientUnits="userSpaceOnUse" x1="17.5145" y1="28.675" x2="18.3572" y2="28.675">
			<stop  offset="0.1292" style="stop-color:#F8F1D9"/>
			<stop  offset="0.338" style="stop-color:#FAF6E6"/>
			<stop  offset="0.7257" style="stop-color:#FEFDF8"/>
			<stop  offset="1" style="stop-color:#FFFFFF"/>
		</linearGradient>
		<path style="fill:url(#SVGID_00000163776239641353110070000009845276811134261151_);" d="M18.2,28.4c-0.3-0.1-0.6,0.1-0.7,0.3
			c-0.2,0.2,0.2,0.4,0.4,0.3C18.1,28.8,18.6,28.5,18.2,28.4z"/>
	</g>
	<g>
		<path class="st43" d="M40.3,11.7c-0.1,0-0.2-0.1-0.4-0.1c0,0,0.1,0,0.1,0C40.1,11.7,40.2,11.7,40.3,11.7
			C40.3,11.7,40.3,11.7,40.3,11.7 M39,11.2L38.5,11c0.5,0.1,1,0.3,1.3,0.5c0.1,0,0.3,0.1,0.4,0.1C39.8,11.5,39.5,11.3,39,11.2
			 M26.2,11c0,0,0.1,0,0.1,0c0.1,0,0.2,0,0.2-0.1L26.2,11 M24.2,11.7c0.1,0,0.3-0.1,0.4-0.1c0.4-0.2,1-0.5,1.7-0.7
			C26.1,11,26,11,25.9,11l-0.1,0C25.2,11.3,24.6,11.5,24.2,11.7 M23.3,12.6c0.1-0.1,0.3-0.1,0.4-0.2c0.1-0.3,0.3-0.5,0.7-0.8
			c-0.1,0-0.2,0.1-0.4,0.1C23.6,12,23.4,12.3,23.3,12.6 M23.6,13.5c0.1-0.1,0.3-0.1,0.4-0.2c-0.3-0.3-0.4-0.5-0.3-0.8
			c-0.1,0.1-0.3,0.1-0.4,0.2C23.2,12.9,23.3,13.2,23.6,13.5 M25.2,14.4c0.1-0.1,0.2-0.2,0.3-0.3c-0.4-0.1-0.7-0.3-0.9-0.4
			c-0.2-0.1-0.3-0.2-0.5-0.3c-0.1,0.1-0.3,0.1-0.4,0.2c0.1,0.1,0.3,0.2,0.5,0.3C24.5,14.1,24.8,14.2,25.2,14.4 M27.7,15
			c0.1-0.1,0.1-0.2,0.2-0.3c-0.8-0.1-1.6-0.3-2.2-0.5c-0.1,0.1-0.2,0.2-0.3,0.3C26,14.6,26.8,14.8,27.7,15 M30.7,15.3
			c0-0.1,0.1-0.2,0.1-0.3c-0.9,0-1.9-0.1-2.7-0.3c-0.1,0.1-0.1,0.2-0.2,0.3C28.7,15.1,29.7,15.2,30.7,15.3 M34,15.3
			c0-0.1-0.1-0.2-0.1-0.3c-1,0.1-2,0.1-2.9,0c0,0.1,0,0.2-0.1,0.3C31.9,15.3,32.9,15.3,34,15.3 M37.1,14.9c-0.1-0.1-0.2-0.2-0.2-0.3
			c-0.3,0-0.6,0.1-0.9,0.1c-0.6,0.1-1.3,0.2-1.9,0.2c0,0.1,0.1,0.2,0.1,0.3c0.7,0,1.4-0.1,2-0.2C36.5,15,36.8,15,37.1,14.9
			 M39.5,14.3c-0.1-0.1-0.2-0.2-0.3-0.2c-0.6,0.2-1.3,0.4-2.1,0.6c0.1,0.1,0.2,0.2,0.2,0.3C38.2,14.7,39,14.5,39.5,14.3 M40.9,13.5
			c-0.1-0.1-0.3-0.1-0.4-0.2c-0.3,0.3-0.7,0.5-1.2,0.7c0.1,0.1,0.2,0.2,0.4,0.2C40.2,14,40.7,13.8,40.9,13.5 M41.2,12.6
			c-0.1-0.1-0.3-0.1-0.4-0.2c0.1,0.3,0,0.5-0.2,0.8c0.1,0.1,0.3,0.1,0.4,0.2C41.2,13.2,41.3,12.9,41.2,12.6 M40.3,11.7
			c-0.1,0-0.2-0.1-0.4-0.1c0.4,0.3,0.7,0.5,0.8,0.8c0.1,0,0.3,0.1,0.4,0.2C41.1,12.3,40.8,12,40.3,11.7"/>
		<path class="st43" d="M17.8,15.8c0.1-0.1,0.2-0.2,0.3-0.3c0.1-0.4,0.4-0.7,0.9-1.1l-0.4,0.3C18.2,15.1,17.9,15.5,17.8,15.8
			 M18.3,17.3c0.1-0.1,0.2-0.2,0.3-0.3c-0.5-0.4-0.6-0.9-0.5-1.3c-0.1,0.1-0.2,0.2-0.4,0.3C17.7,16.4,17.8,16.8,18.3,17.3
			 M20.8,18.7c0.1-0.1,0.2-0.2,0.3-0.3c-0.6-0.2-1.1-0.4-1.6-0.7c-0.3-0.2-0.6-0.4-0.8-0.5c-0.1,0.1-0.2,0.2-0.3,0.3
			c0.2,0.2,0.5,0.4,0.8,0.5C19.7,18.2,20.2,18.4,20.8,18.7 M24.8,19.6c0.1-0.1,0.1-0.2,0.2-0.4c-1.4-0.2-2.6-0.5-3.7-0.9
			c-0.1,0.1-0.2,0.2-0.3,0.3C22.1,19.1,23.4,19.4,24.8,19.6 M29.7,20.2c0-0.1,0-0.3,0.1-0.4c-1.6-0.1-3.1-0.2-4.5-0.5
			c-0.1,0.1-0.1,0.2-0.2,0.4C26.6,19.9,28.1,20.1,29.7,20.2 M35,20.2c0-0.1,0-0.3-0.1-0.4c-1.6,0.1-3.2,0.1-4.8,0
			c0,0.1,0,0.3-0.1,0.4C31.7,20.2,33.3,20.2,35,20.2 M40.1,19.6c-0.1-0.1-0.1-0.2-0.2-0.4c-0.5,0.1-0.9,0.2-1.4,0.2
			c-1,0.1-2.1,0.2-3.2,0.3c0,0.1,0,0.2,0.1,0.4c1.1-0.1,2.2-0.2,3.3-0.3C39.2,19.7,39.6,19.7,40.1,19.6 M44,18.6
			c-0.1-0.1-0.2-0.2-0.3-0.3c-0.9,0.4-2.1,0.7-3.5,0.9c0.1,0.1,0.1,0.2,0.2,0.4C41.8,19.3,43,18.9,44,18.6 M46.2,17.3
			c-0.1-0.1-0.2-0.2-0.3-0.3c-0.4,0.4-1.1,0.8-2,1.2c0.1,0.1,0.2,0.2,0.3,0.3C45.1,18.1,45.8,17.7,46.2,17.3 M46.7,15.8
			c-0.1-0.1-0.2-0.2-0.3-0.3c0.2,0.4,0,0.9-0.4,1.3c0.1,0.1,0.2,0.2,0.3,0.3C46.7,16.7,46.9,16.3,46.7,15.8 M45.9,14.8l-0.4-0.3
			c0.4,0.3,0.7,0.6,0.8,0.9c0.1,0.1,0.2,0.2,0.3,0.3C46.5,15.4,46.3,15.1,45.9,14.8"/>
		<path class="st43" d="M13.6,20.4c0.1-0.1,0.2-0.2,0.2-0.4c0.1-0.2,0.2-0.4,0.3-0.6l-0.3,0.4C13.7,20.1,13.6,20.3,13.6,20.4
			 M14.2,22.3c0.1-0.1,0.2-0.2,0.2-0.4c-0.6-0.6-0.8-1.2-0.7-1.7c-0.1,0.1-0.2,0.2-0.2,0.4C13.4,21.2,13.6,21.7,14.2,22.3
			 M17.5,24.1c0.1-0.1,0.1-0.3,0.2-0.4c-0.8-0.3-1.5-0.6-2-0.9c-0.4-0.2-0.7-0.5-1-0.7c-0.1,0.1-0.2,0.2-0.2,0.4
			c0.3,0.2,0.6,0.5,1,0.7C16,23.5,16.7,23.8,17.5,24.1 M22.6,25.4c0-0.1,0.1-0.3,0.1-0.4c-1.8-0.3-3.4-0.7-4.8-1.1
			c-0.1,0.1-0.1,0.3-0.2,0.4C19.2,24.7,20.8,25.1,22.6,25.4 M29,26c0-0.1,0-0.3,0-0.4c-2.1-0.1-4-0.3-5.8-0.6c0,0.1-0.1,0.3-0.1,0.4
			C24.9,25.7,26.9,25.9,29,26 M35.8,26c0-0.1,0-0.3,0-0.4c-2.1,0.1-4.2,0.1-6.3,0c0,0.2,0,0.3,0,0.4C31.5,26.1,33.6,26.1,35.8,26
			 M42.4,25.3c0-0.2-0.1-0.3-0.1-0.4c-0.6,0.1-1.2,0.2-1.8,0.3c-1.4,0.2-2.8,0.3-4.2,0.4c0,0.1,0,0.3,0,0.4c1.5-0.1,2.9-0.2,4.3-0.4
			C41.2,25.5,41.8,25.4,42.4,25.3 M47.4,24c-0.1-0.1-0.1-0.3-0.2-0.4c-1.2,0.5-2.8,0.9-4.6,1.2c0,0.1,0.1,0.3,0.1,0.4
			C44.6,24.9,46.2,24.5,47.4,24 M50.3,22.3c-0.1-0.1-0.2-0.3-0.2-0.4c-0.6,0.6-1.4,1.1-2.6,1.6c0.1,0.1,0.1,0.3,0.2,0.4
			C48.9,23.4,49.8,22.9,50.3,22.3 M50.9,20.4c-0.1-0.1-0.2-0.2-0.3-0.4c0.2,0.6,0,1.2-0.5,1.7c0.1,0.1,0.2,0.3,0.2,0.4
			C51,21.6,51.1,21,50.9,20.4 M50.7,20l-0.3-0.4C50.5,19.7,50.6,19.8,50.7,20c0,0.1,0.1,0.2,0.2,0.3C50.8,20.2,50.8,20.1,50.7,20"/>
		<path class="st43" d="M11,25.8C11,25.7,11,25.7,11,25.8L11,25.8L11,25.8 M11.7,28.3c0-0.1,0.1-0.3,0.1-0.4c-0.7-0.7-1-1.3-0.8-2
			c-0.1,0.2-0.1,0.3-0.1,0.4C10.7,27,11,27.7,11.7,28.3 M15.4,30.3c0-0.2,0.1-0.3,0.1-0.5c-0.9-0.3-1.7-0.7-2.4-1.1
			c-0.5-0.3-0.9-0.5-1.2-0.8c0,0.1-0.1,0.3-0.1,0.4c0.3,0.3,0.7,0.5,1.2,0.8C13.7,29.7,14.5,30,15.4,30.3 M21.2,31.8
			c0-0.2,0.1-0.3,0.1-0.5c-2.1-0.3-3.9-0.8-5.5-1.3c0,0.2-0.1,0.3-0.1,0.5C17.3,31,19.2,31.4,21.2,31.8 M28.5,32.5
			c0-0.2,0-0.3,0-0.5c-2.4-0.1-4.6-0.3-6.7-0.7c0,0.2-0.1,0.3-0.1,0.5C23.8,32.2,26.1,32.4,28.5,32.5 M36.3,32.5c0-0.2,0-0.3,0-0.5
			c-2.4,0.1-4.9,0.1-7.2,0c0,0.2,0,0.3,0,0.5C31.4,32.7,33.8,32.7,36.3,32.5 M43.8,31.7c0-0.2,0-0.3-0.1-0.5
			c-0.7,0.1-1.4,0.2-2.1,0.3c-1.6,0.2-3.2,0.4-4.8,0.5c0,0.2,0,0.3,0,0.5c1.6-0.1,3.3-0.3,4.9-0.5C42.4,32,43.1,31.9,43.8,31.7
			 M49.6,30.2c0-0.1-0.1-0.3-0.1-0.4c-1.4,0.5-3.2,1-5.3,1.4c0,0.1,0.1,0.3,0.1,0.5C46.4,31.3,48.1,30.8,49.6,30.2 M52.9,28.3
			c0-0.1-0.1-0.3-0.1-0.4c-0.6,0.6-1.7,1.2-3,1.8c0,0.1,0.1,0.3,0.1,0.4C51.3,29.6,52.3,28.9,52.9,28.3 M53.6,26.3l-0.1-0.5
			c0.2,0.6,0,1.3-0.6,1.9c0,0.1,0.1,0.3,0.1,0.4C53.6,27.5,53.8,26.9,53.6,26.3"/>
		<path class="st43" d="M10.9,34.9c0-0.1,0-0.3,0-0.4c-0.6-0.6-0.9-1.1-0.9-1.7l0,0.5C10,33.8,10.3,34.3,10.9,34.9 M14.7,37
			c0-0.1,0-0.3,0-0.4c-0.9-0.3-1.8-0.7-2.5-1.1c-0.5-0.3-0.9-0.6-1.2-0.8c0,0.1,0,0.3,0,0.4c0.3,0.3,0.7,0.6,1.2,0.8
			C13,36.3,13.8,36.6,14.7,37 M20.8,38.5c0-0.1,0-0.3,0-0.4c-2.1-0.4-4.1-0.8-5.7-1.4c0,0.1,0,0.3,0,0.4
			C16.7,37.7,18.7,38.1,20.8,38.5 M28.3,39.3c0-0.1,0-0.3,0-0.4c-2.4-0.1-4.8-0.4-7-0.7c0,0.1,0,0.3,0,0.4
			C23.5,38.9,25.9,39.1,28.3,39.3 M36.4,39.3c0-0.1,0-0.3,0-0.4c-2.5,0.1-5.1,0.1-7.5,0c0,0.2,0,0.3,0,0.4
			C31.3,39.4,33.9,39.4,36.4,39.3 M44.2,38.4c0-0.2,0-0.3,0-0.5c-0.7,0.1-1.4,0.2-2.2,0.3c-1.6,0.2-3.3,0.4-5,0.5c0,0.1,0,0.3,0,0.5
			c1.7-0.1,3.4-0.3,5-0.5C42.8,38.7,43.5,38.5,44.2,38.4 M50.2,36.9c0-0.2,0-0.3,0-0.5c-1.5,0.6-3.3,1.1-5.5,1.5c0,0.1,0,0.3,0,0.4
			C46.9,37.9,48.7,37.4,50.2,36.9 M53.6,34.9c0-0.2,0-0.3,0-0.5c-0.7,0.7-1.7,1.3-3.1,1.9c0,0.1,0,0.3,0,0.4
			C51.9,36.2,53,35.5,53.6,34.9 M54.4,33.3l0-0.5c0,0.5-0.2,1-0.7,1.5c0,0.2,0,0.3,0,0.4C54.2,34.3,54.4,33.8,54.4,33.3"/>
		<path class="st43" d="M12.1,41.2C12.1,41,12,40.9,12,40.8c-0.4-0.4-0.6-0.7-0.7-1.1l0.2,0.4C11.5,40.5,11.8,40.8,12.1,41.2
			 M15.7,43.1c0-0.1-0.1-0.3-0.1-0.4c-0.9-0.3-1.7-0.7-2.3-1c-0.5-0.3-0.8-0.5-1.2-0.8c0,0.1,0.1,0.3,0.1,0.4
			c0.3,0.3,0.7,0.5,1.2,0.8C14.1,42.5,14.9,42.8,15.7,43.1 M21.5,44.6c0-0.1-0.1-0.3-0.1-0.4c-2-0.3-3.9-0.8-5.4-1.3
			c0,0.1,0.1,0.3,0.1,0.4C17.6,43.8,19.5,44.2,21.5,44.6 M28.5,45.3c0-0.1,0-0.3,0-0.4c-2.3-0.1-4.6-0.3-6.7-0.7
			c0,0.1,0.1,0.3,0.1,0.4C24,44.9,26.2,45.2,28.5,45.3 M36.1,45.3c0-0.1,0-0.3,0-0.4c-2.4,0.1-4.8,0.1-7.2,0c0,0.1,0,0.3,0,0.4
			C31.4,45.4,33.8,45.4,36.1,45.3 M43.5,44.5c0-0.1,0.1-0.3,0.1-0.4c-0.7,0.1-1.4,0.2-2.1,0.3c-1.6,0.2-3.2,0.4-4.8,0.5
			c0,0.1,0,0.3,0,0.4c1.6-0.1,3.2-0.2,4.8-0.4C42.2,44.7,42.8,44.6,43.5,44.5 M49.1,43c0-0.1,0.1-0.3,0.1-0.4
			c-1.4,0.5-3.1,1-5.2,1.4c0,0.1-0.1,0.3-0.1,0.4C46,44,47.7,43.6,49.1,43 M52.4,41.2c0.1-0.1,0.1-0.3,0.2-0.4
			c-0.6,0.6-1.6,1.2-3,1.8c0,0.1-0.1,0.3-0.1,0.4C50.8,42.4,51.8,41.8,52.4,41.2 M53.1,39.9l0.1-0.2c-0.1,0.3-0.3,0.6-0.5,0.8
			c0,0.1-0.1,0.3-0.1,0.4c0.2-0.3,0.4-0.5,0.5-0.8L53.1,39.9"/>
		<path class="st43" d="M15.1,46.5c-0.1-0.1-0.2-0.2-0.3-0.3c-0.1-0.1-0.2-0.2-0.3-0.4l0.3,0.4C14.9,46.3,15,46.4,15.1,46.5
			 M18.2,48.2C18.1,48,18,48,18,47.8c-0.8-0.3-1.4-0.6-2-0.9c-0.4-0.2-0.7-0.5-1-0.7c0.1,0.1,0.2,0.2,0.3,0.3c0.3,0.2,0.6,0.5,1,0.7
			C16.8,47.6,17.4,47.9,18.2,48.2 M23.1,49.4c0-0.1-0.1-0.2-0.1-0.3c-1.7-0.3-3.3-0.7-4.7-1.1c0.1,0.1,0.1,0.2,0.2,0.3
			C19.8,48.7,21.3,49.1,23.1,49.4 M29.1,50c0-0.1,0-0.2,0-0.3c-2-0.1-3.9-0.3-5.7-0.6c0,0.1,0.1,0.2,0.1,0.3
			C25.2,49.7,27.1,49.9,29.1,50 M35.6,50c0-0.1,0-0.2,0.1-0.3c-2,0.1-4.1,0.1-6.1,0c0,0.1,0,0.2,0,0.3C31.5,50.1,33.5,50.1,35.6,50
			 M41.8,49.3c0.1-0.1,0.1-0.2,0.1-0.3c-0.6,0.1-1.2,0.2-1.8,0.3c-1.3,0.2-2.7,0.3-4.1,0.4c0,0.1,0,0.2-0.1,0.3
			c1.4-0.1,2.7-0.2,4-0.4C40.7,49.5,41.3,49.4,41.8,49.3 M46.6,48.1c0.1-0.1,0.1-0.2,0.2-0.3c-1.2,0.5-2.7,0.9-4.5,1.2
			c0,0.1-0.1,0.2-0.2,0.3C44,48.9,45.4,48.5,46.6,48.1 M49.4,46.5c0.1-0.1,0.2-0.2,0.2-0.3c-0.5,0.5-1.4,1.1-2.5,1.5
			c-0.1,0.1-0.1,0.2-0.2,0.3C48,47.5,48.9,47,49.4,46.5 M49.6,46.2l0.3-0.4c0,0.1-0.1,0.1-0.1,0.2c-0.1,0.1-0.2,0.2-0.3,0.3
			C49.5,46.3,49.6,46.3,49.6,46.2"/>
		<path class="st43" d="M21.8,51.8c-0.1-0.1-0.2-0.1-0.3-0.2c-0.6-0.2-1.1-0.4-1.5-0.7c-0.1-0.1-0.3-0.2-0.4-0.2l0.4,0.3
			c0.1,0.1,0.2,0.1,0.3,0.2C20.7,51.4,21.2,51.6,21.8,51.8 M25.4,52.7c-0.1-0.1-0.1-0.1-0.2-0.2c-1.3-0.2-2.5-0.5-3.5-0.8
			c0.1,0.1,0.2,0.1,0.3,0.2C23,52.2,24.1,52.5,25.4,52.7 M29.9,53.1c0,0,0-0.1-0.1-0.2c-1.5-0.1-2.9-0.2-4.3-0.4
			c0.1,0.1,0.1,0.1,0.2,0.2C27,52.9,28.4,53.1,29.9,53.1 M34.7,53.1c0,0,0-0.1,0.1-0.2c-1.5,0.1-3.1,0.1-4.6,0c0,0,0,0.1,0.1,0.2
			C31.7,53.2,33.2,53.2,34.7,53.1 M39.3,52.6c0.1-0.1,0.1-0.1,0.2-0.2c-0.4,0.1-0.9,0.1-1.4,0.2c-1,0.1-2,0.2-3.1,0.3
			c0,0.1,0,0.1-0.1,0.2c1-0.1,2-0.2,3-0.3C38.5,52.8,38.9,52.7,39.3,52.6 M42.9,51.7c0.1-0.1,0.2-0.1,0.3-0.2
			c-0.9,0.4-2,0.6-3.3,0.9c-0.1,0.1-0.1,0.1-0.2,0.2C40.9,52.3,42,52,42.9,51.7 M44.4,51l0.4-0.3c-0.4,0.2-0.8,0.5-1.4,0.7
			c-0.1,0.1-0.2,0.1-0.3,0.2C43.6,51.4,44,51.2,44.4,51"/>
		<path class="st43" d="M28.4,54.3c-0.1,0-0.1,0-0.2-0.1c-0.4-0.1-0.7-0.1-1-0.2l0.6,0.1l0.1,0C28,54.2,28.2,54.2,28.4,54.3
			 M30.9,54.5C30.9,54.5,30.8,54.5,30.9,54.5c-0.9-0.1-1.8-0.2-2.6-0.3c0.1,0,0.1,0,0.2,0.1C29.3,54.4,30.1,54.5,30.9,54.5
			 M33.6,54.5C33.6,54.5,33.6,54.5,33.6,54.5c-0.8,0-1.7,0-2.6,0c0,0,0,0,0.1,0C31.9,54.6,32.7,54.6,33.6,54.5 M36.3,54.2
			c0.1,0,0.1,0,0.2,0c-0.2,0-0.5,0.1-0.8,0.1c-0.6,0.1-1.2,0.1-1.8,0.2c0,0-0.1,0-0.1,0c0.6,0,1.2-0.1,1.7-0.2
			c0.2,0,0.4-0.1,0.7-0.1L36.3,54.2 M36.5,54.2l0.3-0.1C36.7,54.1,36.7,54.1,36.5,54.2C36.6,54.2,36.6,54.2,36.5,54.2"/>
		<path class="st43" d="M39.8,11.5c0.1,0,0.3,0.1,0.4,0.1c0.8,0.3,1.5,0.6,2.2,0.9l0.4,0.2c-0.8-0.4-1.7-0.8-2.6-1.1
			C40.1,11.7,40,11.6,39.8,11.5c-2.2-0.7-4.8-0.9-7.5-0.5C34.9,10.6,37.5,10.8,39.8,11.5"/>
		<path class="st43" d="M37.3,10.7l0.2,0.1c-1.6-0.4-3.4-0.3-5.3,0.2C34,10.4,35.7,10.3,37.3,10.7"/>
		<path class="st43" d="M34.4,10.2l0.2,0c-0.7-0.1-1.5,0.2-2.3,0.8C33,10.4,33.7,10.2,34.4,10.2"/>
		<path class="st43" d="M32,10.1h0.2c0,0,0,0.3,0,0.9C32.2,10.4,32.1,10.1,32,10.1"/>
		<path class="st43" d="M29.6,10.3l0.2,0c0.8-0.1,1.6,0.1,2.5,0.7C31.3,10.4,30.5,10.2,29.6,10.3"/>
		<path class="st43" d="M26.2,11C26.1,11,26,11,25.9,11L26.2,11c0.1,0,0.1,0,0.1,0c1.8-0.5,3.8-0.5,5.9,0.1
			C30.1,10.4,28.1,10.4,26.2,11"/>
		<path class="st43" d="M24.4,11.7c-0.1,0-0.2,0.1-0.4,0.1c-1.3,0.4-2.4,1-3.6,1.7l0.5-0.3c1-0.6,2.1-1.1,3.2-1.5
			C24.3,11.7,24.4,11.6,24.4,11.7c2.5-0.8,5.1-1,7.8-0.7C29.5,10.7,26.9,10.9,24.4,11.7"/>
		<path class="st43" d="M23.7,12.5c-0.1,0.1-0.3,0.1-0.4,0.2c-1.9,0.8-3.6,1.8-5.2,3c-0.1,0.1-0.2,0.2-0.4,0.3
			c-1.5,1.2-2.9,2.7-4,4.3c-0.1,0.1-0.2,0.2-0.2,0.4c-1.1,1.6-2,3.4-2.5,5.3c-0.1,0.2-0.1,0.3-0.1,0.4c-0.1,0.4-0.2,0.8-0.3,1.3
			c0.1-0.5,0.3-1.3,0.5-1.8c0,0,0,0,0,0c0.6-1.9,1.4-3.7,2.5-5.3c0.1-0.1,0.2-0.2,0.2-0.4c1.1-1.6,2.5-3,4-4.3
			c0.1-0.1,0.2-0.2,0.3-0.3c1.5-1.2,3.3-2.2,5.1-2.9C23.4,12.5,23.6,12.5,23.7,12.5c2.6-1.1,5.5-1.6,8.6-1.5
			C29.2,11,26.3,11.5,23.7,12.5"/>
		<path class="st43" d="M24.1,13.4c-0.1,0.1-0.3,0.1-0.4,0.2c-1.8,1-3.5,2.1-4.9,3.5c-0.1,0.1-0.2,0.2-0.3,0.3
			c-1.5,1.4-2.7,3-3.8,4.7c-0.1,0.1-0.2,0.2-0.2,0.4c-1,1.7-1.9,3.6-2.4,5.6c0,0.1-0.1,0.3-0.1,0.4c-0.5,1.8-0.8,3.8-0.8,5.7
			c0,0.1,0,0.3,0,0.4c0,0.1,0,0.3,0,0.4c0.1,2.1,0.4,4,1.1,5.9c0,0.1,0.1,0.3,0.1,0.4c0.7,1.8,1.6,3.5,2.7,5
			c0.1,0.1,0.2,0.2,0.3,0.3c0.7,0.9,1.5,1.8,2.4,2.5l-0.8-0.7c-0.6-0.6-1.2-1.2-1.7-1.9c-0.1-0.1-0.2-0.2-0.3-0.3
			c-1.1-1.5-2-3.2-2.7-5C12.1,41,12,40.9,12,40.8c-0.6-1.8-1-3.8-1.1-5.9c0-0.1,0-0.3,0-0.4c0-0.1,0-0.3,0-0.4c0-2,0.3-3.9,0.8-5.7
			c0-0.1,0.1-0.3,0.1-0.4c0.6-2,1.4-3.8,2.5-5.6c0.1-0.1,0.2-0.2,0.2-0.4c1.1-1.7,2.4-3.3,3.9-4.7c0.1-0.1,0.2-0.2,0.3-0.3
			c1.5-1.4,3.2-2.5,5-3.5C23.8,13.4,23.9,13.4,24.1,13.4c2.5-1.3,5.3-2.1,8.2-2.4C29.4,11.3,26.6,12.1,24.1,13.4"/>
		<path class="st43" d="M25.7,14.2c-0.1,0.1-0.2,0.2-0.3,0.3c-1.4,1.1-2.8,2.5-4,4c-0.1,0.1-0.2,0.2-0.3,0.3
			c-1.2,1.5-2.2,3.2-3.1,5.1c-0.1,0.1-0.1,0.3-0.2,0.4c-0.9,1.8-1.5,3.8-2,5.8c0,0.2-0.1,0.3-0.1,0.5c-0.4,1.9-0.6,3.8-0.6,5.8
			c0,0.1,0,0.3,0,0.4c0,0.1,0,0.3,0,0.4c0.1,2.1,0.4,4,0.9,5.8c0,0.1,0.1,0.3,0.1,0.4c0.5,1.7,1.3,3.3,2.2,4.7
			c0.1,0.1,0.1,0.2,0.2,0.3c0.9,1.3,2,2.5,3.3,3.4c0.1,0.1,0.2,0.1,0.3,0.2c0.9,0.7,2,1.2,3,1.5l-0.3-0.1c-1-0.4-2-0.9-2.9-1.5
			c-0.1-0.1-0.2-0.1-0.3-0.2c-1.3-0.9-2.4-2.1-3.3-3.4C18.1,48,18,48,18,47.8c-0.9-1.4-1.7-3-2.2-4.7c0-0.1-0.1-0.3-0.1-0.4
			C15.1,41,14.8,39,14.7,37c0-0.1,0-0.3,0-0.4c0-0.1,0-0.3,0-0.4c0-2,0.2-3.9,0.6-5.8c0-0.2,0.1-0.3,0.1-0.5c0.5-2,1.1-4,2-5.8
			c0.1-0.1,0.1-0.3,0.2-0.4c0.9-1.8,1.9-3.5,3.2-5c0.1-0.1,0.2-0.2,0.3-0.3c1.2-1.5,2.6-2.8,4.1-3.9c0.1-0.1,0.2-0.2,0.3-0.3
			c2.1-1.5,4.4-2.6,6.8-3.1C29.9,11.5,27.7,12.6,25.7,14.2"/>
		<path class="st43" d="M28.1,14.7c-0.1,0.1-0.1,0.2-0.2,0.3c-0.9,1.2-1.8,2.7-2.5,4.3c-0.1,0.1-0.1,0.2-0.2,0.4
			c-0.8,1.6-1.4,3.4-2,5.3c0,0.1-0.1,0.3-0.1,0.4c-0.5,1.9-1,3.9-1.3,6c0,0.2-0.1,0.3-0.1,0.5c-0.3,1.9-0.4,3.9-0.4,5.9
			c0,0.1,0,0.3,0,0.4c0,0.1,0,0.3,0,0.4c0,2,0.2,4,0.5,5.7c0,0.1,0.1,0.3,0.1,0.4c0.3,1.7,0.8,3.2,1.4,4.5c0,0.1,0.1,0.2,0.1,0.3
			c0.6,1.3,1.3,2.3,2.1,3.1c0.1,0.1,0.1,0.1,0.2,0.2c0.8,0.8,1.7,1.3,2.6,1.5c0.1,0,0.1,0,0.2,0.1c0.1,0,0.1,0,0.2,0l-0.2,0
			c0,0-0.1,0-0.2,0c-0.1,0-0.1,0-0.2-0.1c-1-0.2-1.9-0.8-2.7-1.5c-0.1-0.1-0.1-0.1-0.2-0.2c-0.8-0.8-1.6-1.9-2.2-3.1
			c0-0.1-0.1-0.2-0.1-0.3c-0.6-1.3-1.1-2.8-1.4-4.5c0-0.1-0.1-0.3-0.1-0.4c-0.3-1.7-0.5-3.6-0.6-5.7c0-0.1,0-0.3,0-0.4
			c0-0.1,0-0.3,0-0.4c0-2,0.1-3.9,0.4-5.9c0-0.2,0.1-0.3,0.1-0.5c0.3-2.1,0.7-4.1,1.3-6c0-0.1,0.1-0.3,0.1-0.4
			c0.6-1.9,1.3-3.7,2.1-5.3c0.1-0.1,0.1-0.2,0.2-0.4c0.8-1.6,1.7-3.1,2.7-4.3c0.1-0.1,0.1-0.2,0.2-0.3c1.3-1.7,2.8-3,4.4-3.7
			C30.8,11.7,29.4,13,28.1,14.7"/>
		<path class="st43" d="M31,15c0,0.1,0,0.2-0.1,0.3c-0.3,1.3-0.5,2.8-0.8,4.5c0,0.1,0,0.3-0.1,0.4c-0.2,1.7-0.4,3.5-0.6,5.4
			c0,0.2,0,0.3,0,0.4c-0.2,2-0.3,4-0.4,6c0,0.2,0,0.3,0,0.5c-0.1,1.9-0.1,3.9-0.1,5.9c0,0.1,0,0.3,0,0.4c0,0.2,0,0.3,0,0.4
			c0,2.1,0.1,3.9,0.2,5.7c0,0.1,0,0.3,0,0.4c0.1,1.7,0.3,3.2,0.4,4.4c0,0.1,0,0.2,0,0.3c0.2,1.2,0.4,2.2,0.6,3c0,0,0,0.1,0.1,0.2
			c0.3,0.7,0.5,1.2,0.8,1.3c0,0,0,0,0.1,0c0.1,0,0.1,0,0.2,0l-0.1,0h0c-0.1,0-0.1,0-0.2,0c0,0-0.1,0-0.1,0c-0.3-0.2-0.6-0.6-0.9-1.4
			c0,0,0-0.1-0.1-0.2c-0.3-0.8-0.5-1.8-0.7-3c0-0.1,0-0.2,0-0.3c-0.2-1.3-0.4-2.7-0.5-4.4c0-0.1,0-0.3,0-0.4
			c-0.1-1.7-0.2-3.6-0.2-5.6c0-0.1,0-0.3,0-0.4c0-0.1,0-0.3,0-0.4c0-2,0.1-3.9,0.2-5.9c0-0.2,0-0.3,0-0.5c0.1-2.1,0.3-4.1,0.5-6
			c0-0.1,0-0.3,0-0.4c0.2-1.9,0.4-3.8,0.7-5.4c0-0.1,0-0.3,0.1-0.4c0.3-1.7,0.6-3.2,0.9-4.5c0-0.1,0.1-0.2,0.1-0.3
			c0.5-1.8,1-3.2,1.5-4C31.8,11.8,31.4,13.2,31,15"/>
		<path class="st43" d="M34.1,15c0,0.1,0.1,0.2,0.1,0.3c0.4,1.3,0.8,2.8,1.1,4.5c0,0.1,0,0.2,0.1,0.4c0.3,1.7,0.6,3.5,0.8,5.4
			c0,0.1,0,0.3,0,0.4c0.2,1.9,0.4,4,0.5,6c0,0.2,0,0.3,0,0.5c0.1,1.9,0.2,3.9,0.2,5.9c0,0.1,0,0.3,0,0.4c0,0.1,0,0.3,0,0.5
			c0,2-0.1,3.9-0.3,5.6c0,0.1,0,0.3,0,0.4c-0.2,1.7-0.4,3.2-0.6,4.4c0,0.1,0,0.2-0.1,0.3c-0.3,1.2-0.6,2.2-0.9,3
			c0,0.1,0,0.1-0.1,0.2c-0.4,0.7-0.7,1.2-1.2,1.4c0,0-0.1,0-0.1,0c-0.1,0-0.2,0-0.2,0l-0.2,0c0.1,0,0.1,0,0.2,0c0,0,0.1,0,0.1,0
			c0.4-0.2,0.7-0.6,1-1.4c0,0,0-0.1,0.1-0.2c0.3-0.8,0.6-1.8,0.8-3c0-0.1,0-0.2,0.1-0.3c0.2-1.3,0.4-2.7,0.5-4.4c0-0.1,0-0.3,0-0.4
			c0.1-1.7,0.2-3.6,0.2-5.6c0-0.1,0-0.3,0-0.4c0-0.1,0-0.3,0-0.4c0-2,0-3.9-0.1-5.9c0-0.2,0-0.3,0-0.5C36.1,30,36,28,35.8,26
			c0-0.1,0-0.3,0-0.4c-0.2-1.9-0.5-3.8-0.8-5.4c0-0.1,0-0.3-0.1-0.4c-0.3-1.7-0.6-3.2-1-4.5c0-0.1-0.1-0.2-0.1-0.3
			c-0.5-1.8-1-3.2-1.6-4C32.9,11.8,33.5,13.2,34.1,15"/>
		<path class="st43" d="M37.1,14.6c0.1,0.1,0.2,0.2,0.2,0.3c1.1,1.2,2,2.7,2.9,4.3c0.1,0.1,0.1,0.2,0.2,0.4c0.9,1.6,1.6,3.4,2.3,5.3
			c0,0.1,0.1,0.3,0.1,0.4c0.6,1.9,1.1,3.9,1.4,5.9c0,0.1,0.1,0.3,0.1,0.5c0.3,1.9,0.4,3.9,0.4,5.9c0,0.1,0,0.3,0,0.4
			c0,0.1,0,0.3,0,0.4c0,2.1-0.3,4-0.6,5.7c0,0.1-0.1,0.3-0.1,0.4c-0.4,1.7-0.9,3.2-1.6,4.5c0,0.1-0.1,0.2-0.2,0.3
			c-0.7,1.3-1.5,2.3-2.4,3.2c-0.1,0.1-0.1,0.1-0.2,0.2c-0.9,0.8-1.9,1.3-3,1.6c0,0-0.1,0-0.1,0l-0.3,0.1c0.1,0,0.1,0,0.2,0
			c1-0.2,2-0.8,2.9-1.6c0.1-0.1,0.1-0.1,0.2-0.2c0.9-0.8,1.6-1.9,2.3-3.2c0.1-0.1,0.1-0.2,0.1-0.3c0.6-1.3,1.2-2.8,1.5-4.5
			c0-0.1,0.1-0.3,0.1-0.4c0.4-1.7,0.6-3.6,0.6-5.7c0-0.2,0-0.3,0-0.5c0-0.1,0-0.3,0-0.4c0-2-0.1-3.9-0.4-5.9c0-0.2,0-0.3-0.1-0.5
			c-0.3-2.1-0.8-4.1-1.4-5.9c0-0.2-0.1-0.3-0.1-0.4c-0.6-1.9-1.3-3.7-2.2-5.3c-0.1-0.1-0.1-0.2-0.2-0.4c-0.8-1.6-1.8-3-2.8-4.3
			c-0.1-0.1-0.2-0.2-0.2-0.3c-1.4-1.7-3-2.9-4.6-3.7C34,11.7,35.6,13,37.1,14.6"/>
		<path class="st43" d="M39.3,14c0.1,0.1,0.2,0.2,0.4,0.2c1.5,1.1,3,2.4,4.2,3.9c0.1,0.1,0.2,0.2,0.3,0.3c1.3,1.5,2.4,3.2,3.3,5
			c0.1,0.1,0.1,0.3,0.2,0.4c0.9,1.8,1.6,3.8,2.1,5.8c0,0.1,0.1,0.3,0.1,0.4c0.4,1.9,0.6,3.8,0.6,5.8c0,0.1,0,0.3,0,0.4
			c0,0.1,0,0.3,0,0.4c-0.1,2.1-0.4,4-1,5.8c0,0.1-0.1,0.3-0.1,0.4c-0.6,1.8-1.4,3.3-2.3,4.7c-0.1,0.1-0.1,0.2-0.2,0.3
			c-1,1.4-2.2,2.5-3.5,3.5c-0.1,0.1-0.2,0.1-0.3,0.2c-0.8,0.5-1.7,1-2.6,1.4l-0.1,0l-0.2,0.1c0.9-0.4,1.9-0.8,2.7-1.4
			c0.1-0.1,0.2-0.1,0.3-0.2c1.3-0.9,2.4-2.1,3.4-3.4c0.1-0.1,0.1-0.2,0.2-0.3c0.9-1.4,1.7-3,2.3-4.7c0-0.1,0.1-0.3,0.1-0.4
			c0.5-1.8,0.9-3.7,0.9-5.8c0-0.2,0-0.3,0-0.5c0-0.1,0-0.3,0-0.4c0-2-0.2-3.9-0.6-5.8c0-0.1-0.1-0.3-0.1-0.4c-0.5-2-1.2-3.9-2-5.8
			c-0.1-0.1-0.1-0.3-0.2-0.4c-0.9-1.8-2-3.5-3.2-5c-0.1-0.1-0.2-0.2-0.3-0.3c-1.3-1.5-2.7-2.8-4.2-3.9c-0.1-0.1-0.2-0.2-0.3-0.2
			c-2.1-1.5-4.5-2.6-6.9-3.1C34.8,11.5,37.2,12.5,39.3,14"/>
		<path class="st43" d="M40.6,13.2c0.1,0.1,0.3,0.1,0.4,0.2c1.8,0.9,3.5,2.1,5,3.4c0.1,0.1,0.2,0.2,0.3,0.3c1.5,1.4,2.8,2.9,3.9,4.6
			c0.1,0.1,0.2,0.3,0.2,0.4c1,1.7,1.9,3.6,2.5,5.5c0,0.1,0.1,0.3,0.1,0.4c0.5,1.8,0.8,3.8,0.8,5.7c0,0.1,0,0.3,0,0.4
			c0,0.2,0,0.3,0,0.4c-0.1,2.1-0.5,4-1.1,5.9c0,0.1-0.1,0.3-0.1,0.4c-0.7,1.8-1.6,3.5-2.8,5c-0.1,0.1-0.2,0.2-0.3,0.3
			c-0.2,0.3-0.4,0.5-0.7,0.8l-0.8,0.8c0.4-0.5,0.9-1,1.3-1.5c0.1-0.1,0.2-0.2,0.2-0.3c1.2-1.5,2.1-3.2,2.8-5
			c0.1-0.1,0.1-0.3,0.2-0.4c0.6-1.8,1-3.8,1.1-5.9c0-0.2,0-0.3,0-0.5c0-0.1,0-0.3,0-0.4c0-2-0.3-3.9-0.8-5.7c0-0.1-0.1-0.3-0.1-0.4
			c-0.6-2-1.4-3.8-2.4-5.5c-0.1-0.1-0.2-0.3-0.2-0.4c-1.1-1.7-2.4-3.3-3.9-4.7c-0.1-0.1-0.2-0.2-0.3-0.3c-1.5-1.4-3.2-2.5-5-3.5
			C40.8,13.4,40.7,13.4,40.6,13.2c-2.6-1.2-5.4-2-8.3-2.2C35.2,11.2,38,12,40.6,13.2"/>
		<path class="st43" d="M40.8,12.4c0.1,0,0.3,0.1,0.4,0.2c1.9,0.7,3.6,1.7,5.1,2.9c0.1,0.1,0.2,0.2,0.3,0.3c1.5,1.2,2.9,2.6,4,4.2
			c0.1,0.1,0.2,0.2,0.2,0.4c0.7,1,1.3,2.1,1.8,3.2l0.6,1.6l0,0.1c-0.6-1.7-1.4-3.2-2.3-4.7c-0.1-0.1-0.2-0.2-0.3-0.4
			c-1.1-1.6-2.5-3-4-4.3c-0.1-0.1-0.2-0.2-0.3-0.3c-1.6-1.2-3.3-2.2-5.2-2.9C41.1,12.5,40.9,12.5,40.8,12.4
			c-2.6-0.9-5.5-1.5-8.5-1.4C35.3,10.9,38.2,11.4,40.8,12.4"/>
	</g>
	<path class="st44" d="M55.3,7.3C51.9,4,45.3,4.7,38,8.5c0.8,0.2,1.6,0.5,2.4,0.8c5.1-2.3,9.3-2.7,11.5-0.6c2,1.9,2.1,5.6,0.5,10.2
		c-2,5.9-6.7,13.2-13.3,20.2C32.7,45.9,25.7,51,20,53.4c-4.6,1.9-8.4,2.1-10.5,0.1c-2.3-2.1-2.1-6.4,0-11.7
		c-0.3-0.7-0.6-1.4-0.8-2.2c-3.2,7.4-3.5,13.9,0,17.1c3.4,3.2,9.8,2.6,17-1c5.6-2.8,11.7-7.4,17.3-13.3c5.5-5.9,9.7-12.1,12.2-17.8
		C58.5,17.1,58.8,10.6,55.3,7.3z"/>
</g>
</svg>
