<svg xmlns="http://www.w3.org/2000/svg" xmlns:xlink="http://www.w3.org/1999/xlink" width="45" height="45" viewBox="0 0 45 45">
  <defs>
    <clipPath id="clip-path">
      <rect id="Rectangle_898" data-name="Rectangle 898" width="21.607" height="14.669" fill="#fff"/>
    </clipPath>
  </defs>
  <g id="Group_2994" data-name="Group 2994" transform="translate(22433 560)">
    <g id="Ellipse_54" data-name="Ellipse 54" transform="translate(-22433 -560)" fill="none" stroke="#fff" stroke-width="1">
      <circle cx="22.5" cy="22.5" r="22.5" stroke="none"/>
      <circle cx="22.5" cy="22.5" r="22" fill="none"/>
    </g>
    <g id="Group_2092" data-name="Group 2092" transform="translate(-22421 -544)" clip-path="url(#clip-path)">
      <path id="Path_713" data-name="Path 713" d="M21.2,2.965,19.238.652a1.848,1.848,0,0,0-2.6-.217l-.965.752-.011,0a13.084,13.084,0,0,0-4.176-.75,3.537,3.537,0,0,0-.62.152l-.007,0-.007,0a4.153,4.153,0,0,0-3.26.054l-.03.012A2.319,2.319,0,0,1,6.6.883l-.468,0C5.065.872,4.777.87,4.574.722A1.733,1.733,0,0,0,2.012.829L.407,3.016c-.8.865-.228,2.076.053,2.556l.814,1.417.045.049a1.833,1.833,0,0,0,.545.355l.029.013-.686.675A1.148,1.148,0,0,0,1.195,9.7l.4.4a1.134,1.134,0,0,0,.429.273l.018.007,0,.019a1.141,1.141,0,0,0,.3,1.075l.4.4a1.139,1.139,0,0,0,.809.341,1.158,1.158,0,0,0,.432-.081l.02-.008.008.02a1.132,1.132,0,0,0,.251.389l.4.4a1.139,1.139,0,0,0,.817.341,1.15,1.15,0,0,0,.5-.116l.02-.01.009.021a1.133,1.133,0,0,0,.238.357l.4.4a1.148,1.148,0,0,0,1.621.013l.272-.268.55.463a1.467,1.467,0,0,0,.608.345l.015.006a1.468,1.468,0,0,0,1.75-.3,1.447,1.447,0,0,0,.291-.466l.011-.029.172.161a1.446,1.446,0,0,0,.6.34l.015.006a1.468,1.468,0,0,0,1.75-.3,1.457,1.457,0,0,0,.357-.678l.006-.025.023.009a1.466,1.466,0,0,0,2.006-1.413,1.519,1.519,0,0,0-.02-.187l0-.028.028,0a1.357,1.357,0,0,0,.239.013,1.468,1.468,0,0,0,.955-2.538l-.336-.314.034-.011a1.839,1.839,0,0,0,.639-.355l2.71-2.727a2.044,2.044,0,0,0,.669-1.286A1.845,1.845,0,0,0,21.2,2.965M2.568,9.635h0a.368.368,0,0,1-.153.035H2.4a.368.368,0,0,1-.256-.109l-.4-.4a.372.372,0,0,1,0-.525l2.113-2.08a.373.373,0,0,1,.525,0l.4.4a.372.372,0,0,1,.068.422ZM3.8,11.343h0a.359.359,0,0,1-.249.106H3.537a.364.364,0,0,1-.257-.11l-.4-.4a.372.372,0,0,1,0-.524l.165-.159a1.151,1.151,0,0,0,.163-.133L5.326,8.037a1.037,1.037,0,0,0,.133-.159l.207-.206a.373.373,0,0,1,.525,0l.4.4a.374.374,0,0,1,0,.526Zm1.917,1.065a.381.381,0,0,1-.525,0L4.8,12a.372.372,0,0,1,0-.525L6.726,9.582a.369.369,0,0,1,.263-.106h0a.37.37,0,0,1,.262.111l.4.4a.372.372,0,0,1,0,.525Zm2.926.069-.943.928a.369.369,0,0,1-.255.107H7.441a.367.367,0,0,1-.262-.111l-.4-.4a.372.372,0,0,1,0-.525l.942-.928a.38.38,0,0,1,.261-.106.373.373,0,0,1,.265.11l.4.4a.373.373,0,0,1,0,.526m8.524-1.893a.819.819,0,0,1-.736.243l-.008,0a.9.9,0,0,1-.108-.085c-1.43-1.352-2.314-2.2-2.627-2.518L13.6,8.135l-.017.023-.017-.01a.459.459,0,0,0-.237-.067.444.444,0,0,0-.449.437c0,.013,0,.025.006.038l.11.259.039.054,2.437,2.284a.81.81,0,0,1-.7,1.388l-.008,0a.85.85,0,0,1-.11-.085l-.079-.075,0,0a1.456,1.456,0,0,0-.362-.533L12,9.924l-.077-.04a.455.455,0,0,0-.19-.043.444.444,0,0,0-.45.437.429.429,0,0,0,.174.343l.015.011,0,0,2.236,1.989,0,.007a.831.831,0,0,1,.017.141.807.807,0,0,1-.952.823l-.008,0a.789.789,0,0,1-.109-.085l-.929-.869-.036-.04c-.42-.462-.683-.743-.783-.839l-.014-.012a.449.449,0,0,0-.335-.148.444.444,0,0,0-.449.437.435.435,0,0,0,.267.4l.481.449,0,.006a.809.809,0,0,1-.93.992h0l0,0a.854.854,0,0,1-.113-.089l-.751-.635.128-.126A1.147,1.147,0,0,0,9.2,11.408l-.4-.4a1.141,1.141,0,0,0-.369-.252l-.02-.008.009-.02A1.154,1.154,0,0,0,8.2,9.447l-.4-.4a1.133,1.133,0,0,0-.4-.262l-.02-.008.008-.02a1.156,1.156,0,0,0,.077-.4,1.14,1.14,0,0,0-.328-.813l-.4-.4a1.136,1.136,0,0,0-.809-.341,1.167,1.167,0,0,0-.314.042L5.6,6.84l-.007-.018a1.136,1.136,0,0,0-.256-.4l-.4-.4A1.149,1.149,0,0,0,3.32,6l-.653.642H2.656l-.041,0a.953.953,0,0,1-.645-.224L1.111,4.964C.836,4.39.7,4.013,1.066,3.616L2.67,1.43c.378-.4.683-.494,1.378.013.441.321,1,.324,2.114.33h.029l.406,0a3.38,3.38,0,0,0,1.332-.31,2.949,2.949,0,0,1,1.548-.272l.065.006-.056.033A4.729,4.729,0,0,0,7.68,2.941a1.519,1.519,0,0,0-.027,1.472c.594,1.1,1.826.593,2.724.225.716-.293,1.281-.5,1.489-.289.867.882,4.17,4.208,4.487,4.365l.78.725a.811.811,0,0,1,.038,1.146m3.536-6.311A1.133,1.133,0,0,1,20.331,5L17.612,7.736a.96.96,0,0,1-1.075.084l-.495-.461-.1-.1C14.17,5.432,13.013,4.243,12.5,3.724a1.173,1.173,0,0,0-.88-.353,4.481,4.481,0,0,0-1.582.441c-1.2.49-1.453.453-1.6.176a.654.654,0,0,1,.038-.644,5.225,5.225,0,0,1,3.132-2.028,13.3,13.3,0,0,1,4.023.793l.239.08,1.345-1.075a.956.956,0,0,1,1.343.113l1.961,2.314a.951.951,0,0,1,.188.732" transform="translate(0 0)" fill="#fff"/>
    </g>
  </g>
</svg>
