<svg xmlns="http://www.w3.org/2000/svg" xmlns:xlink="http://www.w3.org/1999/xlink" width="45" height="45" viewBox="0 0 45 45">
  <defs>
    <clipPath id="clip-path">
      <rect id="Rectangle_895" data-name="Rectangle 895" width="20.125" height="20.249" fill="#fff"/>
    </clipPath>
  </defs>
  <g id="Group_2993" data-name="Group 2993" transform="translate(23294 560)">
    <g id="Ellipse_53" data-name="Ellipse 53" transform="translate(-23294 -560)" fill="none" stroke="#fff" stroke-width="1">
      <circle cx="22.5" cy="22.5" r="22.5" stroke="none"/>
      <circle cx="22.5" cy="22.5" r="22" fill="none"/>
    </g>
    <g id="Group_2084" data-name="Group 2084" transform="translate(-23282 -548)">
      <g id="Group_2083" data-name="Group 2083" transform="translate(0 0)" clip-path="url(#clip-path)">
        <path id="Path_705" data-name="Path 705" d="M19.848.278c-.483-.484-1.442-.336-2.853.438a13.081,13.081,0,0,0-2.457,1.733L11.96,5.028l-.017,0L1.287,3.188a.512.512,0,0,0-.4.1A.506.506,0,0,0,.7,3.663l-.043.971A.5.5,0,0,0,.8,5.014.511.511,0,0,0,.915,5.1L5.972,7.871l1.7,1.444-.026.026L5.153,11.835c-.079.079-.179.189-.29.32l-.012.015-.018,0-3.756-.584a.5.5,0,0,0-.541.3l-.494,1.14a.5.5,0,0,0,.21.638l2.642,1.533-.013.028c-.467,1.034-.507,1.756-.119,2.143s1.082.349,2.085-.093l.028-.012L6.465,20a.509.509,0,0,0,.08.1.5.5,0,0,0,.356.149.516.516,0,0,0,.2-.042l1.14-.494a.506.506,0,0,0,.3-.541l-.6-3.882.015-.012c.139-.116.257-.222.339-.305l2.52-2.52,1.44,1.7,2.775,5.062a.506.506,0,0,0,.465.262l.972-.043a.5.5,0,0,0,.476-.591L15.1,8.165l2.578-2.579A13.04,13.04,0,0,0,19.41,3.131c.773-1.41.921-2.37.437-2.853M6.405,7.194ZM6.59,7.07a.509.509,0,0,0-.085-.059L1.676,4.365l0-.085.037.007L11.086,5.9l-.046.046L8.389,8.6l-.023-.02ZM3.364,14.3,1.148,13.01l.16-.37.026,0,2.817.438-.031.044c-.273.385-.521.768-.738,1.14ZM7.113,19.1,7.1,19.075,5.783,16.808l.138-.1c.349-.207.7-.438,1.058-.688l.044-.031.459,2.952Zm8.732-.655-.084,0-.01-.018L13.113,13.62a.516.516,0,0,0-.058-.084l-1.53-1.8.022-.022L14.223,9.04ZM16.962,4.873,7.576,14.258a10.485,10.485,0,0,1-4.053,2.384H3.49l-.007-.033a10.573,10.573,0,0,1,2.384-4.06l9.386-9.386C16.331,2.085,18.659.9,19.11.989l.022,0,0,.021c.1.446-1.087,2.77-2.175,3.858" transform="translate(0 0)" fill="#fff"/>
      </g>
    </g>
  </g>
</svg>
