<svg xmlns="http://www.w3.org/2000/svg" xmlns:xlink="http://www.w3.org/1999/xlink" width="45" height="45" viewBox="0 0 45 45">
  <defs>
    <clipPath id="clip-path">
      <rect id="Rectangle_896" data-name="Rectangle 896" width="22.96" height="17.1" fill="#fff"/>
    </clipPath>
  </defs>
  <g id="Group_2992" data-name="Group 2992" transform="translate(22873 546)">
    <g id="Ellipse_54" data-name="Ellipse 54" transform="translate(-22873 -546)" fill="none" stroke="#fff" stroke-width="1">
      <circle cx="22.5" cy="22.5" r="22.5" stroke="none"/>
      <circle cx="22.5" cy="22.5" r="22" fill="none"/>
    </g>
    <g id="Group_2085" data-name="Group 2085" transform="translate(-22862 -532)">
      <g id="Group_2085-2" data-name="Group 2085" transform="translate(0 0)" clip-path="url(#clip-path)">
        <path id="Path_706" data-name="Path 706" d="M8.647,6.43a2.771,2.771,0,0,0,2.717-2.994V3.377a4.235,4.235,0,0,0-.341-2.083A2.462,2.462,0,0,0,8.647.224C5.93.224,5.93,2.394,5.93,3.436A2.771,2.771,0,0,0,8.647,6.43m0-5.234c1.08,0,1.39.328,1.528.574a3.556,3.556,0,0,1,.216,1.606v.059A1.836,1.836,0,0,1,8.647,5.458,1.836,1.836,0,0,1,6.9,3.436C6.9,2.083,7.024,1.2,8.647,1.2" transform="translate(-3.19 -0.121)" fill="#fff"/>
        <path id="Path_707" data-name="Path 707" d="M21.738,15.676a2.771,2.771,0,0,0,2.716-2.994v-.06a4.238,4.238,0,0,0-.34-2.082,2.462,2.462,0,0,0-2.376-1.07c-2.717,0-2.717,2.17-2.717,3.212a2.771,2.771,0,0,0,2.717,2.994m0-5.234c1.081,0,1.39.328,1.529.574a3.568,3.568,0,0,1,.215,1.606v.06a1.763,1.763,0,1,1-3.489,0c0-1.353.122-2.24,1.745-2.24" transform="translate(-10.233 -5.094)" fill="#fff"/>
        <path id="Path_708" data-name="Path 708" d="M20.866,22.827c-.257-.052-.444-.087-2.254,1.838-2.059-1.916-2.3-1.861-2.531-1.807a3.893,3.893,0,0,0-2.99,3.759v.878c0,.688.647,1.2,1.922,1.515a15.357,15.357,0,0,0,3.534.362,15.359,15.359,0,0,0,3.535-.362C23.358,28.693,24,28.183,24,27.495v-.878a3.864,3.864,0,0,0-3.138-3.79m2.166,3.79v.878c0,.249-1.379.9-4.484.9s-4.484-.655-4.484-.9v-.878a2.938,2.938,0,0,1,2.093-2.774A25.632,25.632,0,0,1,18.3,25.706l.357.336.334-.36c.78-.841,1.551-1.614,1.858-1.864a2.916,2.916,0,0,1,2.182,2.8" transform="translate(-7.043 -12.272)" fill="#fff"/>
        <path id="Path_709" data-name="Path 709" d="M6.28,19.47l.172-.336-.377.011c-.2.006-.406.01-.619.01-3.105,0-4.484-.656-4.484-.9v-.878A2.938,2.938,0,0,1,3.065,14.6a25.677,25.677,0,0,1,2.145,1.863l.357.337.334-.36c.779-.84,1.55-1.613,1.857-1.864a3.009,3.009,0,0,1,.436.15l.265.114.044-.285c.03-.2.061-.366.094-.518l.04-.185-.176-.069a3.857,3.857,0,0,0-.686-.2c-.258-.051-.445-.087-2.254,1.838C3.459,13.5,3.22,13.559,2.99,13.614A3.892,3.892,0,0,0,0,17.373v.878c0,.688.647,1.2,1.922,1.515a15.352,15.352,0,0,0,3.534.362c.133,0,.264,0,.394,0l.152,0,.053-.143a4.574,4.574,0,0,1,.225-.508" transform="translate(0 -7.299)" fill="#fff"/>
        <path id="Path_710" data-name="Path 710" d="M34.722,6.207a2.771,2.771,0,0,0,2.717-2.994c0-1.043,0-3.212-2.717-3.212a2.463,2.463,0,0,0-2.376,1.07A4.237,4.237,0,0,0,32,3.153v.059a2.771,2.771,0,0,0,2.717,2.994m0-.973a1.835,1.835,0,0,1-1.744-2.022v-.06a3.553,3.553,0,0,1,.216-1.606c.138-.246.447-.574,1.528-.574,1.623,0,1.744.887,1.744,2.24a1.835,1.835,0,0,1-1.744,2.022" transform="translate(-17.218 0)" fill="#fff"/>
        <path id="Path_711" data-name="Path 711" d="M36.649,13.39c-.231-.056-.47-.112-2.532,1.806-1.809-1.925-2.006-1.886-2.253-1.838a3.851,3.851,0,0,0-.686.2L31,13.627l.04.185c.033.153.064.322.094.518l.044.285.264-.114a3.014,3.014,0,0,1,.437-.15c.334.273,1.2,1.151,1.857,1.864l.334.36.357-.337a25.579,25.579,0,0,1,2.145-1.863,2.938,2.938,0,0,1,2.092,2.774v.878c0,.249-1.379.9-4.484.9-.213,0-.418,0-.619-.01l-.377-.011.172.335a4.527,4.527,0,0,1,.225.508l.053.143.152,0c.131,0,.262,0,.394,0a15.335,15.335,0,0,0,3.534-.362c1.275-.317,1.922-.827,1.922-1.515v-.878a3.892,3.892,0,0,0-2.989-3.759" transform="translate(-16.678 -7.179)" fill="#fff"/>
      </g>
    </g>
  </g>
</svg>
