<svg xmlns="http://www.w3.org/2000/svg" xmlns:xlink="http://www.w3.org/1999/xlink" width="21.974" height="15.771" viewBox="0 0 21.974 15.771">
  <defs>
    <clipPath id="clip-path">
      <rect id="Rectangle_1022" data-name="Rectangle 1022" width="19.786" height="10.442" transform="translate(0 0)" fill="none"/>
    </clipPath>
  </defs>
  <g id="Group_2572" data-name="Group 2572" transform="translate(0 5.785) rotate(-17)">
    <g id="Group_2379" data-name="Group 2379" transform="translate(0 0)" clip-path="url(#clip-path)">
      <path id="Path_858" data-name="Path 858" d="M0,2.931V0H19.786V3.16a2.441,2.441,0,0,0-2.7,2.427,2.426,2.426,0,0,0,2.7,2.015v2.84H0V7.465A2.334,2.334,0,0,0,2.29,5.4,2.346,2.346,0,0,0,0,2.931" transform="translate(0 0)" fill="#333"/>
      <path id="Path_859" data-name="Path 859" d="M2.892,1.9a2.333,2.333,0,0,1-.37,1.437,1.287,1.287,0,0,1-1.086.481A1.254,1.254,0,0,1,.374,3.327,2.324,2.324,0,0,1,0,1.9Q0,0,1.436,0a1.277,1.277,0,0,1,1.08.493A2.283,2.283,0,0,1,2.892,1.9M1.049,1.91a2.481,2.481,0,0,0,.094.788q.094.26.3.26.4,0,.4-1.049T1.444.87q-.208,0-.3.256a2.441,2.441,0,0,0-.094.784M5.754.087,2.38,6.171h-1L4.756.087Zm1.4,4.244a2.325,2.325,0,0,1-.37,1.433A1.287,1.287,0,0,1,5.7,6.245a1.254,1.254,0,0,1-1.061-.493,2.315,2.315,0,0,1-.375-1.421q0-1.9,1.436-1.9a1.277,1.277,0,0,1,1.08.493,2.283,2.283,0,0,1,.377,1.408M5.309,4.34a2.481,2.481,0,0,0,.094.788q.094.26.3.26.4,0,.4-1.049T5.7,3.3q-.208,0-.3.256a2.441,2.441,0,0,0-.094.784" transform="translate(6.317 1.892)" fill="#fcfcfc"/>
    </g>
  </g>
</svg>
