<svg id="Group_2571" data-name="Group 2571" xmlns="http://www.w3.org/2000/svg" xmlns:xlink="http://www.w3.org/1999/xlink" width="15.556" height="20.612" viewBox="0 0 15.556 20.612">
  <defs>
    <clipPath id="clip-path">
      <rect id="Rectangle_1021" data-name="Rectangle 1021" width="15.556" height="20.612" fill="none"/>
    </clipPath>
  </defs>
  <g id="Group_2377" data-name="Group 2377" clip-path="url(#clip-path)">
    <path id="Path_842" data-name="Path 842" d="M30.881,5.4a1.949,1.949,0,1,1,1.95-1.95,1.952,1.952,0,0,1-1.95,1.95" transform="translate(-23.249 -1.205)" fill="#333"/>
    <path id="Path_843" data-name="Path 843" d="M29.677.589a1.655,1.655,0,1,1-1.655,1.655A1.655,1.655,0,0,1,29.677.589m0-.589a2.244,2.244,0,1,0,2.244,2.244A2.247,2.247,0,0,0,29.677,0" transform="translate(-22.044)" fill="#fff"/>
    <path id="Path_844" data-name="Path 844" d="M29.892,26.887c1.061.082,1.094-.67,1.094-.67V23.981a1.634,1.634,0,0,0-.53-1.21,1.8,1.8,0,0,0-1.223-.456H27.485a1.8,1.8,0,0,0-1.223.456,1.635,1.635,0,0,0-.53,1.21v2.237s.033.751,1.094.67" transform="translate(-20.678 -17.932)" fill="#333"/>
    <path id="Path_845" data-name="Path 845" d="M29.892,26.887c1.061.082,1.094-.67,1.094-.67V23.981a1.634,1.634,0,0,0-.53-1.21,1.8,1.8,0,0,0-1.223-.456H27.485a1.8,1.8,0,0,0-1.223.456,1.635,1.635,0,0,0-.53,1.21v2.237s.033.751,1.094.67" transform="translate(-20.678 -17.932)" fill="none" stroke="#fff" stroke-miterlimit="10" stroke-width="1"/>
    <path id="Path_846" data-name="Path 846" d="M8.149,20.6a1.95,1.95,0,1,1,1.95-1.95,1.952,1.952,0,0,1-1.95,1.95" transform="translate(-4.982 -13.417)" fill="#333"/>
    <path id="Path_847" data-name="Path 847" d="M6.944,15.787a1.655,1.655,0,1,1-1.655,1.655,1.655,1.655,0,0,1,1.655-1.655m0-.589a2.244,2.244,0,1,0,2.244,2.244A2.247,2.247,0,0,0,6.944,15.2" transform="translate(-3.777 -12.213)" fill="#fff"/>
    <path id="Path_848" data-name="Path 848" d="M4.42,47.76q-.072,0-.143-.005A1.912,1.912,0,0,1,2.532,45.79l.057-3.614A1.059,1.059,0,0,1,1.5,41.223v-2.25a1.948,1.948,0,0,1,.625-1.427,2.086,2.086,0,0,1,1.423-.534H5.3a2.084,2.084,0,0,1,1.423.534,1.943,1.943,0,0,1,.625,1.419V41.21a1.06,1.06,0,0,1-1.089.965l.057,3.616A1.92,1.92,0,0,1,4.624,47.75c-.055.006-.11.009-.167.01Z" transform="translate(-1.205 -29.743)" fill="#333"/>
    <path id="Path_849" data-name="Path 849" d="M4.091,36.1a1.8,1.8,0,0,1,1.223.456,1.635,1.635,0,0,1,.53,1.21v2.237s-.029.676-.938.676q-.074,0-.156-.006l.062,3.917a1.623,1.623,0,0,1-1.422,1.66q-.071.007-.143.008H3.217q-.062,0-.124,0a1.625,1.625,0,0,1-1.472-1.666l.062-3.914q-.082.006-.156.006c-.909,0-.938-.676-.938-.676V37.768a1.636,1.636,0,0,1,.53-1.21A1.8,1.8,0,0,1,2.342,36.1H4.091Zm0-.589H2.342a2.38,2.38,0,0,0-1.622.611A2.232,2.232,0,0,0,0,37.754v2.277a1.323,1.323,0,0,0,1.085,1.193L1.032,44.58a2.207,2.207,0,0,0,2.019,2.264c.055,0,.11.006.165.006h.041c.063,0,.127,0,.19-.011A2.216,2.216,0,0,0,5.4,44.582l-.053-3.358a1.323,1.323,0,0,0,1.085-1.193V37.754a2.232,2.232,0,0,0-.72-1.629,2.38,2.38,0,0,0-1.622-.611" transform="translate(0 -28.537)" fill="#fff"/>
    <path id="Path_850" data-name="Path 850" d="M54.6,20.6a1.95,1.95,0,1,1,1.95-1.95A1.952,1.952,0,0,1,54.6,20.6" transform="translate(-42.306 -13.417)" fill="#333"/>
    <path id="Path_851" data-name="Path 851" d="M53.391,15.787a1.655,1.655,0,1,1-1.655,1.655,1.655,1.655,0,0,1,1.655-1.655m0-.589a2.244,2.244,0,1,0,2.244,2.244A2.247,2.247,0,0,0,53.391,15.2" transform="translate(-41.1 -12.213)" fill="#fff"/>
    <path id="Path_852" data-name="Path 852" d="M50.867,47.76q-.072,0-.143-.005a1.912,1.912,0,0,1-1.745-1.965l.057-3.614a1.059,1.059,0,0,1-1.089-.952v-2.25a1.948,1.948,0,0,1,.625-1.427,2.086,2.086,0,0,1,1.423-.534h1.748a2.084,2.084,0,0,1,1.423.534,1.943,1.943,0,0,1,.625,1.419V41.21a1.06,1.06,0,0,1-1.089.965l.057,3.616a1.92,1.92,0,0,1-1.688,1.958c-.055.006-.11.009-.167.01Z" transform="translate(-38.529 -29.743)" fill="#333"/>
    <path id="Path_853" data-name="Path 853" d="M50.538,36.1a1.8,1.8,0,0,1,1.223.456,1.635,1.635,0,0,1,.53,1.21v2.237s-.029.676-.938.676q-.074,0-.156-.006l.062,3.917a1.623,1.623,0,0,1-1.422,1.66q-.071.007-.143.008h-.031q-.062,0-.124,0a1.625,1.625,0,0,1-1.472-1.666l.062-3.914q-.082.006-.156.006c-.909,0-.938-.676-.938-.676V37.768a1.636,1.636,0,0,1,.53-1.21,1.8,1.8,0,0,1,1.223-.456h1.748Zm0-.589H48.789a2.38,2.38,0,0,0-1.622.611,2.232,2.232,0,0,0-.72,1.629v2.277a1.323,1.323,0,0,0,1.085,1.193l-.053,3.356A2.207,2.207,0,0,0,49.5,46.843c.055,0,.11.006.165.006H49.7c.063,0,.127,0,.19-.011a2.216,2.216,0,0,0,1.953-2.256l-.053-3.358a1.323,1.323,0,0,0,1.085-1.193V37.754a2.232,2.232,0,0,0-.72-1.629,2.38,2.38,0,0,0-1.622-.611" transform="translate(-37.324 -28.537)" fill="#fff"/>
    <path id="Path_854" data-name="Path 854" d="M31.533,34.608a1.851,1.851,0,1,1,1.851-1.851,1.853,1.853,0,0,1-1.851,1.851" transform="translate(-23.852 -24.835)" fill="#333"/>
    <path id="Path_855" data-name="Path 855" d="M30.731,30.3a1.655,1.655,0,1,1-1.655,1.655A1.655,1.655,0,0,1,30.731,30.3m0-.393a2.048,2.048,0,1,0,2.048,2.048,2.05,2.05,0,0,0-2.048-2.048" transform="translate(-23.049 -24.032)" fill="#fff"/>
    <path id="Path_856" data-name="Path 856" d="M27.806,60.772c-.046,0-.091,0-.136,0A1.814,1.814,0,0,1,26.016,58.9l.059-3.709a.985.985,0,0,1-1.091-.863V52.083a1.826,1.826,0,0,1,.593-1.355,1.987,1.987,0,0,1,1.356-.508h1.748a1.987,1.987,0,0,1,1.356.508,1.824,1.824,0,0,1,.593,1.35V54.32a.985.985,0,0,1-1.091.872L29.6,58.9A1.82,1.82,0,0,1,28,60.762c-.052.006-.105.008-.159.009Z" transform="translate(-20.076 -40.356)" fill="#333"/>
    <path id="Path_857" data-name="Path 857" d="M27.876,49.615a1.8,1.8,0,0,1,1.223.456,1.635,1.635,0,0,1,.53,1.21v2.237s-.029.676-.938.676q-.074,0-.156-.006L28.6,58.1a1.622,1.622,0,0,1-1.422,1.66q-.071.007-.143.008H27q-.062,0-.124,0A1.625,1.625,0,0,1,25.407,58.1l.062-3.914q-.082.006-.156.006c-.909,0-.938-.676-.938-.676V51.28a1.636,1.636,0,0,1,.53-1.21,1.8,1.8,0,0,1,1.223-.456h1.748Zm0-.393H26.128a2.185,2.185,0,0,0-1.489.559,2.04,2.04,0,0,0-.656,1.49v2.264a1.138,1.138,0,0,0,1.088,1.037L25.014,58.1a2.01,2.01,0,0,0,1.837,2.064c.05,0,.1.005.152.005h.037c.058,0,.117,0,.174-.01A2.019,2.019,0,0,0,28.99,58.1l-.056-3.526a1.138,1.138,0,0,0,1.088-1.037V51.28a2.045,2.045,0,0,0-.657-1.5,2.184,2.184,0,0,0-1.489-.559" transform="translate(-19.271 -39.553)" fill="#fff"/>
  </g>
</svg>
