<svg xmlns="http://www.w3.org/2000/svg" width="20.727" height="19.449" viewBox="0 0 20.727 19.449">
  <path id="Exclusion_2" data-name="Exclusion 2" d="M5.167,19.449H.585V6.371H5.167V19.449Zm6.431-.167H7.024V6.2H11.6v1.76A5.929,5.929,0,0,1,13.411,6.3a4.746,4.746,0,0,1,2.332-.51,4.875,4.875,0,0,1,3.2,1.091c1.181,1.017,1.78,2.687,1.78,4.965v7.434H16.166V12.14a4.034,4.034,0,0,0-.425-2.014,1.838,1.838,0,0,0-1.711-.916,2.18,2.18,0,0,0-1.859.921,3.559,3.559,0,0,0-.573,2.046v7.106ZM2.555,4.615A2.443,2.443,0,0,1,0,2.308,2.444,2.444,0,0,1,2.555,0,2.443,2.443,0,0,1,5.109,2.308,2.442,2.442,0,0,1,2.555,4.615Z" fill="#f15d23"/>
</svg>
