<svg xmlns="http://www.w3.org/2000/svg" width="23.809" height="19.345" viewBox="0 0 23.809 19.345">
  <path id="Fill-1" d="M41.131,21.429a7.94,7.94,0,0,1-3.063,1.087h0a4.911,4.911,0,0,0-8.338,4.49h0A13.6,13.6,0,0,1,19.6,21.91a4.914,4.914,0,0,0,1.49,6.49,3.157,3.157,0,0,1-2.145-.556,4.734,4.734,0,0,0,3.789,4.8,3.889,3.889,0,0,1-2.045.156c.156,1.444,2.179,3.333,4.391,3.333A8.735,8.735,0,0,1,18,38.173a14.758,14.758,0,0,0,7.684,2.172A13.646,13.646,0,0,0,39.431,26c0-.009,0-.017,0-.027s0-.041,0-.062,0-.048,0-.072a8.473,8.473,0,0,0,2.381-2.515,8.607,8.607,0,0,1-2.724.773,5.218,5.218,0,0,0,2.046-2.668" transform="translate(-18 -21)" fill="#f15d23" fill-rule="evenodd"/>
</svg>
